<svg width="884" height="884" viewBox="0 0 884 884" fill="none" xmlns="http://www.w3.org/2000/svg">
<path fill-rule="evenodd" clip-rule="evenodd" d="M555.241 118.213C552.164 123.97 548.457 128.58 544.121 132.045L582.169 140.634C586.696 136.324 590.451 131.503 593.432 126.169C596.409 120.852 598.9 113.754 600.904 104.876C603.767 92.1936 603.167 75.1745 599.101 53.819C597.173 43.6895 595.949 34.8686 595.43 27.3562C610.982 33.1131 626.122 39.72 640.793 47.1205C641.442 52.2287 642.341 57.8018 643.491 63.8398C647.556 85.1953 648.157 102.214 645.294 114.897C643.29 123.775 640.751 131.084 637.678 136.824C634.601 142.58 630.895 147.191 626.558 150.655L664.606 159.244C669.134 154.934 672.888 150.113 675.869 144.779C678.847 139.462 681.338 132.364 683.342 123.486C686.205 110.804 685.604 93.7846 681.539 72.4291C681.396 71.6806 681.258 70.9392 681.123 70.205C697.947 81.0479 713.988 93.0016 729.141 105.962C729.921 116.708 729.451 125.89 727.731 133.507C725.727 142.385 723.188 149.694 720.116 155.434C717.039 161.19 713.332 165.801 708.996 169.265L747.044 177.854C751.571 173.544 755.325 168.723 758.307 163.389C761.284 158.072 763.775 150.974 765.779 142.096C765.839 141.833 765.897 141.568 765.953 141.301C775.166 151.221 783.929 161.566 792.208 172.302L774.6 224.062L507.63 163.794C500.02 162.076 493.036 163.494 486.676 168.047C480.313 172.618 476.695 178.803 475.822 186.604C473.043 230.406 484.599 270.221 510.492 306.047C536.397 341.895 570.699 364.638 613.397 374.277C657.787 384.298 699.459 377.817 738.414 354.835C777.365 331.869 804.224 298.505 818.991 254.743L828.361 227.151C863.805 290.754 884 364.019 884 442C884 686.11 686.11 884 442 884C197.89 884 0 686.11 0 442C0 197.89 197.89 0 442 0C481.845 0 520.459 5.27238 557.182 15.1576C557.517 23.406 558.807 33.4301 561.053 45.2297C565.118 66.5852 565.719 83.6043 562.856 96.287C560.852 105.165 558.314 112.474 555.241 118.213ZM696.792 317.794C673.773 327.26 649.792 329.177 624.85 323.546C599.907 317.915 578.974 305.859 562.051 287.377C545.111 268.891 534.356 247.136 529.786 222.112L752.368 272.359C738.336 293.184 719.811 308.329 696.792 317.794ZM122.2 278.818V383.345H157.888C170.133 383.345 180.188 381.204 188.052 376.924C196.016 372.543 201.889 366.471 205.672 358.706C209.555 350.842 211.496 341.633 211.496 331.081C211.496 320.529 209.555 311.37 205.672 303.605C201.889 295.741 196.016 289.668 188.052 285.388C180.188 281.008 170.133 278.818 157.888 278.818H122.2ZM156.993 366.919H141.313V295.094H156.993C165.753 295.094 172.672 296.537 177.749 299.424C182.826 302.311 186.459 306.443 188.649 311.818C190.839 317.194 191.934 323.615 191.934 331.081C191.934 338.647 190.839 345.118 188.649 350.493C186.459 355.769 182.826 359.851 177.749 362.738C172.672 365.525 165.753 366.919 156.993 366.919ZM237.768 382.15C241.849 384.141 247.076 385.136 253.447 385.136C259.619 385.136 264.646 383.842 268.528 381.254C272.51 378.666 275.596 375.381 277.787 371.399L279.578 383.345H295.855V337.801C295.855 328.144 292.819 320.678 286.746 315.402C280.673 310.126 272.361 307.488 261.809 307.488C255.637 307.488 250.062 308.583 245.085 310.773C240.107 312.863 236.026 315.9 232.84 319.882C229.754 323.864 227.962 328.543 227.464 333.918H246.13C246.827 330.334 248.619 327.647 251.505 325.855C254.392 323.963 257.777 323.018 261.66 323.018C265.94 323.018 269.524 324.212 272.411 326.601C275.298 328.99 276.741 332.724 276.741 337.801V339.593H257.926C247.175 339.593 239.112 341.733 233.736 346.013C228.36 350.294 225.672 355.869 225.672 362.738C225.672 366.819 226.668 370.552 228.659 373.937C230.65 377.322 233.686 380.059 237.768 382.15ZM270.47 364.828C267.483 368.412 263.252 370.204 257.777 370.204C254.193 370.204 251.306 369.408 249.116 367.815C246.926 366.222 245.831 363.982 245.831 361.095C245.831 358.407 246.926 356.168 249.116 354.376C251.306 352.484 254.94 351.538 260.017 351.538H276.293C275.497 356.815 273.556 361.245 270.47 364.828ZM315.737 294.646C318.027 296.736 320.914 297.782 324.398 297.782C327.882 297.782 330.719 296.736 332.909 294.646C335.199 292.555 336.344 289.917 336.344 286.732C336.344 283.546 335.199 280.958 332.909 278.967C330.719 276.876 327.882 275.831 324.398 275.831C320.914 275.831 318.027 276.876 315.737 278.967C313.547 280.958 312.452 283.546 312.452 286.732C312.452 289.917 313.547 292.555 315.737 294.646ZM314.841 309.28V383.345H333.955V309.28H314.841ZM353.905 275.831V383.345H373.018V275.831H353.905ZM418.979 378.417L401.806 416.196H422.114L469.152 309.28H448.843L427.191 361.394L406.435 309.28H385.679L414.499 378.417H418.979ZM119.301 587.27V420.027H155.616L208.895 526.107L261.457 420.027H297.773V587.27H267.191V471.872L220.602 563.378H196.471L149.882 471.872V587.27H119.301ZM387.084 590.137C375.138 590.137 364.546 587.589 355.308 582.492C346.069 577.395 338.822 570.227 333.566 560.989C328.31 551.751 325.682 541.079 325.682 528.974C325.682 516.71 328.23 505.799 333.327 496.242C338.583 486.685 345.751 479.279 354.83 474.023C364.068 468.607 374.899 465.899 387.323 465.899C398.95 465.899 409.224 468.448 418.143 473.545C427.063 478.642 433.992 485.65 438.929 494.57C444.026 503.33 446.575 513.126 446.575 523.957C446.575 525.709 446.495 527.541 446.336 529.452C446.336 531.363 446.256 533.354 446.097 535.425H356.024C356.662 544.663 359.847 551.91 365.581 557.166C371.475 562.423 378.562 565.051 386.845 565.051C393.057 565.051 398.233 563.697 402.375 560.989C406.675 558.122 409.861 554.459 411.931 549.999H442.991C440.761 557.485 437.018 564.334 431.762 570.546C426.665 576.599 420.294 581.377 412.648 584.881C405.162 588.385 396.641 590.137 387.084 590.137ZM387.323 490.747C379.837 490.747 373.227 492.897 367.493 497.198C361.758 501.339 358.095 507.71 356.502 516.311H415.515C415.037 508.507 412.17 502.295 406.914 497.676C401.658 493.057 395.128 490.747 387.323 490.747ZM513.151 590.137C502.957 590.137 494.595 588.544 488.064 585.359C481.534 582.014 476.676 577.634 473.49 572.218C470.305 566.803 468.712 560.83 468.712 554.299C468.712 543.309 473.013 534.39 481.614 527.541C490.215 520.692 503.116 517.267 520.319 517.267H550.422V514.4C550.422 506.277 548.113 500.304 543.494 496.481C538.875 492.658 533.141 490.747 526.292 490.747C520.08 490.747 514.664 492.26 510.045 495.286C505.426 498.153 502.559 502.454 501.444 508.188H471.579C472.375 499.587 475.243 492.101 480.18 485.73C485.277 479.359 491.808 474.501 499.772 471.156C507.735 467.651 516.655 465.899 526.53 465.899C543.414 465.899 556.714 470.12 566.43 478.562C576.146 487.004 581.004 498.95 581.004 514.4V587.27H554.962L552.095 568.157C548.591 574.528 543.653 579.784 537.282 583.925C531.07 588.067 523.026 590.137 513.151 590.137ZM520.08 566.245C528.84 566.245 535.609 563.378 540.388 557.644C545.325 551.91 548.431 544.822 549.706 536.38H523.663C515.54 536.38 509.726 537.894 506.222 540.92C502.718 543.787 500.966 547.371 500.966 551.671C500.966 556.29 502.718 559.874 506.222 562.423C509.726 564.971 514.346 566.245 520.08 566.245ZM610.188 587.27V415.249H640.769V587.27H610.188ZM720.996 590.137C710.483 590.137 701.245 588.465 693.281 585.12C685.317 581.616 678.946 576.837 674.167 570.785C669.389 564.732 666.522 557.724 665.566 549.76H696.387C697.343 554.379 699.891 558.361 704.032 561.706C708.333 564.891 713.828 566.484 720.518 566.484C727.207 566.484 732.065 565.13 735.092 562.423C738.277 559.715 739.87 556.609 739.87 553.105C739.87 548.008 737.64 544.583 733.18 542.831C728.721 540.92 722.509 539.088 714.545 537.336C709.448 536.221 704.271 534.867 699.015 533.275C693.759 531.682 688.901 529.691 684.441 527.302C680.14 524.753 676.636 521.568 673.929 517.745C671.221 513.763 669.867 508.905 669.867 503.171C669.867 492.658 674.008 483.818 682.291 476.651C690.732 469.483 702.519 465.899 717.651 465.899C731.667 465.899 742.817 469.165 751.099 475.695C759.541 482.226 764.558 491.225 766.151 502.693H737.242C735.49 493.933 728.88 489.552 717.412 489.552C711.678 489.552 707.218 490.667 704.032 492.897C701.006 495.127 699.493 497.915 699.493 501.259C699.493 504.764 701.802 507.551 706.422 509.622C711.041 511.692 717.173 513.604 724.818 515.356C733.101 517.267 740.667 519.417 747.516 521.806C754.524 524.036 760.099 527.461 764.24 532.08C768.381 536.54 770.452 542.991 770.452 551.432C770.611 558.759 768.7 565.369 764.718 571.263C760.736 577.156 755.002 581.775 747.516 585.12C740.029 588.465 731.189 590.137 720.996 590.137Z" fill="white"/>
</svg>
