<svg width="1108" height="493" viewBox="0 0 1108 493" fill="none" xmlns="http://www.w3.org/2000/svg">
<path d="M38.3386 319.915H72.6946V79.331H38.3386V319.915Z" fill="white"/>
<path d="M38.3386 34.4067H72.6946V0.0253896H38.3386V34.4067Z" fill="white"/>
<path d="M120.293 79.3297V319.915H154.647V128.855C154.647 124.432 155.828 121.142 159.145 117.952C162.437 114.764 165.832 113.71 170.281 113.71H314.848C319.272 113.71 323.436 114.764 326.625 117.952C329.813 121.142 331.793 124.432 331.793 128.855V319.915H366.173V128.855C366.173 115.02 360.723 103.528 350.872 93.7057C341.051 83.855 328.681 79.3297 314.848 79.3297H120.293Z" fill="white"/>
<path d="M408.448 0.000344589V269.258C408.448 283.091 413.205 295.151 422.899 304.975C432.619 314.823 444.448 319.915 458.565 319.915H545.944V285.535H458.565C454.143 285.535 450.544 283.888 447.379 280.724C444.192 277.512 442.828 273.706 442.828 269.258V113.71H545.944V79.3297H442.828V0.000344589H408.448Z" fill="white"/>
<path d="M628.461 79.3297C614.603 79.3297 602.489 83.855 592.641 93.7057C582.844 103.528 577.675 115.02 577.675 128.855V319.915H612.028V128.855C612.028 124.432 613.727 121.142 616.94 117.952C620.104 114.764 624.013 113.71 628.461 113.71H762.717V79.3297H628.461Z" fill="white"/>
<path d="M838.677 79.3297C824.817 79.3297 813.348 83.855 803.5 93.7057C793.704 103.528 789.177 115.02 789.177 128.855V269.258C789.177 283.091 793.704 295.151 803.5 304.975C813.348 314.823 824.817 319.915 838.677 319.915H983.245C997.363 319.915 1009.86 314.823 1019.71 304.975C1029.56 295.151 1035.03 283.091 1035.03 269.258V128.855C1035.03 115.02 1029.56 103.528 1019.71 93.7057C1009.86 83.855 997.363 79.3297 983.245 79.3297H838.677ZM827.749 280.724C824.587 277.512 823.557 273.706 823.557 269.258V128.855C823.557 124.432 824.587 121.142 827.749 117.952C830.939 114.764 834.231 113.71 838.677 113.71H983.245C987.643 113.71 992.067 114.764 995.253 117.952C998.416 121.142 1000.65 124.432 1000.65 128.855V269.258C1000.65 273.706 998.416 277.512 995.253 280.724C992.067 283.888 987.643 285.535 983.245 285.535H838.677C834.231 285.535 830.939 283.888 827.749 280.724Z" fill="white"/>
<path d="M74.6491 465.587C74.6491 463.633 74.2877 461.807 73.4651 460.085C72.6944 458.362 71.6144 456.845 70.2264 455.533C68.8624 454.247 67.2424 453.219 65.3917 452.449C63.5144 451.701 61.5344 451.315 59.4517 451.315C56.3131 451.315 53.7411 451.958 51.6851 453.219C49.6024 454.505 47.9557 455.946 46.7744 457.615C45.5651 459.235 44.7171 460.857 44.2024 462.398C43.7144 463.942 43.4317 465.021 43.4317 465.587H74.6491ZM79.0197 482.995C76.8091 486.365 74.0571 488.782 70.8171 490.222C67.4997 491.687 63.9251 492.407 60.0171 492.407C56.6477 492.407 53.5877 491.841 50.8611 490.711C48.1371 489.579 45.7717 487.958 43.8171 485.901C41.8371 483.843 40.3451 481.401 39.3171 478.573C38.2624 475.77 37.7224 472.633 37.7224 469.214C37.7224 465.921 38.2877 462.862 39.3437 460.085C40.4224 457.282 41.9397 454.838 43.9184 452.782C45.8997 450.75 48.2144 449.105 50.8611 447.947C53.5371 446.765 56.4944 446.198 59.7077 446.198C63.0771 446.198 66.0331 446.765 68.6051 447.947C71.2024 449.105 73.3384 450.671 75.0851 452.602C76.8344 454.555 78.1464 456.741 79.0197 459.21C79.9197 461.678 80.3557 464.199 80.3557 466.719V470.729H43.4317C43.4317 471.939 43.6877 473.482 44.1504 475.334C44.6397 477.21 45.5131 479.037 46.7744 480.81C48.0331 482.585 49.7317 484.102 51.8917 485.389C53.9997 486.647 56.7504 487.29 60.0677 487.29C63.0251 487.29 65.8544 486.57 68.5797 485.182C71.3051 483.793 73.3877 481.891 74.8531 479.474L79.0197 482.995Z" fill="white"/>
<path d="M104.348 467.49L88.6363 447.33H95.9657L108.154 463.967L120.214 447.33H127.363L111.858 467.49L130.706 491.276H123.25L107.948 471.399L92.9057 491.276H86.0657L104.348 467.49Z" fill="white"/>
<path d="M138.857 419.352H144.592V455.019H144.773C145.903 452.628 147.807 450.545 150.505 448.796C153.129 447.047 156.24 446.172 159.788 446.172C163.209 446.172 166.012 446.713 168.172 447.793C170.332 448.873 172.029 450.287 173.264 452.037C174.472 453.784 175.372 455.791 175.835 458.079C176.297 460.368 176.529 462.708 176.529 465.1V491.276H170.821V465.407C170.821 463.633 170.692 461.909 170.359 460.213C170.049 458.543 169.484 457.024 168.712 455.688C167.916 454.351 166.809 453.323 165.343 452.524C163.929 451.727 162.077 451.316 159.788 451.316C157.707 451.316 155.725 451.701 153.875 452.423C151.972 453.141 150.377 454.248 149.015 455.739C147.652 457.231 146.547 459.107 145.775 461.344C144.977 463.607 144.592 466.256 144.592 469.289V491.276H138.857V419.352Z" fill="white"/>
<path d="M192.729 447.33H198.412V491.25H192.729V447.33ZM191.289 429.922C191.289 428.712 191.701 427.684 192.549 426.86C193.347 426.039 194.375 425.628 195.584 425.628C196.768 425.628 197.821 426.039 198.592 426.86C199.441 427.684 199.852 428.712 199.852 429.922C199.852 431.104 199.441 432.134 198.592 432.956C197.821 433.779 196.768 434.191 195.584 434.191C194.375 434.191 193.347 433.779 192.549 432.956C191.701 432.134 191.289 431.104 191.289 429.922Z" fill="white"/>
<path d="M218.495 469.315C218.495 471.785 218.958 474.125 219.934 476.31C220.861 478.47 222.173 480.374 223.794 481.993C225.465 483.614 227.418 484.899 229.63 485.85C231.841 486.802 234.258 487.29 236.881 487.29C239.529 487.29 241.921 486.802 244.107 485.85C246.242 484.899 248.093 483.614 249.61 481.993C251.127 480.374 252.283 478.47 253.081 476.31C253.878 474.125 254.263 471.785 254.263 469.315C254.263 466.822 253.878 464.507 253.081 462.295C252.283 460.11 251.127 458.207 249.61 456.587C248.093 454.993 246.242 453.707 244.107 452.73C241.921 451.779 239.529 451.315 236.881 451.315C234.258 451.315 231.841 451.779 229.63 452.73C227.418 453.707 225.465 454.993 223.794 456.587C222.173 458.207 220.861 460.11 219.934 462.295C218.958 464.507 218.495 466.822 218.495 469.315ZM213.353 419.351H219.061V455.018H219.267C220.167 453.502 221.246 452.19 222.61 451.083C223.921 449.979 225.361 449.053 226.929 448.333C228.471 447.587 230.119 447.047 231.815 446.687C233.538 446.353 235.209 446.198 236.881 446.198C240.225 446.198 243.31 446.738 246.138 447.897C248.967 449.027 251.383 450.647 253.441 452.705C255.523 454.762 257.119 457.205 258.249 460.007C259.382 462.862 259.999 465.921 259.999 469.315C259.999 472.659 259.382 475.77 258.249 478.573C257.119 481.401 255.523 483.843 253.441 485.901C251.383 487.958 248.967 489.579 246.138 490.711C243.31 491.842 240.225 492.407 236.881 492.407C235.209 492.407 233.538 492.253 231.815 491.894C230.119 491.559 228.471 490.994 226.929 490.274C225.361 489.554 223.921 488.627 222.61 487.521C221.246 486.391 220.167 485.105 219.267 483.587H219.061V491.277H213.353V419.351Z" fill="white"/>
<path d="M273.679 447.33H279.387V491.25H273.679V447.33ZM272.239 429.922C272.239 428.712 272.676 427.684 273.473 426.86C274.321 426.039 275.324 425.628 276.533 425.628C277.741 425.628 278.771 426.039 279.567 426.86C280.416 427.684 280.801 428.712 280.801 429.922C280.801 431.104 280.416 432.134 279.567 432.956C278.771 433.779 277.741 434.191 276.533 434.191C275.324 434.191 274.321 433.779 273.473 432.956C272.676 432.134 272.239 431.104 272.239 429.922Z" fill="white"/>
<path d="M317.059 452.448H304.484V481.092C304.484 483.074 305.026 484.59 306.104 485.671C307.184 486.751 308.675 487.291 310.579 487.291C311.684 487.291 312.739 487.136 313.87 486.855C314.976 486.571 316.055 486.186 317.059 485.774L317.522 490.89C316.442 491.276 315.207 491.611 313.846 491.944C312.43 492.254 311.196 492.408 310.142 492.408C308.086 492.408 306.336 492.126 304.896 491.508C303.43 490.916 302.247 490.119 301.347 489.09C300.474 488.087 299.83 486.878 299.392 485.516C298.98 484.179 298.802 482.688 298.802 481.092V452.448H289.287V447.33H298.802V434.679H304.484V447.33H317.059V452.448Z" fill="white"/>
<path d="M328.271 447.33H334.005V491.25H328.271V447.33ZM326.883 429.922C326.883 428.712 327.293 427.684 328.091 426.86C328.913 426.039 329.968 425.628 331.124 425.628C332.333 425.628 333.363 426.039 334.184 426.86C335.007 427.684 335.42 428.712 335.42 429.922C335.42 431.104 335.007 432.134 334.184 432.956C333.363 433.779 332.333 434.191 331.124 434.191C329.968 434.191 328.913 433.779 328.091 432.956C327.293 432.134 326.883 431.104 326.883 429.922Z" fill="white"/>
<path d="M353.394 469.315C353.394 471.785 353.779 474.125 354.578 476.31C355.373 478.47 356.531 480.374 358.049 481.993C359.59 483.614 361.442 484.899 363.602 485.85C365.762 486.802 368.129 487.29 370.803 487.29C373.478 487.29 375.894 486.802 378.054 485.85C380.213 484.899 382.039 483.614 383.557 481.993C385.099 480.374 386.257 478.47 387.029 476.31C387.826 474.125 388.211 471.785 388.211 469.315C388.211 466.822 387.826 464.507 387.029 462.295C386.257 460.11 385.099 458.207 383.557 456.587C382.039 454.993 380.213 453.707 378.054 452.73C375.894 451.779 373.478 451.315 370.803 451.315C368.129 451.315 365.762 451.779 363.602 452.73C361.442 453.707 359.59 454.993 358.049 456.587C356.531 458.207 355.373 460.11 354.578 462.295C353.779 464.507 353.394 466.822 353.394 469.315ZM347.711 469.315C347.711 465.921 348.253 462.862 349.409 460.007C350.539 457.205 352.135 454.762 354.166 452.705C356.197 450.647 358.639 449.027 361.469 447.897C364.349 446.738 367.459 446.198 370.803 446.198C374.198 446.198 377.255 446.738 380.086 447.897C382.915 449.027 385.382 450.647 387.415 452.705C389.471 454.762 391.066 457.205 392.198 460.007C393.354 462.862 393.945 465.921 393.945 469.315C393.945 472.659 393.354 475.77 392.198 478.573C391.066 481.401 389.471 483.843 387.415 485.901C385.382 487.958 382.915 489.579 380.086 490.711C377.255 491.842 374.198 492.407 370.803 492.407C367.459 492.407 364.349 491.842 361.469 490.711C358.639 489.579 356.197 487.958 354.166 485.901C352.135 483.843 350.539 481.401 349.409 478.573C348.253 475.77 347.711 472.659 347.711 469.315" fill="white"/>
<path d="M406.674 459.7C406.674 458.876 406.647 457.848 406.572 456.69C406.52 455.533 406.468 454.35 406.443 453.141C406.391 451.908 406.366 450.777 406.288 449.748C406.236 448.72 406.21 447.896 406.21 447.33H411.92C411.971 448.976 411.996 450.545 412.047 452.086C412.074 453.605 412.151 454.581 412.306 455.018H412.562C413.719 452.628 415.596 450.545 418.271 448.796C420.946 447.048 424.032 446.172 427.606 446.172C431.027 446.172 433.803 446.714 435.963 447.793C438.123 448.873 439.82 450.286 441.08 452.037C442.314 453.784 443.163 455.79 443.651 458.078C444.114 460.368 444.371 462.708 444.371 465.1V491.277H438.638V465.406C438.638 463.633 438.482 461.909 438.174 460.214C437.84 458.542 437.274 457.024 436.502 455.688C435.704 454.377 434.599 453.296 433.159 452.524C431.746 451.728 429.868 451.316 427.606 451.316C425.523 451.316 423.543 451.701 421.666 452.422C419.788 453.141 418.168 454.248 416.807 455.738C415.442 457.23 414.363 459.108 413.566 461.344C412.768 463.608 412.383 466.256 412.383 469.289V491.277H406.674V459.7Z" fill="white"/>
<path d="M506.01 427.916C503.13 427.916 500.738 428.79 498.783 430.54C496.804 432.286 495.802 434.576 495.802 437.43C495.802 438.561 496.058 439.745 496.546 440.952C497.01 442.162 497.627 443.318 498.371 444.476C499.067 445.608 499.888 446.688 500.687 447.717C501.587 448.72 502.358 449.644 503.027 450.468C504.39 449.773 505.778 449.028 507.243 448.178C508.683 447.356 510.02 446.404 511.255 445.325C512.438 444.245 513.44 443.036 514.238 441.648C515.035 440.284 515.422 438.742 515.422 436.966C515.422 434.293 514.546 432.108 512.772 430.436C510.972 428.738 508.708 427.916 506.01 427.916ZM501.328 457.488C499.812 458.388 498.319 459.338 496.828 460.368C495.312 461.396 493.975 462.501 492.742 463.736C491.48 464.97 490.503 466.358 489.732 467.928C488.986 469.47 488.575 471.245 488.575 473.198C488.575 475.36 488.986 477.288 489.783 479.01C490.58 480.733 491.635 482.2 493.023 483.433C494.386 484.642 495.982 485.618 497.858 486.288C499.735 486.93 501.714 487.29 503.823 487.29C505.598 487.29 507.243 486.982 508.812 486.442C510.355 485.85 511.795 485.078 513.132 484.154C514.47 483.176 515.704 482.096 516.835 480.836C517.967 479.628 519.046 478.317 519.972 476.902L501.328 457.488ZM523.032 471.682L532.752 454.169H539.232L527.043 475.693L542.343 491.74H533.884L523.778 480.914C521.052 484.59 518.07 487.521 514.778 489.709C511.538 491.893 507.578 493 502.846 493C499.992 493 497.316 492.51 494.822 491.61C492.304 490.685 490.144 489.373 488.292 487.676C486.466 485.928 485 483.896 483.947 481.48C482.867 479.062 482.3 476.362 482.3 473.405C482.3 470.781 482.738 468.494 483.638 466.54C484.538 464.558 485.695 462.836 487.108 461.293C488.548 459.777 490.168 458.414 492.02 457.178C493.871 455.92 495.75 454.736 497.728 453.526C496.778 452.37 495.802 451.162 494.822 449.928C493.819 448.72 492.972 447.408 492.202 446.07C491.428 444.758 490.812 443.37 490.298 441.956C489.783 440.516 489.551 439.05 489.551 437.506C489.551 435.116 489.988 432.956 490.915 431.053C491.84 429.15 493.075 427.554 494.644 426.244C496.16 424.933 497.986 423.956 500.07 423.261C502.1 422.568 504.26 422.206 506.472 422.206C508.452 422.206 510.355 422.568 512.18 423.261C514.032 423.956 515.678 424.933 517.067 426.141C518.506 427.401 519.639 428.893 520.46 430.641C521.258 432.365 521.696 434.344 521.696 436.504C521.696 438.87 521.258 440.978 520.41 442.753C519.56 444.528 518.428 446.122 516.988 447.51C515.575 448.898 513.955 450.16 512.18 451.213C510.407 452.293 508.58 453.348 506.678 454.377L523.032 471.682Z" fill="white"/>
<path d="M612.827 484.797C610.667 487.42 608.225 489.346 605.525 490.582C602.773 491.789 599.842 492.408 596.653 492.408C593.285 492.408 590.173 491.841 587.345 490.712C584.489 489.58 582.022 487.958 580.017 485.901C577.985 483.844 576.39 481.401 575.258 478.573C574.127 475.769 573.562 472.658 573.562 469.316C573.562 465.921 574.127 462.862 575.258 460.006C576.39 457.205 577.985 454.762 580.017 452.705C582.022 450.648 584.489 449.028 587.345 447.896C590.173 446.738 593.285 446.198 596.653 446.198C599.918 446.198 602.875 446.841 605.653 448.178C608.405 449.49 610.873 451.368 613.007 453.81L608.457 457.23C606.81 455.38 604.985 453.938 603.03 452.91C601.077 451.829 598.966 451.316 596.653 451.316C594.005 451.316 591.586 451.778 589.426 452.729C587.267 453.708 585.415 454.992 583.899 456.588C582.407 458.208 581.225 460.109 580.427 462.296C579.655 464.506 579.245 466.822 579.245 469.316C579.245 471.758 579.655 474.125 580.427 476.31C581.225 478.47 582.407 480.374 583.899 481.992C585.415 483.613 587.267 484.898 589.426 485.85C591.586 486.802 594.005 487.29 596.653 487.29C599.095 487.29 601.282 486.725 603.287 485.618C605.293 484.488 607.015 483.021 608.457 481.196L612.827 484.797Z" fill="white"/>
<path d="M625.016 469.315C625.016 471.785 625.402 474.125 626.174 476.31C626.996 478.47 628.154 480.374 629.67 481.993C631.187 483.614 633.012 484.899 635.224 485.85C637.359 486.802 639.751 487.29 642.424 487.29C645.1 487.29 647.49 486.802 649.651 485.85C651.811 484.899 653.662 483.614 655.179 481.993C656.696 480.374 657.879 478.47 658.651 476.31C659.423 474.125 659.834 471.785 659.834 469.315C659.834 466.822 659.423 464.507 658.651 462.295C657.879 460.11 656.696 458.207 655.179 456.587C653.662 454.993 651.811 453.707 649.651 452.73C647.49 451.779 645.1 451.315 642.424 451.315C639.751 451.315 637.359 451.779 635.224 452.73C633.012 453.707 631.187 454.993 629.67 456.587C628.154 458.207 626.996 460.11 626.174 462.295C625.402 464.507 625.016 466.822 625.016 469.315ZM619.307 469.315C619.307 465.921 619.874 462.862 621.004 460.007C622.162 457.205 623.73 454.762 625.762 452.705C627.819 450.647 630.262 449.027 633.091 447.897C635.944 446.738 639.082 446.198 642.424 446.198C645.794 446.198 648.879 446.738 651.708 447.897C654.511 449.027 656.954 450.647 659.036 452.705C661.094 454.762 662.688 457.205 663.82 460.007C664.976 462.862 665.516 465.921 665.516 469.315C665.516 472.659 664.976 475.77 663.82 478.573C662.688 481.401 661.094 483.843 659.036 485.901C656.954 487.958 654.511 489.579 651.708 490.711C648.879 491.842 645.794 492.407 642.424 492.407C639.082 492.407 635.944 491.842 633.091 490.711C630.262 489.579 627.819 487.958 625.762 485.901C623.73 483.843 622.162 481.401 621.004 478.573C619.874 475.77 619.307 472.659 619.307 469.315" fill="white"/>
<path d="M678.296 459.7C678.296 458.876 678.269 457.848 678.193 456.69C678.116 455.533 678.091 454.35 678.064 453.141C678.013 451.908 677.989 450.777 677.911 449.748C677.833 448.72 677.808 447.896 677.808 447.33H683.516C683.593 448.976 683.645 450.545 683.671 452.086C683.696 453.605 683.773 454.581 683.903 455.018H684.211C685.343 452.628 687.245 450.545 689.919 448.796C692.568 447.048 695.679 446.172 699.227 446.172C702.648 446.172 705.451 446.714 707.585 447.793C709.745 448.873 711.441 450.286 712.676 452.037C713.911 453.784 714.785 455.79 715.248 458.078C715.737 460.368 715.968 462.708 715.968 465.1V491.277H710.285V465.406C710.285 463.633 710.104 461.909 709.771 460.214C709.463 458.542 708.897 457.024 708.125 455.688C707.328 454.377 706.221 453.296 704.781 452.524C703.368 451.728 701.491 451.316 699.227 451.316C697.12 451.316 695.165 451.701 693.288 452.422C691.411 453.141 689.765 454.248 688.428 455.738C687.04 457.23 685.959 459.108 685.188 461.344C684.391 463.608 684.004 466.256 684.004 469.289V491.277H678.296V459.7Z" fill="white"/>
<path d="M734.432 452.448H725.277V447.329H734.432V432.956C734.432 430.101 734.844 427.736 735.69 425.859C736.566 423.981 737.621 422.489 738.905 421.359C740.166 420.2 741.58 419.377 743.149 418.916C744.666 418.452 746.158 418.221 747.572 418.221C750.22 418.221 752.405 418.581 754.102 419.352L752.972 424.289C751.712 423.672 750.016 423.364 747.853 423.364C742.712 423.364 740.14 427.247 740.14 435.064V447.329H750.401V452.448H740.14V491.276H734.432V452.448Z" fill="white"/>
<path d="M793.781 465.587C793.781 463.633 793.369 461.807 792.598 460.085C791.826 458.362 790.721 456.845 789.358 455.533C787.994 454.247 786.374 453.219 784.497 452.449C782.621 451.701 780.666 451.315 778.557 451.315C775.473 451.315 772.874 451.958 770.817 453.219C768.759 454.505 767.115 455.946 765.906 457.615C764.698 459.235 763.849 460.857 763.361 462.398C762.819 463.942 762.589 465.021 762.589 465.587H793.781ZM798.151 482.995C795.941 486.365 793.215 488.782 789.949 490.222C786.657 491.687 783.083 492.407 779.149 492.407C775.754 492.407 772.719 491.841 770.021 490.711C767.294 489.579 764.927 487.958 762.975 485.901C760.994 483.843 759.502 481.401 758.423 478.573C757.419 475.77 756.881 472.633 756.881 469.214C756.881 465.921 757.419 462.862 758.499 460.085C759.554 457.282 761.097 454.838 763.078 452.782C765.031 450.75 767.346 449.105 770.021 447.947C772.669 446.765 775.626 446.198 778.841 446.198C782.235 446.198 785.166 446.765 787.763 447.947C790.335 449.105 792.47 450.671 794.193 452.602C795.967 454.555 797.277 456.741 798.151 459.21C799.078 461.678 799.515 464.199 799.515 466.719V470.729H762.589C762.589 471.939 762.819 473.482 763.283 475.334C763.771 477.21 764.621 479.037 765.906 480.81C767.193 482.585 768.889 484.102 770.998 485.389C773.133 486.647 775.883 487.29 779.226 487.29C782.157 487.29 784.986 486.57 787.687 485.182C790.411 483.793 792.521 481.891 793.961 479.474L798.151 482.995Z" fill="white"/>
<path d="M812.244 459.7C812.244 458.876 812.217 457.848 812.14 456.69C812.063 455.533 812.037 454.35 812.011 453.141C811.96 451.908 811.908 450.777 811.859 449.748C811.807 448.72 811.78 447.896 811.78 447.33H817.489C817.541 448.976 817.567 450.545 817.592 452.086C817.644 453.605 817.747 454.581 817.875 455.018C819.315 452.449 821.165 450.286 823.481 448.641C825.743 446.997 828.547 446.172 831.837 446.172C832.429 446.172 832.968 446.225 833.508 446.328C834.075 446.43 834.589 446.533 835.18 446.662L834.512 452.268C833.741 452.01 833.02 451.882 832.327 451.882C829.859 451.882 827.697 452.268 825.872 453.065C824.072 453.889 822.581 454.966 821.424 456.356C820.24 457.77 819.391 459.392 818.8 461.242C818.235 463.145 817.952 465.15 817.952 467.31V491.277H812.244V459.7Z" fill="white"/>
<path d="M878.356 465.587C878.356 463.633 877.971 461.807 877.199 460.085C876.376 458.362 875.322 456.845 873.934 455.533C872.596 454.247 870.95 453.219 869.099 452.449C867.196 451.701 865.216 451.315 863.132 451.315C860.047 451.315 857.476 451.958 855.367 453.219C853.335 454.505 851.69 455.946 850.482 457.615C849.298 459.235 848.45 460.857 847.91 462.398C847.422 463.942 847.163 465.021 847.163 465.587H878.356ZM882.754 482.995C880.515 486.365 877.79 488.782 874.524 490.222C871.232 491.687 867.659 492.407 863.699 492.407C860.33 492.407 857.295 491.841 854.57 490.711C851.844 489.579 849.504 487.958 847.551 485.901C845.57 483.843 844.052 481.401 843.024 478.573C841.97 475.77 841.455 472.633 841.455 469.214C841.455 465.921 841.995 462.862 843.051 460.085C844.156 457.282 845.647 454.838 847.627 452.782C849.607 450.75 851.922 449.105 854.57 447.947C857.244 446.765 860.202 446.198 863.415 446.198C866.783 446.198 869.742 446.765 872.312 447.947C874.884 449.105 877.044 450.671 878.792 452.602C880.542 454.555 881.828 456.741 882.754 459.21C883.627 461.678 884.063 464.199 884.063 466.719V470.729H847.163C847.163 471.939 847.395 473.482 847.884 475.334C848.347 477.21 849.22 479.037 850.482 480.81C851.767 482.585 853.439 484.102 855.572 485.389C857.68 486.647 860.432 487.29 863.802 487.29C866.708 487.29 869.536 486.57 872.262 485.182C874.988 483.793 877.096 481.891 878.56 479.474L882.754 482.995Z" fill="white"/>
<path d="M896.818 459.7C896.818 458.876 896.766 457.848 896.74 456.69C896.664 455.533 896.613 454.35 896.588 453.141C896.536 451.908 896.484 450.777 896.433 449.748C896.381 448.72 896.354 447.896 896.354 447.33H902.038C902.116 448.976 902.168 450.545 902.192 452.086C902.218 453.605 902.296 454.581 902.45 455.018H902.706C903.864 452.628 905.768 450.545 908.442 448.796C911.065 447.048 914.202 446.172 917.749 446.172C921.17 446.172 923.973 446.714 926.132 447.793C928.268 448.873 929.99 450.286 931.198 452.037C932.433 453.784 933.308 455.79 933.77 458.078C934.258 460.368 934.49 462.708 934.49 465.1V491.277H928.782V465.406C928.782 463.633 928.653 461.909 928.293 460.214C928.01 458.542 927.445 457.024 926.646 455.688C925.849 454.377 924.744 453.296 923.33 452.524C921.864 451.728 920.038 451.316 917.749 451.316C915.641 451.316 913.686 451.701 911.81 452.422C909.933 453.141 908.313 454.248 906.95 455.738C905.586 457.23 904.481 459.108 903.71 461.344C902.94 463.608 902.528 466.256 902.528 469.289V491.277H896.818V459.7Z" fill="white"/>
<path d="M986.536 484.797C984.377 487.42 981.934 489.346 979.208 490.582C976.482 491.789 973.525 492.408 970.337 492.408C966.993 492.408 963.881 491.841 961.028 490.712C958.174 489.58 955.756 487.958 953.698 485.901C951.693 483.844 950.098 481.401 948.942 478.573C947.785 475.769 947.244 472.658 947.244 469.316C947.244 465.921 947.785 462.862 948.942 460.006C950.098 457.205 951.693 454.762 953.698 452.705C955.756 450.648 958.174 449.028 961.028 447.896C963.881 446.738 966.993 446.198 970.337 446.198C973.601 446.198 976.61 446.841 979.337 448.178C982.114 449.49 984.581 451.368 986.717 453.81L982.165 457.23C980.493 455.38 978.72 453.938 976.713 452.91C974.785 451.829 972.65 451.316 970.337 451.316C967.686 451.316 965.296 451.778 963.136 452.729C960.976 453.708 959.124 454.992 957.608 456.588C956.09 458.208 954.934 460.109 954.136 462.296C953.34 464.506 952.928 466.822 952.928 469.316C952.928 471.758 953.34 474.125 954.136 476.31C954.934 478.47 956.09 480.374 957.608 481.992C959.124 483.613 960.976 484.898 963.136 485.85C965.296 486.802 967.686 487.29 970.337 487.29C972.753 487.29 974.965 486.725 976.97 485.618C978.976 484.488 980.698 483.021 982.165 481.196L986.536 484.797Z" fill="white"/>
<path d="M1029.92 465.587C1029.92 463.633 1029.53 461.807 1028.73 460.085C1027.94 458.362 1026.86 456.845 1025.47 455.533C1024.13 454.247 1022.51 453.219 1020.63 452.449C1018.76 451.701 1016.78 451.315 1014.69 451.315C1011.58 451.315 1008.99 451.958 1006.95 453.219C1004.87 454.505 1003.25 455.946 1002.04 457.615C1000.83 459.235 999.985 460.857 999.471 462.398C998.956 463.942 998.699 465.021 998.699 465.587H1029.92ZM1034.29 482.995C1032.08 486.365 1029.35 488.782 1026.09 490.222C1022.79 491.687 1019.22 492.407 1015.26 492.407C1011.89 492.407 1008.83 491.841 1006.13 490.711C1003.43 489.579 1001.04 487.958 999.111 485.901C997.107 483.843 995.613 481.401 994.559 478.573C993.531 475.77 993.016 472.633 993.016 469.214C993.016 465.921 993.531 462.862 994.611 460.085C995.691 457.282 997.208 454.838 999.188 452.782C1001.17 450.75 1003.46 449.105 1006.13 447.947C1008.81 446.765 1011.74 446.198 1014.98 446.198C1018.32 446.198 1021.3 446.765 1023.87 447.947C1026.45 449.105 1028.61 450.671 1030.33 452.602C1032.1 454.555 1033.39 456.741 1034.29 459.21C1035.19 461.678 1035.63 464.199 1035.63 466.719V470.729H998.699C998.699 471.939 998.956 473.482 999.42 475.334C999.883 477.21 1000.76 479.037 1002.04 480.81C1003.3 482.585 1005.03 484.102 1007.13 485.389C1009.24 486.647 1011.99 487.29 1015.36 487.29C1018.27 487.29 1021.1 486.57 1023.82 485.182C1026.55 483.793 1028.66 481.891 1030.07 479.474L1034.29 482.995Z" fill="white"/>
<path d="M1068.13 361.47L0 362.291V375.638H1068.1L1068.08 397.574L1107.19 368.411L1068.15 340.564L1068.13 361.47Z" fill="white"/>
</svg>
