<svg width="3016" height="722" viewBox="0 0 3016 722" fill="none" xmlns="http://www.w3.org/2000/svg">
<path fill-rule="evenodd" clip-rule="evenodd" d="M351.556 7.66132H0.17566V359.041H351.556V7.66132ZM167.066 48.6183C167.984 48.0832 169.742 47.2423 170.965 46.7837C172.264 46.2486 174.787 45.9428 176.698 46.0957L176.745 46.0986C178.063 46.1792 179.147 46.2455 180.185 46.4968C185.001 47.6611 188.856 52.7975 210.578 81.7398L210.791 82.0228C237.851 118.103 238.309 118.944 236.475 125.747C235.099 130.945 232.805 133.62 228.066 135.761C225.009 137.213 223.098 137.595 220.728 137.366C213.619 136.525 212.854 135.837 194.126 110.841C184.495 97.9989 176.316 87.4501 175.934 87.4501C175.551 87.4501 167.372 97.9989 157.741 110.841C138.401 136.601 137.866 137.137 130.069 137.137C122.502 137.137 117.38 133.162 115.469 125.823C113.558 118.944 114.017 118.179 140.924 82.2521C154.454 64.2886 166.226 49.1533 167.066 48.6183ZM124.871 168.935C121.278 170.006 116.539 175.051 115.469 178.949C113.711 185.752 116.386 192.861 122.196 196.454L125.1 198.289H226.843L229.977 196.225C234.716 193.091 236.704 189.345 236.704 183.383C236.704 177.42 234.716 173.675 229.977 170.541L226.843 168.477L177.156 168.324C147.115 168.247 126.4 168.477 124.871 168.935ZM114.781 244.688C114.781 238.726 119.444 231.999 124.719 230.241C126.171 229.706 128.923 229.4 130.834 229.553C138.096 230.012 138.784 230.7 157.741 255.925C167.373 268.767 175.552 279.316 175.934 279.316C176.316 279.316 184.495 268.767 194.127 255.925C213.466 230.165 214.001 229.629 221.798 229.629C229.366 229.629 234.488 233.604 236.399 240.943C238.31 247.899 237.851 248.587 210.791 284.743C188.877 313.921 184.858 319.355 179.932 320.364C178.741 320.608 177.497 320.594 175.934 320.594C174.369 320.594 173.124 320.608 171.932 320.363C167.011 319.351 163 313.912 141.154 284.743C127.624 266.627 116.157 250.651 115.622 249.198C115.164 247.746 114.781 245.758 114.781 244.688Z" fill="white"/>
<path fill-rule="evenodd" clip-rule="evenodd" d="M713.1 7.6601H361.721V359.04H713.1V7.6601ZM415.328 240.336V261.658H525.836V237.585H456.367C463.551 231.776 470.964 225.51 478.606 218.784C486.249 211.906 493.356 204.57 499.928 196.774C506.501 188.979 511.774 180.879 515.748 172.472C519.875 164.065 521.938 155.43 521.938 146.565C521.938 132.35 517.353 120.81 508.182 111.945C499.164 102.927 486.478 98.4174 470.123 98.4174C460.036 98.4174 450.941 100.405 442.84 104.379C434.74 108.2 428.244 114.085 423.352 122.033C418.461 129.828 415.863 139.61 415.557 151.379H443.987C443.987 143.584 446.127 136.935 450.406 131.433C454.686 125.93 461.029 123.179 469.436 123.179C477.689 123.179 483.574 125.701 487.089 130.745C490.758 135.789 492.592 141.597 492.592 148.169C492.592 155.2 490.376 162.46 485.943 169.95C481.663 177.287 475.855 184.853 468.519 192.648C461.335 200.443 453.081 208.314 443.757 216.263C434.587 224.211 425.11 232.235 415.328 240.336ZM574.049 258.907C582.608 262.575 592.161 264.409 602.708 264.409C614.63 264.409 624.641 262.193 632.742 257.76C640.996 253.328 647.263 247.443 651.542 240.106C655.822 232.77 657.962 224.669 657.962 215.804C657.962 205.257 655.134 196.545 649.479 189.667C643.823 182.636 636.487 178.204 627.469 176.37C634.806 174.23 640.92 170.103 645.811 163.989C650.855 157.722 653.376 150.08 653.376 141.062C653.376 133.267 651.389 126.159 647.415 119.74C643.594 113.32 637.863 108.2 630.22 104.379C622.731 100.405 613.483 98.4174 602.478 98.4174C587.041 98.4174 574.431 102.697 564.649 111.257C555.02 119.816 549.899 131.509 549.288 146.335H577.947C578.405 139.916 580.698 134.49 584.825 130.057C589.104 125.624 594.989 123.408 602.478 123.408C609.357 123.408 614.706 125.242 618.527 128.911C622.501 132.426 624.489 137.164 624.489 143.126C624.489 150.309 621.89 155.735 616.693 159.404C611.497 163.072 605 164.906 597.205 164.906H585.054V188.979H596.976C606.453 188.979 614.171 191.196 620.132 195.628C626.246 199.908 629.303 206.251 629.303 214.658C629.303 221.841 627.01 227.802 622.425 232.541C617.84 237.279 611.267 239.648 602.708 239.648C593.69 239.648 586.659 237.05 581.615 231.853C576.724 226.503 574.202 219.931 574.049 212.136H545.161C545.467 223.905 548.218 233.687 553.415 241.482C558.612 249.277 565.49 255.085 574.049 258.907Z" fill="white"/>
<path d="M361.721 370.086H713.101V435.437C712.103 435.106 711.107 434.813 710.114 434.559C702.955 432.728 646.517 432.728 639.524 434.559C631.783 436.557 627.953 438.971 606.477 455.37L586.082 470.937L585.083 463.029C583.918 453.456 581.421 447.712 576.176 442.467L572.514 438.805L576.093 434.809C582.17 427.983 583.585 424.237 583.585 414.165C583.585 406.34 583.335 404.925 581.337 400.763C578.341 394.769 572.597 389.025 566.77 386.112C562.857 384.281 560.693 383.781 554.533 383.615C547.957 383.365 546.292 383.615 542.047 385.363C535.72 388.027 531.891 391.107 528.062 396.767C519.904 408.504 521.236 425.236 531.059 435.225L534.139 438.305L530.476 442.467C523.4 450.292 520.487 459.699 523.983 463.195C526.564 465.776 530.975 465.526 533.14 462.779C534.139 461.53 534.888 459.948 534.888 459.199C534.888 456.452 539.716 450.126 543.462 447.961C550.787 443.633 559.361 444.299 565.688 449.71C571.515 454.704 572.597 457.868 572.68 470.271L572.763 481.009L554.034 495.41C543.712 503.318 535.054 509.811 534.721 509.811C534.305 509.894 534.055 504.567 534.055 497.991C534.055 485.088 533.473 483.09 529.477 482.091C527.063 481.509 522.901 483.34 522.068 485.338C521.819 486.087 521.569 494.245 521.569 503.485L521.486 520.3L491.185 543.275L490.686 535.034C490.103 525.211 488.022 519.967 482.195 513.557L478.366 509.312L480.447 507.314C483.694 504.234 487.19 498.24 488.688 492.913C492.767 478.845 485.941 463.861 472.539 457.201C467.461 454.704 466.462 454.538 458.721 454.538C451.229 454.538 449.98 454.787 445.818 456.952C439.658 460.115 434.58 465.11 431.417 471.186C428.92 475.848 428.753 476.764 428.753 484.505C428.753 492.247 428.92 493.246 431.417 498.24C432.832 501.237 435.413 504.9 436.994 506.481L439.991 509.312L436.162 513.391C434.081 515.638 431.417 519.55 430.168 522.214L427.921 526.959L427.421 591.888L423.592 594.802C421.511 596.384 418.265 598.714 416.433 599.963L413.104 602.294H391.793C374.975 602.294 367.88 602.619 361.721 604.493V370.086Z" fill="white"/>
<path d="M713.101 459.951V448.872L707.783 446.213H642.687L638.026 448.378C634.197 450.209 556.198 509.062 437.91 599.547C427.921 607.122 419.763 612.782 417.599 613.532C414.685 614.531 409.441 614.78 392.543 614.78C373.37 614.78 368.061 615.052 361.721 617.836V629.184C362.508 628.708 363.32 628.263 364.156 627.85L369.567 625.186L393.791 624.686C419.513 624.187 421.677 623.854 427.754 619.608C429.252 618.61 476.701 582.482 533.223 539.446C638.051 459.628 640.301 457.836 642.862 457.001C643.063 456.936 643.265 456.876 643.519 456.785C645.184 456.203 656.089 455.953 675.984 456.036L705.951 456.203L710.78 458.617C711.558 459.011 712.334 459.458 713.101 459.951Z" fill="white"/>
<path d="M713.101 477.494V494.347C711.572 497.095 709.491 499.667 707.367 501.154L703.704 503.651L680.313 504.151C656.006 504.65 654.008 504.9 646.1 508.729C644.269 509.562 594.656 546.937 535.886 591.639L429.003 673.05H401.033C369.484 673.05 368.652 672.884 363.657 666.89C362.912 665.981 362.267 665.031 361.721 664.051V646.243C363.43 643.239 366.048 640.682 369.484 639.004C372.814 637.339 374.479 637.256 393.874 637.256C424.008 637.256 426.256 636.59 444.736 622.522C450.563 618.11 495.514 583.897 544.46 546.605C583.538 516.882 618.86 489.962 633.53 478.783C637.266 475.935 639.662 474.109 640.439 473.517L647.349 468.273H674.569C699.209 468.273 702.122 468.44 705.202 469.855C708.477 471.356 711.254 474.124 713.101 477.494Z" fill="white"/>
<path d="M361.721 681.405C362.47 681.885 363.229 682.321 363.99 682.707L368.818 685.121L399.202 685.37C432.832 685.62 433.165 685.62 440.24 680.209C612.553 548.935 650.595 520.217 654.341 518.718C658.087 517.22 661 516.97 681.811 516.554L705.202 516.138L710.613 513.474C711.468 513.052 712.297 512.596 713.101 512.108V523.481C712.475 523.766 711.84 524.037 711.196 524.295C707.2 525.877 704.703 526.127 683.06 526.543C660.585 526.959 659.169 527.042 656.256 528.79C654.591 529.789 605.894 566.666 548.04 610.701C488.189 656.235 440.907 691.697 438.326 692.945L433.748 695.11L403.364 695.359C381.971 695.609 371.649 695.359 368.402 694.693C366.121 694.194 363.884 693.463 361.721 692.528V681.405Z" fill="white"/>
<path d="M402.698 707.846C376.521 708.024 368.372 707.99 361.721 705.95V721.467H713.101V536.812C706.961 538.705 700.09 539.029 684.059 539.029C670.657 539.029 663.248 539.362 662.083 539.945C660.418 540.861 621.294 570.495 501.591 661.812C448.149 702.518 447.316 703.101 440.407 705.765C435.579 707.513 434.247 707.596 402.698 707.846Z" fill="white"/>
<path d="M560.527 397.183C564.439 398.765 567.852 402.011 570.016 406.173C571.348 408.754 571.598 410.585 571.348 415.08C570.932 422.489 568.102 426.901 561.609 430.147C553.867 434.06 546.792 432.894 540.632 426.735C533.556 419.742 533.057 410.419 539.3 402.178C543.712 396.434 553.368 394.187 560.527 397.183Z" fill="white"/>
<path d="M467.211 468.356C480.53 474.766 480.697 493.995 467.544 500.904C461.634 503.984 456.806 503.984 450.729 500.904C444.569 497.824 441.489 493.246 440.99 486.67C440.574 480.676 441.822 476.597 445.235 472.685C450.48 466.691 459.969 464.86 467.211 468.356Z" fill="white"/>
<path d="M467.961 518.052C472.123 520.216 474.454 522.714 476.535 527.375C477.95 530.538 478.283 532.869 478.283 542.109V553.097L439.991 582.232V556.427C439.991 536.698 440.241 530.039 441.073 527.958C444.32 520.383 452.228 515.388 460.053 515.971C462.55 516.221 466.129 517.136 467.961 518.052Z" fill="white"/>
<path d="M270.367 585.337C262.725 595.425 252.866 600.469 240.791 600.469C228.564 600.469 218.629 595.425 210.986 585.337C203.497 575.25 199.752 561.417 199.752 543.84C199.752 526.262 203.497 512.43 210.986 502.342C218.629 492.254 228.564 487.21 240.791 487.21C252.866 487.21 262.725 492.254 270.367 502.342C278.01 512.43 281.831 526.262 281.831 543.84C281.831 561.417 278.01 575.25 270.367 585.337Z" fill="white"/>
<path fill-rule="evenodd" clip-rule="evenodd" d="M351.556 370.086H0.175537V721.467H351.556V370.086ZM41.2335 602.762V624.084H151.742V600.011H82.2729C89.4566 594.203 96.8697 587.936 104.512 581.211C112.154 574.333 119.262 566.996 125.834 559.201C132.407 551.406 137.68 543.305 141.654 534.898C145.781 526.492 147.844 517.856 147.844 508.991C147.844 494.776 143.259 483.236 134.088 474.371C125.07 465.353 112.384 460.844 96.029 460.844C85.9413 460.844 76.8468 462.831 68.7461 466.805C60.6452 470.626 54.1492 476.511 49.2579 484.459C44.3669 492.254 41.7686 502.036 41.4629 513.805H69.8925C69.8925 506.01 72.0322 499.361 76.312 493.859C80.5917 488.356 86.9347 485.605 95.3413 485.605C103.595 485.605 109.48 488.127 112.995 493.171C116.663 498.215 118.498 504.023 118.498 510.595C118.498 517.626 116.281 524.887 111.849 532.376C107.569 539.713 101.761 547.279 94.4243 555.074C87.2404 562.869 78.9868 570.741 69.663 578.689C60.4923 586.637 51.0158 594.661 41.2335 602.762ZM202.733 616.518C213.279 623.396 225.965 626.835 240.791 626.835C255.618 626.835 268.304 623.396 278.85 616.518C289.397 609.487 297.498 599.781 303.153 587.401C308.961 574.868 311.865 560.347 311.865 543.84C311.865 527.485 308.961 513.041 303.153 500.508C297.498 487.974 289.397 478.268 278.85 471.39C268.304 464.359 255.618 460.844 240.791 460.844C225.965 460.844 213.279 464.359 202.733 471.39C192.186 478.268 184.009 487.974 178.201 500.508C172.546 513.041 169.718 527.485 169.718 543.84C169.718 560.347 172.546 574.868 178.201 587.401C184.009 599.781 192.186 609.487 202.733 616.518Z" fill="white"/>
<path d="M788.92 296.545V8.23734H841.639V255.358H969.318V296.545H788.92Z" fill="white"/>
<path d="M1042.95 60.5445C1033.34 60.5445 1025.38 57.6615 1019.06 51.8953C1013.02 46.1292 1010 38.8528 1010 30.0663C1010 21.2798 1013.02 14.1408 1019.06 8.64921C1025.38 2.88307 1033.34 0 1042.95 0C1052.56 0 1060.39 2.88307 1066.43 8.64921C1072.74 14.1408 1075.9 21.2798 1075.9 30.0663C1075.9 38.8528 1072.74 46.1292 1066.43 51.8953C1060.39 57.6615 1052.56 60.5445 1042.95 60.5445ZM1016.59 296.545V92.2583H1069.31V296.545H1016.59Z" fill="white"/>
<path d="M1133.81 296.545V136.328H1105.8V92.2583H1133.81V68.37C1133.81 43.658 1139.99 26.0849 1152.35 15.651C1164.98 5.21699 1182 0 1203.42 0H1226.07V44.8936H1211.65C1202.59 44.8936 1196.14 46.6783 1192.3 50.2478C1188.45 53.8174 1186.53 59.8581 1186.53 68.37V92.2583H1230.6V136.328H1186.53V296.545H1133.81Z" fill="white"/>
<path d="M1363.38 296.545C1341.96 296.545 1324.8 291.328 1311.89 280.894C1298.99 270.46 1292.53 251.926 1292.53 225.292V136.328H1257.53V92.2583H1292.53L1298.71 37.48H1345.25V92.2583H1400.44V136.328H1345.25V225.703C1345.25 235.588 1347.31 242.453 1351.43 246.297C1355.82 249.866 1363.24 251.651 1373.67 251.651H1399.21V296.545H1363.38Z" fill="white"/>
<path d="M1545.08 296.545V8.23734H1733.31V50.6597H1597.8V129.738H1720.95V170.925H1597.8V254.122H1733.31V296.545H1545.08Z" fill="white"/>
<path d="M1762.6 296.545L1836.74 194.401L1762.6 92.2583H1819.03L1870.92 164.747L1922.41 92.2583H1979.24L1904.7 194.401L1979.24 296.545H1922.41L1870.92 224.056L1819.03 296.545H1762.6Z" fill="white"/>
<path d="M2012.83 387.156V92.2583H2059.78L2065.55 121.501C2072.14 112.44 2080.79 104.477 2091.5 97.6126C2102.48 90.7482 2116.62 87.3159 2133.92 87.3159C2153.14 87.3159 2170.3 91.9838 2185.4 101.319C2200.5 110.655 2212.45 123.423 2221.23 139.623C2230.02 155.823 2234.41 174.22 2234.41 194.813C2234.41 215.407 2230.02 233.803 2221.23 250.004C2212.45 265.929 2200.5 278.56 2185.4 287.895C2170.3 296.957 2153.14 301.487 2133.92 301.487C2118.54 301.487 2105.09 298.604 2093.56 292.838C2082.02 287.072 2072.69 278.972 2065.55 268.538V387.156H2012.83ZM2122.8 255.358C2139.55 255.358 2153.41 249.729 2164.4 238.471C2175.38 227.214 2180.87 212.661 2180.87 194.813C2180.87 176.966 2175.38 162.276 2164.4 150.744C2153.41 139.211 2139.55 133.445 2122.8 133.445C2105.77 133.445 2091.77 139.211 2080.79 150.744C2070.08 162.001 2064.73 176.554 2064.73 194.401C2064.73 212.249 2070.08 226.939 2080.79 238.471C2091.77 249.729 2105.77 255.358 2122.8 255.358Z" fill="white"/>
<path d="M2379.53 301.487C2359.76 301.487 2341.92 296.957 2325.99 287.895C2310.34 278.834 2297.85 266.341 2288.51 250.415C2279.45 234.215 2274.92 215.544 2274.92 194.401C2274.92 173.259 2279.59 154.725 2288.92 138.799C2298.26 122.599 2310.75 109.969 2326.4 100.908C2342.33 91.8465 2360.18 87.3159 2379.95 87.3159C2399.44 87.3159 2417.01 91.8465 2432.66 100.908C2448.59 109.969 2461.08 122.599 2470.14 138.799C2479.48 154.725 2484.15 173.259 2484.15 194.401C2484.15 215.544 2479.48 234.215 2470.14 250.415C2461.08 266.341 2448.59 278.834 2432.66 287.895C2416.74 296.957 2399.03 301.487 2379.53 301.487ZM2379.53 255.77C2393.26 255.77 2405.21 250.69 2415.37 240.531C2425.53 230.097 2430.6 214.72 2430.6 194.401C2430.6 174.083 2425.53 158.844 2415.37 148.684C2405.21 138.25 2393.4 133.033 2379.95 133.033C2365.94 133.033 2353.86 138.25 2343.7 148.684C2333.82 158.844 2328.87 174.083 2328.87 194.401C2328.87 214.72 2333.82 230.097 2343.7 240.531C2353.86 250.69 2365.8 255.77 2379.53 255.77Z" fill="white"/>
<path d="M788.92 713.432V425.125H841.639V541.683L948.313 425.125H1013.39L907.126 539.624L1016.27 713.432H951.608L869.235 579.987L841.639 610.053V713.432H788.92Z" fill="white"/>
<path d="M1107.49 718.374C1089.91 718.374 1075.5 715.629 1064.24 710.137C1052.98 704.371 1044.61 696.82 1039.12 687.484C1033.63 678.149 1030.88 667.852 1030.88 656.594C1030.88 637.648 1038.29 622.272 1053.12 610.465C1067.95 598.658 1090.19 592.755 1119.84 592.755H1171.74V587.812C1171.74 573.809 1167.76 563.512 1159.79 556.922C1151.83 550.332 1141.95 547.037 1130.14 547.037C1119.43 547.037 1110.1 549.646 1102.13 554.863C1094.17 559.805 1089.23 567.219 1087.31 577.104H1035.82C1037.2 562.276 1042.14 549.371 1050.65 538.388C1059.44 527.405 1070.69 519.03 1084.42 513.264C1098.15 507.224 1113.53 504.203 1130.55 504.203C1159.66 504.203 1182.58 511.48 1199.33 526.032C1216.08 540.585 1224.46 561.178 1224.46 587.812V713.432H1179.56L1174.62 680.482C1168.58 691.466 1160.07 700.527 1149.09 707.666C1138.38 714.805 1124.51 718.374 1107.49 718.374ZM1119.43 677.188C1134.53 677.188 1146.2 672.245 1154.44 662.36C1162.95 652.476 1168.31 640.257 1170.5 625.704H1125.61C1111.61 625.704 1101.58 628.313 1095.54 633.53C1089.5 638.472 1086.48 644.65 1086.48 652.064C1086.48 660.026 1089.5 666.204 1095.54 670.598C1101.58 674.991 1109.55 677.188 1119.43 677.188Z" fill="white"/>
<path d="M1261.59 713.432V671.01L1365.79 552.804H1262.82V509.146H1425.92V551.568L1320.07 669.774H1427.98V713.432H1261.59Z" fill="white"/>
<path d="M1542.28 718.374C1524.71 718.374 1510.29 715.629 1499.03 710.137C1487.78 704.371 1479.4 696.82 1473.91 687.484C1468.42 678.149 1465.67 667.852 1465.67 656.594C1465.67 637.648 1473.09 622.272 1487.91 610.465C1502.74 598.658 1524.98 592.755 1554.64 592.755H1606.53V587.812C1606.53 573.809 1602.55 563.512 1594.59 556.922C1586.63 550.332 1576.74 547.037 1564.93 547.037C1554.23 547.037 1544.89 549.646 1536.93 554.863C1528.96 559.805 1524.02 567.219 1522.1 577.104H1470.62C1471.99 562.276 1476.93 549.371 1485.44 538.388C1494.23 527.405 1505.49 519.03 1519.22 513.264C1532.95 507.224 1548.32 504.203 1565.35 504.203C1594.45 504.203 1617.38 511.48 1634.13 526.032C1650.88 540.585 1659.25 561.178 1659.25 587.812V713.432H1614.36L1609.42 680.482C1603.37 691.466 1594.86 700.527 1583.88 707.666C1573.17 714.805 1559.3 718.374 1542.28 718.374ZM1554.23 677.188C1569.33 677.188 1581 672.245 1589.23 662.36C1597.75 652.476 1603.1 640.257 1605.3 625.704H1560.4C1546.4 625.704 1536.38 628.313 1530.34 633.53C1524.3 638.472 1521.28 644.65 1521.28 652.064C1521.28 660.026 1524.3 666.204 1530.34 670.598C1536.38 674.991 1544.34 677.188 1554.23 677.188Z" fill="white"/>
<path d="M1709.56 713.432V416.887H1762.28V591.931L1834.77 509.146H1897.37L1813.76 602.228L1910.96 713.432H1845.06L1762.28 610.877V713.432H1709.56Z" fill="white"/>
<path d="M1943.65 713.432V416.887H1996.37V540.448C2003.23 529.19 2012.43 520.403 2023.96 514.088C2035.77 507.498 2049.22 504.203 2064.33 504.203C2089.59 504.203 2109.08 512.166 2122.81 528.092C2136.81 544.017 2143.82 567.356 2143.82 598.109V713.432H2091.51V603.051C2091.51 585.478 2087.94 572.024 2080.8 562.688C2073.94 553.353 2062.95 548.685 2047.85 548.685C2033.02 548.685 2020.67 553.902 2010.78 564.336C2001.17 574.77 1996.37 589.323 1996.37 607.994V713.432H1943.65Z" fill="white"/>
<path d="M2278.66 718.374C2260.54 718.374 2244.61 715.491 2230.88 709.725C2217.16 703.684 2206.17 695.447 2197.94 685.013C2189.7 674.579 2184.76 662.498 2183.11 648.769H2236.24C2237.89 656.731 2242.28 663.596 2249.42 669.362C2256.83 674.854 2266.31 677.599 2277.84 677.599C2289.37 677.599 2297.74 675.266 2302.96 670.598C2308.45 665.93 2311.2 660.576 2311.2 654.535C2311.2 645.748 2307.35 639.845 2299.67 636.825C2291.98 633.53 2281.27 630.372 2267.54 627.352C2258.75 625.43 2249.83 623.096 2240.77 620.35C2231.71 617.604 2223.33 614.172 2215.65 610.053C2208.23 605.66 2202.19 600.168 2197.52 593.578C2192.86 586.714 2190.52 578.339 2190.52 568.455C2190.52 550.332 2197.66 535.093 2211.94 522.737C2226.49 510.381 2246.81 504.203 2272.9 504.203C2297.06 504.203 2316.28 509.832 2330.56 521.09C2345.11 532.347 2353.76 547.861 2356.5 567.631H2306.67C2303.65 552.529 2292.25 544.978 2272.48 544.978C2262.6 544.978 2254.91 546.9 2249.42 550.744C2244.2 554.588 2241.59 559.393 2241.59 565.16C2241.59 571.2 2245.57 576.005 2253.54 579.575C2261.5 583.144 2272.07 586.439 2285.25 589.46C2299.53 592.755 2312.57 596.462 2324.38 600.58C2336.46 604.424 2346.07 610.328 2353.21 618.29C2360.35 625.979 2363.92 637.099 2363.92 651.652C2364.19 664.282 2360.9 675.677 2354.03 685.837C2347.17 695.996 2337.28 703.959 2324.38 709.725C2311.47 715.491 2296.23 718.374 2278.66 718.374Z" fill="white"/>
<path d="M2495.21 713.432C2473.79 713.432 2456.63 708.215 2443.72 697.781C2430.82 687.347 2424.37 668.813 2424.37 642.179V553.215H2389.36V509.146H2424.37L2430.54 454.367H2477.08V509.146H2532.28V553.215H2477.08V642.591C2477.08 652.476 2479.14 659.34 2483.26 663.184C2487.66 666.754 2495.07 668.538 2505.5 668.538H2531.04V713.432H2495.21Z" fill="white"/>
<path d="M2647.97 718.374C2630.4 718.374 2615.98 715.629 2604.72 710.137C2593.46 704.371 2585.09 696.82 2579.6 687.484C2574.11 678.149 2571.36 667.852 2571.36 656.594C2571.36 637.648 2578.77 622.272 2593.6 610.465C2608.43 598.658 2630.67 592.755 2660.32 592.755H2712.22V587.812C2712.22 573.809 2708.24 563.512 2700.28 556.922C2692.31 550.332 2682.43 547.037 2670.62 547.037C2659.91 547.037 2650.58 549.646 2642.61 554.863C2634.65 559.805 2629.71 567.219 2627.79 577.104H2576.3C2577.68 562.276 2582.62 549.371 2591.13 538.388C2599.92 527.405 2611.17 519.03 2624.9 513.264C2638.63 507.224 2654.01 504.203 2671.03 504.203C2700.14 504.203 2723.07 511.48 2739.81 526.032C2756.56 540.585 2764.94 561.178 2764.94 587.812V713.432H2720.04L2715.1 680.482C2709.06 691.466 2700.55 700.527 2689.57 707.666C2678.86 714.805 2664.99 718.374 2647.97 718.374ZM2659.91 677.188C2675.01 677.188 2686.68 672.245 2694.92 662.36C2703.43 652.476 2708.79 640.257 2710.98 625.704H2666.09C2652.09 625.704 2642.06 628.313 2636.02 633.53C2629.98 638.472 2626.96 644.65 2626.96 652.064C2626.96 660.026 2629.98 666.204 2636.02 670.598C2642.06 674.991 2650.03 677.188 2659.91 677.188Z" fill="white"/>
<path d="M2815.25 713.432V509.146H2861.79L2865.91 543.742C2872.22 531.661 2881.28 522.051 2893.09 514.912C2905.17 507.773 2919.31 504.203 2935.51 504.203C2960.77 504.203 2980.41 512.166 2994.41 528.092C3008.41 544.017 3015.42 567.356 3015.42 598.109V713.432H2962.7V603.051C2962.7 585.478 2959.13 572.024 2951.99 562.688C2944.85 553.353 2933.73 548.685 2918.63 548.685C2903.8 548.685 2891.58 553.902 2881.97 564.336C2872.63 574.77 2867.97 589.323 2867.97 607.994V713.432H2815.25Z" fill="white"/>
</svg>
