<svg width="3115" height="674" viewBox="0 0 3115 674" fill="none" xmlns="http://www.w3.org/2000/svg">
<g clip-path="url(#clip0_369_155)">
<path fill-rule="evenodd" clip-rule="evenodd" d="M618.712 367.266C617.747 377.001 608.102 386.739 599.038 391.893C589.007 397.239 581.099 396.094 579.17 401.628C577.046 407.546 583.411 415.376 584.184 416.329C589.007 422.246 593.829 422.247 594.021 426.067C594.407 430.076 589.198 434.657 584.184 435.802C578.783 437.138 575.117 434.466 574.347 435.802C573.188 437.519 577.819 444.201 584.184 445.537C589.198 446.874 592.478 444.012 594.021 445.537C596.528 448.21 590.936 457.184 589.007 460.237C581.29 473.029 577.241 472.265 574.347 479.903C570.489 489.449 573.188 499.948 574.347 504.338C576.662 513.501 579.553 514.265 579.17 519.038C578.397 528.201 565.28 535.839 554.479 538.703C538.468 542.712 529.596 536.03 500.082 528.776C472.111 521.903 458.03 518.466 450.7 524.003C430.253 538.892 452.629 599.601 455.523 607.047C467.289 637.784 484.65 659.547 497.767 673.294H450.314C432.955 634.92 415.98 593.875 400.356 549.967C392.254 526.676 384.151 502.813 376.821 477.994C369.492 453.939 363.126 430.265 357.339 406.974C361.197 407.23 365.119 407.357 369.105 407.357C415.399 410.283 455.65 393.485 489.859 356.956C522.458 322.402 535.575 283.838 539.819 254.629C540.333 251.32 540.72 248.138 540.975 245.084C541.167 243.747 547.341 147.147 547.149 146.575C545.798 140.847 538.66 137.22 534.224 142.184C529.401 147.338 526.894 161.275 525.157 177.502C522.458 203.848 521.302 236.875 515.706 251.193C507.412 272.575 487.543 273.911 489.664 262.266C491.401 253.102 497.575 248.52 501.238 241.838C502.976 238.593 511.656 217.402 500.852 220.838C496.994 222.175 490.629 226.947 480.405 243.938C474.618 253.866 469.218 273.529 461.118 294.91C453.015 316.292 442.214 339.01 425.239 354.855C416.558 364.021 399.97 378.91 374.506 388.84C350.779 398.383 329.755 399.528 317.411 399.147H317.024C317.602 427.784 321.46 463.102 333.035 501.665C352.517 567.34 386.658 616.786 417.328 651.34C424.466 659.547 431.41 666.801 438.161 673.294C348.531 673.294 258.963 673.294 169.459 673.294C210.353 638.548 260.891 582.612 286.354 501.665C292.72 481.047 296.769 461.385 299.085 443.248C301.206 427.403 302.17 412.511 302.17 399.147H301.978C299.407 399.275 296.642 399.275 293.684 399.147C287.511 398.767 281.917 397.619 277.481 396.283C280.695 395.647 282.367 394.822 282.496 393.802C282.624 392.149 278.123 390.176 268.993 387.884C280.052 388.393 291.113 388.84 302.17 389.221C300.886 322.274 299.599 255.329 298.312 188.384C296.578 178.647 292.525 164.138 282.689 148.865C265.907 123.284 242.566 111.829 232.536 107.82C233.693 91.2108 233.886 82.4291 233.886 77.2747C233.886 77.2747 234.658 66.7745 234.658 56.8473C234.658 56.8473 237.551 31.4563 237.937 12.1745C237.937 12.1745 237.937 11.7927 237.937 11.2199C237.937 10.8381 237.937 10.4563 237.937 10.0745C274.009 1.2927 322.425 -4.81642 376.435 5.11087C409.999 11.4109 433.725 21.7199 440.671 24.7745C460.732 33.5562 491.788 47.4926 519.951 78.6111C529.209 88.9201 571.259 135.502 569.33 196.02C568.174 231.338 553.319 235.729 559.493 264.557C561.808 276.011 571.454 309.421 599.038 338.057C609.261 348.749 619.868 356.383 618.712 367.266ZM540.011 129.202C533.259 124.047 510.111 107.056 477.32 99.802C462.274 96.3654 445.108 95.0291 426.59 97.7018C414.051 99.4199 364.477 106.674 336.698 148.865C326.861 163.947 322.811 178.647 321.074 188.384C319.659 255.329 318.311 322.274 317.024 389.221H344.414C343.644 365.738 344.223 337.866 348.272 306.557C352.903 272.766 360.233 243.557 367.949 219.884C374.314 206.902 395.534 168.529 442.214 145.047C463.047 134.547 483.107 129.966 500.082 128.247C518.213 126.529 532.489 128.057 540.011 129.202ZM536.153 136.265C524 133.975 513.199 133.02 503.167 133.211C467.289 133.593 444.335 146.575 435.654 152.111C380.101 188.002 368.141 263.22 361.197 307.701C356.183 339.01 356.375 365.738 357.531 383.303C396.69 374.329 415.594 355.047 424.466 343.592C444.526 317.056 455.523 274.102 458.03 243.938C458.608 234.966 459.572 216.638 469.026 196.02C470.955 192.011 475.583 182.275 483.877 172.156C492.752 161.275 502.589 153.257 511.848 147.72C521.107 141.802 529.788 138.366 536.153 136.265ZM519.564 195.638C516.093 189.338 512.621 182.847 509.727 176.356C509.082 175.084 508.504 173.811 507.99 172.538C503.362 169.102 495.646 170.82 495.451 177.693C495.26 187.811 506.447 201.175 518.022 214.92C518.408 209.575 518.855 204.229 519.372 198.884L519.564 195.638ZM522.266 170.057C522.394 167.893 522.649 165.729 523.036 163.566C523.422 161.275 523.809 158.411 524.579 155.356C523.231 153.065 522.458 151.729 522.266 151.729C519.756 149.057 515.706 148.102 512.621 149.629C510.884 150.393 509.341 151.92 508.955 154.402C507.025 162.802 513.004 175.211 520.142 188.384C520.72 182.275 521.301 175.975 522.266 170.057Z" fill="white"/>
<path fill-rule="evenodd" clip-rule="evenodd" d="M250.092 406.593C254.079 406.593 258.065 406.465 262.052 406.21C256.844 428.928 250.478 452.794 242.569 477.421C217.107 555.501 182.193 620.603 147.086 673.294H124.324C143.421 643.893 202.061 550.155 178.721 523.43C174.477 518.593 169.526 515.348 163.868 513.692C146.122 508.347 135.126 523.619 104.456 533.357C95.39 536.219 62.0192 546.721 50.0597 533.357C45.8159 528.392 45.623 521.902 45.2371 508.73C44.4655 488.873 50.4455 482.956 45.2371 474.365C41.3794 468.067 36.75 469.211 30.3845 459.665C27.298 455.275 23.633 449.546 25.3691 444.965C28.0696 438.094 40.6078 437.71 40.2219 435.038C40.029 433.51 35.0138 434.085 30.3845 430.264C27.298 427.783 24.2117 423.202 25.3691 420.338C26.7193 417.284 31.9274 419.193 35.2068 415.375C38.4858 411.747 37.7145 405.065 35.2068 400.675C32.3132 395.519 27.1051 393.421 20.3538 390.937C11.6735 387.503 9.1658 388.84 5.69368 385.975C2.60737 383.494 -0.478906 378.337 0.678466 366.31C19.5822 332.901 38.6787 299.302 57.5827 265.702C52.5672 248.138 35.7855 180.365 72.4354 113.547C118.923 28.2106 214.792 13.7015 235.625 10.456C236.397 10.3287 237.168 10.2015 237.94 10.0742C237.297 25.9833 236.911 42.2107 236.782 58.756C236.525 76.1925 236.525 93.2471 236.782 109.92C225.594 104.193 210.741 98.4653 192.802 95.7926C135.898 87.9652 91.7251 118.32 79.1867 127.483C93.8468 125.384 133.776 121.565 176.985 143.329C212.67 161.274 233.31 187.811 244.112 205.375C247.392 210.72 249.899 215.302 251.442 218.356C258.965 242.22 266.488 271.429 270.925 305.412C274.397 331.948 274.976 360.012 275.168 368.03C275.361 376.237 275.361 382.919 275.361 387.884C277.29 388.012 279.219 388.201 281.148 388.456C281.92 391.512 282.82 394.566 283.849 397.619C272.661 396.474 259.158 393.802 244.691 388.076C231.96 382.919 221.544 376.62 213.056 370.511C204.762 364.401 198.396 358.483 194.153 353.902C160.203 322.021 150.365 262.265 138.792 242.602C128.761 225.42 122.202 220.647 118.345 219.502C107.735 216.065 116.223 237.065 117.959 240.502C121.624 247.183 127.796 251.765 129.532 260.929C131.847 272.765 111.786 271.238 103.492 249.856C94.4255 226.565 97.319 154.02 85.1667 140.656C80.537 135.502 73.5928 139.32 72.2425 144.856C72.0496 145.429 78.2225 242.411 78.2225 243.747C80.9228 273.72 93.2681 317.247 129.34 356.002C163.546 392.529 203.797 409.394 250.092 406.593ZM83.2377 134.547C95.7758 138.747 117.573 148.483 135.319 170.438C143.614 180.747 148.436 190.483 150.172 194.493C159.817 215.302 160.589 233.438 161.36 242.602C163.868 272.765 174.67 315.911 194.924 342.447C203.604 354.094 222.508 373.375 261.859 382.538C262.823 364.785 263.016 338.057 258.001 306.556C251.056 261.884 239.29 186.474 183.736 150.584C172.548 143.329 138.406 124.047 83.2377 134.547ZM123.746 176.165C123.746 169.293 116.03 167.574 111.208 171.011C110.693 172.283 110.179 173.556 109.664 174.829C106.771 181.32 103.106 187.811 99.6336 194.111L100.02 197.356C100.405 202.702 100.791 208.047 101.37 213.392C112.751 199.647 124.131 186.283 123.746 176.165ZM99.0552 186.665C106.192 173.493 112.172 161.083 110.243 152.683C108.893 146.002 100.984 145.811 96.9332 150.011C96.9332 150.011 95.9687 151.347 94.6184 153.638C95.39 156.693 95.7758 159.556 96.1616 162.038C97.512 170.056 98.2836 178.456 99.0552 186.665Z" fill="white"/>
<path d="M909.316 237.582H868.934V382.259C868.934 396.203 857.603 407.243 843.949 407.243H829.423V237.582H764.057V227.704C764.057 214.05 775.097 202.72 788.751 202.72H934.3V212.597C934.3 226.542 922.97 237.582 909.316 237.582Z" fill="white"/>
<path fill-rule="evenodd" clip-rule="evenodd" d="M1064.74 315.155V406.958H1056.61C1042.96 406.958 1031.92 395.919 1031.63 382.555C1025.04 391.076 1017 397.662 1007.51 402.31C997.83 406.959 987.566 409.283 976.718 409.283C969.359 409.283 962.581 408.022 956.382 405.506C949.99 403.182 944.47 399.887 939.822 395.628C935.174 391.172 931.592 386.137 929.073 380.521C926.362 374.711 925.006 368.32 925.006 361.347C925.006 354.18 926.653 347.594 929.944 341.592C933.044 335.587 937.402 330.454 943.018 326.195C948.828 321.933 955.609 318.641 963.354 316.317C971.297 313.993 980.012 312.831 989.5 312.831C996.087 312.831 1002.67 313.313 1009.26 314.284C1015.65 315.446 1021.27 317.09 1026.11 319.222V310.797C1026.11 300.725 1023.3 292.977 1017.68 287.554C1012.07 282.325 1003.74 279.711 992.696 279.711C984.562 279.711 976.622 281.066 968.874 283.778C968.101 284.165 967.229 284.553 966.259 284.94C953.767 290.169 939.822 284.94 934.012 273.029L933.431 272.157C952.799 259.181 973.717 252.692 996.182 252.692C1017.88 252.692 1034.73 258.018 1046.73 268.671C1058.74 279.323 1064.74 294.819 1064.74 315.155ZM1026.11 340.14C1021.65 338.396 1016.71 336.944 1011.29 335.782C1005.87 334.811 1000.64 334.329 995.601 334.329C985.724 334.329 977.589 336.555 971.198 341.011C964.807 345.465 961.611 351.179 961.611 358.152C961.611 364.735 964.13 370.159 969.164 374.421C974.202 378.874 980.399 381.102 987.757 381.102C994.149 381.102 1000.35 379.94 1006.35 377.616C1012.16 375.292 1016.71 372.192 1020 368.32C1024.07 365.025 1026.11 361.347 1026.11 357.28V340.14Z" fill="white"/>
<path d="M1219.59 255.304H1237.89L1188.21 390.103C1184.73 399.69 1175.14 406.372 1164.97 406.372H1157.71C1147.25 406.372 1137.95 399.69 1134.47 390.103L1084.79 255.304H1106.29C1117.33 255.304 1126.91 262.276 1130.11 272.735L1162.94 374.996L1196.06 272.735C1199.25 262.276 1208.84 255.304 1219.59 255.304Z" fill="white"/>
<path d="M1383.44 361.34C1383.44 376.255 1378.02 387.972 1367.17 396.493C1356.13 405.017 1341.22 409.276 1322.43 409.276C1309.84 409.276 1297.45 407.242 1285.25 403.175C1273.24 399.107 1262.88 393.396 1254.16 386.034L1255.9 383.129C1262.59 371.799 1276.82 368.022 1288.73 373.542C1291.06 374.704 1293.28 375.674 1295.41 376.447C1304.32 379.933 1313.04 381.676 1321.56 381.676C1329.31 381.676 1335.41 380.224 1339.86 377.319C1344.12 374.414 1346.25 370.25 1346.25 364.826C1346.25 359.405 1343.74 355.53 1338.7 353.206C1333.47 350.69 1324.95 347.785 1313.14 344.49C1303.45 341.78 1295.12 339.165 1288.15 336.646C1281.18 334.13 1275.66 331.321 1271.59 328.221C1267.33 324.93 1264.23 321.249 1262.29 317.182C1260.36 313.114 1259.39 308.176 1259.39 302.365C1259.39 294.62 1260.84 287.744 1263.75 281.74C1266.85 275.542 1271.01 270.313 1276.24 266.052C1281.66 261.597 1287.96 258.208 1295.12 255.884C1302.48 253.753 1310.33 252.591 1318.66 252.397C1330.08 252.591 1340.73 254.238 1350.61 257.336C1360.49 260.629 1369.5 265.955 1377.63 273.315L1375.31 276.801C1368.62 286.969 1355.84 291.035 1344.8 286.097C1343.25 285.323 1341.61 284.645 1339.86 284.064C1332.7 281.352 1325.53 279.997 1318.36 279.997C1311.78 279.997 1306.36 281.352 1302.1 284.064C1297.64 286.582 1295.41 290.843 1295.41 296.845C1295.41 299.559 1295.9 301.784 1296.87 303.527C1298.03 305.27 1299.77 306.822 1302.1 308.176C1304.42 309.532 1307.42 310.79 1311.1 311.952C1314.78 313.114 1319.43 314.471 1325.05 316.02C1335.51 318.634 1344.22 321.249 1351.77 323.864C1359.14 326.577 1365.14 329.674 1369.79 333.16C1374.43 336.646 1377.92 340.618 1380.24 345.071C1382.38 349.528 1383.44 354.949 1383.44 361.34Z" fill="white"/>
<path d="M1416.56 223.34C1416.56 212.882 1425.27 204.166 1435.73 204.166C1446.48 204.166 1455.2 212.882 1455.2 223.34C1455.2 234.089 1446.48 242.805 1435.73 242.805C1425.27 242.805 1416.56 234.089 1416.56 223.34ZM1416.56 255.297H1455.2V381.381C1455.2 395.035 1443.87 406.365 1430.21 406.365H1416.56V255.297Z" fill="white"/>
<path d="M1634.16 255.304L1579.83 415.959C1573.44 436.004 1569.95 451.692 1560.95 462.441C1551.94 473.481 1544.97 477.258 1529.28 477.258C1517.08 477.258 1504.68 474.257 1492.09 468.252L1494.42 460.117C1497.32 448.497 1509.24 441.524 1520.86 444.72C1534.41 444.528 1541.19 435.423 1541.19 417.411L1540.61 406.372L1481.05 255.304H1503.13C1513.59 255.304 1523.18 261.986 1526.67 272.154L1561.82 372.962L1592.61 273.025C1595.81 262.567 1605.4 255.304 1616.44 255.304H1634.16Z" fill="white"/>
<path d="M1808.18 330.262C1808.18 332.778 1808.18 335.201 1808.18 337.525C1807.89 339.849 1807.6 341.592 1807.3 343.045H1704.17C1704.17 329.39 1715.21 318.06 1728.87 318.06H1768.38C1767.41 306.826 1763.24 297.82 1755.88 291.042C1748.52 284.262 1739.61 280.873 1729.16 280.873C1723.93 280.873 1718.99 281.744 1714.34 283.487C1709.89 285.231 1705.91 287.748 1702.43 291.042C1698.94 294.334 1696.14 298.305 1694 302.953C1691.68 307.602 1689.65 314.865 1689.65 331.133C1689.65 345.95 1692.84 354.375 1695.17 359.023C1697.3 363.671 1700.2 367.64 1703.88 370.934C1707.56 374.226 1711.72 376.745 1716.37 378.488C1721.02 380.231 1725.86 381.102 1730.9 381.102C1738.45 381.102 1745.62 379.165 1752.4 375.292C1759.18 371.611 1763.83 366.672 1766.34 360.476L1799.46 369.772C1794.04 381.198 1785.23 390.69 1773.02 398.243C1760.82 405.602 1746.3 409.283 1729.45 409.283C1717.24 409.283 1706.3 407.15 1696.62 402.891C1686.74 398.824 1678.32 393.205 1671.34 386.041C1664.57 379.069 1659.24 370.836 1655.36 361.347C1651.69 352.051 1649.84 342.173 1649.84 331.715C1649.84 321.061 1651.69 310.893 1655.36 301.21C1659.05 291.719 1664.27 283.39 1671.05 276.225C1678.02 269.058 1686.45 263.345 1696.33 259.084C1706.2 254.823 1717.34 252.692 1729.74 252.692C1741.94 252.692 1752.88 254.823 1762.57 259.084C1772.25 263.345 1780.48 269.058 1787.26 276.225C1794.23 283.197 1799.46 291.429 1802.95 300.92C1806.43 310.408 1808.18 320.19 1808.18 330.262Z" fill="white"/>
<path fill-rule="evenodd" clip-rule="evenodd" d="M1910.44 382.259V202.72H1997.3C2006.6 202.72 2015.32 204.753 2023.45 208.821C2031.39 212.694 2038.17 217.827 2043.79 224.218C2049.6 230.609 2054.15 237.872 2057.44 246.007C2060.73 254.335 2062.38 262.566 2062.38 270.701C2062.38 279.416 2060.83 287.841 2057.73 295.975C2054.63 304.109 2050.27 311.372 2044.66 317.764C2039.24 324.155 2032.55 329.193 2024.61 332.871C2016.67 336.746 2008.05 338.681 1998.76 338.681H1950.24V407.243H1935.42C1921.77 407.243 1910.44 396.203 1910.44 382.259ZM1950.24 303.819H1996.43C2003.79 303.819 2009.89 300.818 2014.74 294.813C2019.58 289.003 2022 280.966 2022 270.701C2022 265.471 2021.22 260.823 2019.67 256.756C2018.12 252.689 2016.09 249.202 2013.57 246.297C2011.05 243.392 2008.15 241.262 2004.86 239.906C2001.56 238.357 1998.18 237.582 1994.69 237.582H1950.24V303.819Z" fill="white"/>
<path d="M2213.45 361.34C2213.45 376.255 2207.93 387.972 2196.89 396.493C2186.04 405.017 2171.13 409.276 2152.15 409.276C2139.56 409.276 2127.17 407.242 2114.96 403.175C2102.96 399.107 2092.59 393.396 2083.88 386.034L2085.62 383.129C2092.3 371.799 2106.54 368.022 2118.45 373.542C2120.77 374.704 2123.1 375.674 2125.42 376.447C2134.14 379.933 2142.76 381.676 2151.28 381.676C2159.03 381.676 2165.12 380.224 2169.58 377.319C2174.03 374.414 2176.26 370.25 2176.26 364.826C2176.26 359.405 2173.65 355.53 2168.42 353.206C2163.19 350.69 2154.76 347.785 2143.14 344.49C2133.27 341.78 2124.84 339.165 2117.87 336.646C2111.09 334.13 2105.57 331.321 2101.31 328.221C2097.05 324.93 2093.95 321.249 2092.01 317.182C2090.07 313.114 2089.11 308.176 2089.11 302.365C2089.11 294.62 2090.66 287.744 2093.76 281.74C2096.66 275.542 2100.82 270.313 2106.25 266.052C2111.48 261.597 2117.77 258.208 2125.13 255.884C2132.3 253.753 2140.04 252.591 2148.37 252.397C2159.8 252.591 2170.45 254.238 2180.33 257.336C2190.21 260.629 2199.31 265.955 2207.64 273.315L2205.02 276.801C2198.34 286.969 2185.56 291.035 2174.52 286.097C2172.97 285.323 2171.32 284.645 2169.58 284.064C2162.41 281.352 2155.25 279.997 2148.08 279.997C2141.69 279.997 2136.27 281.352 2131.81 284.064C2127.36 286.582 2125.13 290.843 2125.13 296.845C2125.13 299.559 2125.71 301.784 2126.87 303.527C2127.84 305.27 2129.49 306.822 2131.81 308.176C2134.14 309.532 2137.14 310.79 2140.82 311.952C2144.69 313.114 2149.34 314.471 2154.76 316.02C2165.22 318.634 2173.94 321.249 2181.49 323.864C2188.85 326.577 2194.86 329.674 2199.5 333.16C2204.34 336.646 2207.83 340.618 2209.96 345.071C2212.29 349.528 2213.45 354.949 2213.45 361.34Z" fill="white"/>
<path d="M2246.27 223.34C2246.27 212.882 2254.99 204.166 2265.74 204.166C2276.2 204.166 2284.91 212.882 2284.91 223.34C2284.91 234.089 2276.2 242.805 2265.74 242.805C2254.99 242.805 2246.27 234.089 2246.27 223.34ZM2246.27 255.297H2284.91V381.381C2284.91 395.035 2273.87 406.365 2259.93 406.365H2246.27V255.297Z" fill="white"/>
<path d="M2469.39 406.373H2441.5C2433.37 406.373 2425.52 402.306 2420.88 395.333L2384.56 341.007L2363.64 361.343V381.389C2363.64 395.043 2352.6 406.373 2338.95 406.373H2325.3V196.037H2338.95C2352.6 196.037 2363.64 207.077 2363.64 221.022V323.576L2416.81 264.018C2421.46 258.789 2428.43 255.593 2435.4 255.593H2465.32L2409.25 319.508L2469.39 406.373Z" fill="white"/>
<path fill-rule="evenodd" clip-rule="evenodd" d="M2637.31 331.133C2637.31 341.592 2635.57 351.47 2632.08 360.766C2628.41 370.255 2623.18 378.584 2616.4 385.751C2609.62 392.915 2601.39 398.629 2591.7 402.891C2581.82 407.15 2570.78 409.283 2558.58 409.283C2546.19 409.283 2535.15 407.15 2525.46 402.891C2515.59 398.629 2507.26 392.915 2500.48 385.751C2493.7 378.584 2488.47 370.255 2484.79 360.766C2481.11 351.47 2479.27 341.592 2479.27 331.133C2479.27 320.675 2481.11 310.699 2484.79 301.21C2488.47 291.719 2493.7 283.39 2500.48 276.225C2507.26 269.058 2515.59 263.345 2525.46 259.084C2535.15 254.823 2546.19 252.692 2558.58 252.692C2570.78 252.692 2581.73 254.823 2591.41 259.084C2601.1 263.345 2609.42 269.058 2616.4 276.225C2623.18 283.39 2628.41 291.719 2632.08 301.21C2635.57 310.699 2637.31 320.675 2637.31 331.133ZM2598.09 330.843C2598.09 324.257 2597.03 318.252 2594.9 312.831C2592.96 307.212 2590.15 302.372 2586.47 298.305C2582.99 294.238 2578.82 291.138 2573.98 289.007C2569.33 286.683 2564.2 285.521 2558.58 285.521C2552.97 285.521 2547.74 286.683 2542.89 289.007C2538.25 291.333 2534.08 294.528 2530.4 298.596C2526.92 302.663 2524.11 307.503 2521.98 313.121C2520.04 318.542 2519.07 324.547 2519.07 331.133C2519.07 337.911 2520.04 344.012 2521.98 349.436C2524.11 354.857 2526.92 359.604 2530.4 363.671C2533.89 367.739 2538.05 370.836 2542.89 372.968C2547.74 375.292 2552.97 376.454 2558.58 376.454C2564.2 376.454 2569.33 375.292 2573.98 372.968C2578.82 370.836 2582.99 367.739 2586.47 363.671C2590.15 359.604 2592.96 354.857 2594.9 349.436C2597.03 343.817 2598.09 337.621 2598.09 330.843Z" fill="white"/>
<path d="M2759.33 392.423C2754.1 397.072 2748.2 400.462 2741.61 402.591C2735.02 404.724 2728.15 405.787 2720.98 405.787C2713.62 405.787 2706.75 404.529 2700.36 402.01C2693.96 399.3 2688.35 395.427 2683.51 390.39C2678.86 385.55 2675.18 379.739 2672.47 372.959C2669.76 366.181 2668.4 358.723 2668.4 350.589V198.649H2682.05C2696 198.649 2707.04 209.689 2707.04 223.343V353.494C2707.04 359.113 2708.88 363.662 2712.56 367.148C2716.24 370.634 2720.6 372.378 2725.63 372.378C2735.51 368.891 2746.55 372.668 2752.36 381.384L2759.33 392.423Z" fill="white"/>
<path fill-rule="evenodd" clip-rule="evenodd" d="M2929.58 331.133C2929.58 341.592 2927.83 351.47 2924.35 360.766C2920.66 370.255 2915.43 378.584 2908.66 385.751C2901.88 392.915 2893.64 398.629 2883.96 402.891C2874.08 407.15 2863.04 409.283 2850.84 409.283C2838.45 409.283 2827.41 407.15 2817.72 402.891C2807.85 398.629 2799.52 392.915 2792.74 385.751C2785.96 378.584 2780.73 370.255 2777.05 360.766C2773.37 351.47 2771.53 341.592 2771.53 331.133C2771.53 320.675 2773.37 310.699 2777.05 301.21C2780.73 291.719 2785.96 283.39 2792.74 276.225C2799.52 269.058 2807.85 263.345 2817.72 259.084C2827.41 254.823 2838.45 252.692 2850.84 252.692C2863.04 252.692 2873.99 254.823 2883.67 259.084C2893.35 263.345 2901.68 269.058 2908.66 276.225C2915.43 283.39 2920.66 291.719 2924.35 301.21C2927.83 310.699 2929.58 320.675 2929.58 331.133ZM2890.35 330.843C2890.35 324.257 2889.29 318.252 2887.16 312.831C2885.22 307.212 2882.41 302.372 2878.73 298.305C2875.25 294.238 2871.08 291.138 2866.24 289.007C2861.59 286.683 2856.46 285.521 2850.84 285.521C2845.23 285.521 2840 286.683 2835.15 289.007C2830.51 291.333 2826.34 294.528 2822.66 298.596C2819.18 302.663 2816.37 307.503 2814.24 313.121C2812.3 318.542 2811.33 324.547 2811.33 331.133C2811.33 337.911 2812.3 344.012 2814.24 349.436C2816.37 354.857 2819.18 359.604 2822.66 363.671C2826.15 367.739 2830.31 370.836 2835.15 372.968C2840 375.292 2845.23 376.454 2850.84 376.454C2856.46 376.454 2861.59 375.292 2866.24 372.968C2871.08 370.836 2875.25 367.739 2878.73 363.671C2882.41 359.604 2885.22 354.857 2887.16 349.436C2889.29 343.817 2890.35 337.621 2890.35 330.843Z" fill="white"/>
<path fill-rule="evenodd" clip-rule="evenodd" d="M3112.6 255.307V399.115C3112.6 410.154 3110.48 420.128 3106.21 429.038C3101.94 437.945 3096.13 445.403 3088.78 451.408C3081.43 457.604 3072.6 462.349 3062.34 465.643C3052.09 468.935 3040.85 470.582 3028.64 470.582C3012.17 470.582 2998.34 467.868 2987.1 462.447C2975.86 456.829 2966.18 449.084 2958.05 439.206L2962.99 434.558C2971.41 426.423 2984.2 425.552 2994.07 431.943C2996.19 433.105 2998.52 434.267 3001.05 435.429C3009.76 439.496 3018.97 441.53 3028.64 441.53C3034.66 441.53 3040.35 440.658 3045.79 438.915C3051.22 437.364 3056.04 434.848 3060.31 431.362C3064.58 427.876 3067.86 423.419 3070.19 417.998C3072.72 412.769 3073.97 406.473 3073.97 399.115V380.231C3068.94 388.752 3061.85 395.338 3052.76 399.986C3043.84 404.826 3034.16 407.249 3023.71 407.249C3013.63 407.249 3004.44 405.215 2996.11 401.148C2987.77 397.081 2980.62 391.561 2974.61 384.589C2968.59 377.616 2963.95 369.482 2960.66 360.185C2957.38 351.08 2955.72 341.302 2955.72 330.843C2955.72 319.803 2957.47 309.635 2960.95 300.339C2964.44 290.847 2969.29 282.616 2975.48 275.643C2981.49 268.477 2988.84 262.861 2997.56 258.794C3006.27 254.726 3015.77 252.692 3026.03 252.692C3037.85 252.692 3048.11 255.404 3056.82 260.827C3065.74 266.056 3073.09 273.029 3078.9 281.744V280.292C3078.9 266.637 3089.94 255.307 3103.6 255.307H3112.6ZM3074.26 315.155C3070.77 306.245 3065.34 299.078 3057.99 293.657C3050.43 288.233 3042.68 285.521 3034.75 285.521C3028.73 285.521 3023.33 286.877 3018.48 289.588C3013.83 292.105 3009.76 295.496 3006.27 299.758C3002.79 304.211 3000.09 309.15 2998.14 314.574C2996.4 320.19 2995.53 326 2995.53 332.005C2995.53 338.202 2996.6 343.916 2998.72 349.146C3000.84 354.567 3003.75 359.314 3007.44 363.381C3011.13 367.448 3015.48 370.644 3020.51 372.968C3025.54 375.292 3031.06 376.454 3037.07 376.454C3041.34 376.454 3045.29 375.774 3048.98 374.421C3052.84 373.064 3056.45 371.225 3059.73 368.901C3063.01 366.577 3065.92 363.863 3068.45 360.766C3070.97 357.666 3072.89 354.375 3074.26 350.889V315.155Z" fill="white"/>
</g>
<defs>
<clipPath id="clip0_369_155">
<rect width="3114.34" height="674" fill="white"/>
</clipPath>
</defs>
</svg>
