<svg width="375" height="288" viewBox="0 0 375 288" fill="none" xmlns="http://www.w3.org/2000/svg">
<path d="M97.19 120.18C95.18 120.81 93.15 121.66 91.12 122.72C89.08 123.78 87.1 125.02 85.18 126.42C83.25 127.83 81.46 129.38 79.79 131.07C78.12 132.76 76.7 134.55 75.53 136.41C74.35 138.28 73.46 140.22 72.86 142.23C72.26 144.24 72.07 146.25 72.3 148.26C71.09 148.49 69.99 148.69 68.98 148.86C67.97 149.03 67.07 149.12 66.27 149.12C64.66 149.12 63.21 148.9 61.92 148.47C60.63 148.04 59.56 147.36 58.73 146.45C57.9 145.53 57.31 144.35 56.96 142.92C56.62 141.48 56.59 139.73 56.87 137.66C57.33 134.73 58.84 131.83 61.39 128.96C63.94 126.09 67.13 123.37 70.95 120.82C74.77 118.27 79.01 115.95 83.66 113.88C88.31 111.81 93.02 110.12 97.79 108.8C100.55 108 103.78 107.31 107.48 106.73C111.18 106.16 114.9 105.87 118.64 105.87C121.97 105.87 125.2 106.16 128.33 106.73C131.46 107.3 134.23 108.3 136.64 109.7C139.05 111.11 140.99 112.99 142.46 115.34C143.92 117.7 144.66 120.65 144.66 124.21C144.54 127.71 143.6 130.92 141.82 133.82C140.04 136.72 137.83 139.29 135.19 141.53C132.55 143.77 129.69 145.64 126.62 147.13C123.55 148.62 120.69 149.71 118.05 150.4C121.5 151.89 123.91 153.6 125.29 155.53C126.67 157.46 127.36 159.54 127.36 161.78C127.36 164.36 126.41 166.95 124.52 169.53C122.62 172.11 120.15 174.46 117.11 176.55C114.07 178.65 110.66 180.34 106.9 181.63C103.14 182.92 99.36 183.57 95.57 183.57C92.93 183.57 90.36 183.2 87.86 182.45C85.36 181.7 83.11 180.55 81.1 179H81.27C79.89 178.08 78.81 177.16 78.04 176.24C77.27 175.32 76.69 174.39 76.32 173.44C75.95 172.49 75.72 171.5 75.63 170.47C75.54 169.44 75.5 168.35 75.5 167.2C75.5 165.13 75.87 162.81 76.62 160.22C77.37 157.64 78.34 154.92 79.55 152.08C80.76 149.24 82.12 146.32 83.64 143.34C85.16 140.35 86.77 137.44 88.46 134.6C90.15 131.76 91.85 129.06 93.54 126.5C95.23 123.95 96.8 121.69 98.24 119.74L97.19 120.18ZM128.12 125.61C128.12 123.49 127.2 121.69 125.36 120.23C123.52 118.77 120.88 117.86 117.43 117.52C114.73 121.37 111.93 125.49 109.03 129.88C106.13 134.27 103.4 138.71 100.85 143.19C98.29 147.67 96.02 152.11 94.04 156.5C92.06 160.89 90.64 165.02 89.78 168.86C89.32 170.87 89.46 172.32 90.21 173.21C90.96 174.1 92.02 174.55 93.4 174.55C95.18 174.55 97.19 174.09 99.43 173.17C101.67 172.25 103.74 171.03 105.63 169.51C107.53 167.99 109.03 166.28 110.15 164.38C111.27 162.48 111.63 160.56 111.23 158.61C111.06 157.69 110.6 156.82 109.85 155.98C109.1 155.15 108.27 154.42 107.35 153.78C106.43 153.15 105.51 152.6 104.59 152.14C103.67 151.68 102.95 151.34 102.44 151.11L100.89 150.33C101.18 149.35 101.55 148.68 102.01 148.31C102.47 147.94 103.07 147.61 103.82 147.32C104.05 147.21 104.28 147.12 104.51 147.06C104.74 147 104.94 146.92 105.11 146.8C109.13 144.96 112.59 143.1 115.49 141.2C118.39 139.3 120.77 137.44 122.64 135.6C124.51 133.76 125.88 132 126.77 130.3C127.67 128.61 128.12 127.05 128.12 125.61Z" fill="black"/>
<path d="M158.29 136.55C159.21 136.55 160.23 136.65 161.35 136.85C162.47 137.05 163.53 137.38 164.54 137.84C165.54 138.3 166.39 138.89 167.08 139.61C167.77 140.33 168.17 141.2 168.29 142.24C169.44 142.36 170.5 142.84 171.48 143.7C172.46 144.56 173.09 145.37 173.37 146.11C172.22 148.87 171.27 151.54 170.53 154.12C169.78 156.7 169.32 159.06 169.15 161.18C168.98 163.19 169.02 164.53 169.28 165.19C169.54 165.85 169.91 166.09 170.4 165.92C170.89 165.75 171.46 165.29 172.12 164.54C172.78 163.79 173.4 163.02 173.97 162.21C174.54 161.46 175.12 160.63 175.69 159.71C176.26 158.79 176.81 157.92 177.33 157.08C177.85 156.25 178.29 155.5 178.67 154.84C179.04 154.18 179.32 153.71 179.49 153.42C180.47 151.58 181.5 150.4 182.59 149.89C183.68 149.37 184.64 149.29 185.48 149.63C186.31 149.97 186.9 150.62 187.25 151.57C187.59 152.52 187.51 153.57 186.99 154.71C185.67 156.95 184.38 159.19 183.11 161.43C181.84 163.67 180.47 165.85 178.98 167.98C178.06 169.24 177.11 170.44 176.14 171.56C175.16 172.68 174.1 173.66 172.95 174.49C171.8 175.32 170.57 175.98 169.25 176.47C167.93 176.96 166.49 177.2 164.94 177.2C163.04 177.2 161.39 176.65 159.99 175.56C158.58 174.47 157.88 173.01 157.88 171.17C156.9 172.2 155.8 173.24 154.56 174.27C153.32 175.3 152.03 176.2 150.68 176.94C149.33 177.69 147.92 178.25 146.46 178.62C145 178.99 143.54 179.04 142.11 178.75C139.41 178.12 137.32 176.91 135.82 175.13C134.33 173.35 133.44 171.17 133.15 168.58C132.98 166.11 133.41 163.2 134.44 159.84C135.47 156.48 137.25 152.85 139.78 148.94C141.39 146.53 143.02 144.52 144.69 142.91C146.36 141.3 147.99 140.02 149.6 139.08C151.21 138.13 152.74 137.47 154.21 137.1C155.67 136.74 157.03 136.55 158.29 136.55ZM151.66 152.58C150.28 154.19 149.19 155.84 148.39 157.53C147.59 159.22 146.98 160.8 146.58 162.27C146.18 163.73 146 165.03 146.06 166.15C146.12 167.27 146.32 168.06 146.66 168.52C146.89 168.92 147.38 168.81 148.12 168.18C148.87 167.55 149.74 166.62 150.75 165.38C151.75 164.15 152.86 162.68 154.07 160.99C155.28 159.3 156.44 157.54 157.56 155.73C158.68 153.92 159.74 152.17 160.75 150.47C161.75 148.78 162.6 147.33 163.29 146.12C163.81 145.03 163.71 144.3 162.99 143.92C162.27 143.55 161.57 143.53 160.88 143.88C159.9 144.34 158.63 145.25 157.05 146.59C155.46 147.94 153.67 149.94 151.66 152.58Z" fill="black"/>
<path d="M230.83 156.45C229.11 159.67 227.34 162.67 225.53 165.45C223.72 168.24 221.9 170.69 220.06 172.82C218.22 174.95 216.34 176.61 214.42 177.82C212.49 179.03 210.53 179.63 208.52 179.63C207.54 179.63 206.25 179.27 204.64 178.55C203.03 177.83 201.29 176.9 199.43 175.75C197.56 174.6 195.73 173.31 193.92 171.87C192.11 170.43 190.55 169 189.22 167.56C188.59 169.4 188.1 171.61 187.76 174.19C187.42 176.77 187.64 180.08 188.45 184.1C186.21 183.64 184.33 183.05 182.81 182.33C181.29 181.61 180.02 180.87 179.02 180.09C178.02 179.31 177.24 178.57 176.69 177.85C176.15 177.13 175.79 176.54 175.61 176.08C174.86 173.96 174.56 171.47 174.71 168.63C174.85 165.79 175.33 162.76 176.13 159.54C176.93 156.32 178 152.99 179.32 149.55C180.64 146.1 182.08 142.7 183.63 139.34C185.18 135.98 186.79 132.75 188.45 129.65C190.12 126.55 191.69 123.72 193.19 121.16C194.68 118.6 196.02 116.39 197.2 114.53C198.38 112.66 199.28 111.33 199.91 110.52C200.6 109.95 201.5 109.59 202.62 109.44C203.74 109.3 204.89 109.33 206.07 109.53C207.25 109.73 208.34 110.1 209.34 110.65C210.34 111.2 211.08 111.81 211.54 112.5C211.31 113.36 210.84 114.61 210.12 116.25C209.4 117.89 208.53 119.71 207.49 121.72C206.46 123.73 205.36 125.81 204.22 127.97C203.07 130.12 201.99 132.15 200.99 134.04C199.98 135.94 199.12 137.57 198.41 138.95C197.69 140.33 197.25 141.25 197.07 141.71C198.74 140.45 200.53 139.36 202.46 138.44C204.38 137.52 206.41 137.06 208.53 137.06C211.4 137.06 213.74 137.79 215.55 139.26C217.36 140.72 218.41 142.81 218.69 145.51C218.86 147.92 218.39 150.26 217.27 152.53C216.15 154.8 214.57 156.84 212.53 158.65C210.49 160.46 208.11 161.94 205.38 163.09C202.65 164.24 199.74 164.93 196.63 165.16C198.47 166.31 200.19 167.39 201.8 168.39C203.41 169.4 205.13 169.76 206.97 169.47C209.04 169.18 210.89 168.54 212.53 167.53C214.17 166.53 215.67 165.3 217.05 163.87C218.43 162.43 219.71 160.84 220.88 159.09C222.06 157.34 223.22 155.57 224.37 153.79C224.89 152.47 225.68 151.56 226.74 151.08C227.8 150.59 228.76 150.48 229.63 150.74C230.49 151 231.11 151.62 231.48 152.59C231.85 153.55 231.64 154.85 230.83 156.45ZM201.2 148.61C200.51 149.24 199.76 150.03 198.96 150.98C198.16 151.93 197.35 152.96 196.55 154.08C195.75 155.2 194.97 156.38 194.22 157.61C193.47 158.85 192.81 160.07 192.24 161.27C194.65 160.93 196.68 160.35 198.31 159.55C199.95 158.75 201.27 157.81 202.27 156.75C203.27 155.69 203.98 154.6 204.38 153.48C204.78 152.36 204.95 151.34 204.9 150.42C204.73 148.58 204.35 147.55 203.78 147.32C203.21 147.09 202.34 147.52 201.2 148.61Z" fill="black"/>
<path d="M236.17 179.37C234.79 179.37 233.33 179.18 231.78 178.81C230.23 178.44 228.76 177.89 227.39 177.17C226.01 176.45 224.78 175.55 223.69 174.46C222.6 173.37 221.82 172.11 221.36 170.67C220.79 169.23 220.46 167.78 220.37 166.32C220.28 164.86 220.34 163.39 220.54 161.93C220.74 160.47 221.09 159.04 221.57 157.67C222.06 156.29 222.62 154.97 223.25 153.71C224.46 151.36 225.89 149.16 227.56 147.12C229.23 145.08 231.04 143.3 232.99 141.78C234.94 140.26 236.95 139.05 239.02 138.16C241.09 137.27 243.1 136.82 245.05 136.82C248.5 136.82 250.98 137.41 252.5 138.59C254.02 139.77 254.8 141.28 254.83 143.11C254.86 144.95 254.27 146.99 253.06 149.23C251.85 151.47 250.3 153.68 248.41 155.86C246.51 158.04 244.36 160.04 241.95 161.85C239.54 163.66 237.15 165.05 234.8 166.03C234.86 167.58 235.14 168.73 235.66 169.48C236.18 170.23 236.85 170.69 237.68 170.86C238.51 171.03 239.46 170.96 240.52 170.64C241.58 170.33 242.63 169.82 243.66 169.13C244.69 168.56 245.77 167.65 246.89 166.42C248.01 165.19 249.14 163.84 250.29 162.37C251.44 160.91 252.54 159.38 253.61 157.8C254.67 156.22 255.63 154.74 256.5 153.36C257.19 152.1 258.04 151.28 259.04 150.9C260.04 150.53 260.94 150.51 261.71 150.86C262.49 151.2 263.05 151.82 263.39 152.71C263.73 153.6 263.59 154.65 262.96 155.85C261.12 158.9 259.27 161.82 257.4 164.64C255.53 167.45 253.54 169.95 251.41 172.14C249.28 174.32 246.97 176.07 244.47 177.4C241.99 178.71 239.22 179.37 236.17 179.37ZM234.37 157.66C235.17 157.2 236.09 156.61 237.13 155.89C238.16 155.17 239.25 154.24 240.4 153.09C241.55 152.06 242.5 150.88 243.24 149.56C243.99 148.24 244.47 147.12 244.7 146.2C244.93 145.28 244.83 144.72 244.4 144.52C243.97 144.32 243.18 144.79 242.03 145.94C241.28 146.69 240.52 147.59 239.75 148.65C238.97 149.71 238.24 150.78 237.55 151.84C236.86 152.9 236.23 153.91 235.65 154.86C235.07 155.81 234.64 156.54 234.36 157.06V157.66H234.37Z" fill="black"/>
<path d="M293.9 157.14C292.06 160.47 290.08 163.82 287.96 167.18C285.83 170.54 283.48 173.28 280.89 175.41C279.34 176.67 277.69 177.62 275.94 178.25C274.19 178.88 272.31 179.03 270.3 178.68C267.77 178.28 266.06 177.13 265.17 175.23C264.28 173.33 263.78 171.12 263.66 168.6C263.54 165.56 264.02 162.76 265.08 160.2C266.14 157.65 267.31 155.1 268.57 152.58C267.76 152.75 267.09 152.94 266.55 153.14C266 153.34 265.33 153.41 264.53 153.36C263.95 154.28 263.52 154.97 263.24 155.43C262.95 155.89 262.62 156.38 262.25 156.89C261.88 157.41 261.39 158.13 260.79 159.04C260.19 159.96 259.28 161.31 258.08 163.09C257.39 164.35 256.54 165.17 255.54 165.55C254.54 165.92 253.63 165.95 252.83 165.64C252.03 165.33 251.47 164.72 251.15 163.83C250.83 162.94 251.02 161.89 251.71 160.69L257.48 150.52H257.39C256.87 149.49 256.67 148.21 256.79 146.69C256.91 145.17 257.25 143.59 257.82 141.95C258.39 140.31 259.16 138.72 260.1 137.17C261.05 135.62 262.08 134.26 263.2 133.08C264.32 131.9 265.48 131 266.69 130.37C267.9 129.74 269.04 129.57 270.14 129.85C271.63 130.19 272.65 130.83 273.2 131.75C273.75 132.67 274 133.69 273.98 134.81C273.95 135.93 273.74 137.08 273.33 138.26C272.93 139.44 272.56 140.46 272.21 141.32L274.19 138.99C274.59 138.47 275.54 138.3 277.03 138.47C278.52 138.64 280.06 139.03 281.64 139.63C283.22 140.23 284.63 140.95 285.86 141.78C287.09 142.61 287.63 143.4 287.45 144.15C286.82 145.53 286.11 146.86 285.34 148.16C284.56 149.45 283.77 150.72 282.97 151.95C282.17 153.19 281.39 154.42 280.64 155.65C279.89 156.89 279.26 158.19 278.74 159.57C278.17 160.89 277.79 162.14 277.62 163.32C277.45 164.5 277.71 165.32 278.4 165.78C278.74 166.07 279 166.18 279.18 166.12C279.35 166.06 279.55 165.95 279.78 165.78C280.01 165.49 280.22 165.21 280.43 164.92C280.63 164.63 280.87 164.35 281.16 164.06C281.73 163.37 282.32 162.58 282.93 161.69C283.53 160.8 284.09 159.95 284.61 159.15C285.13 158.35 285.57 157.64 285.95 157.04C286.32 156.44 286.57 156.05 286.68 155.88C287.37 154.45 288.22 153.54 289.22 153.17C290.22 152.8 291.16 152.77 292.02 153.08C292.88 153.4 293.54 153.94 294 154.72C294.44 155.46 294.42 156.28 293.9 157.14Z" fill="black"/>
<path d="M306.05 173.94C305.07 174.86 304.07 175.69 303.03 176.44C302 177.19 300.9 177.8 299.76 178.29C298.61 178.78 297.39 179.08 296.1 179.19C294.81 179.3 293.44 179.16 292.01 178.76C288.97 177.96 286.81 176.45 285.55 174.24C284.29 172.03 283.8 169.34 284.09 166.18C284.26 164.69 284.64 162.96 285.21 161.01C285.78 159.06 286.49 157.03 287.32 154.94C288.15 152.84 289.04 150.72 289.99 148.56C290.94 146.41 291.87 144.38 292.79 142.49C293.13 141.46 293.52 140.54 293.95 139.73C294.38 138.93 294.83 138.04 295.29 137.06C295.4 136.95 295.81 136.83 296.5 136.72C297.19 136.61 298.04 136.5 299.04 136.42C300.04 136.33 301.12 136.31 302.27 136.33C303.42 136.36 304.51 136.46 305.54 136.63C306.57 136.8 307.48 137.05 308.25 137.36C309.03 137.68 309.53 138.09 309.76 138.61C309.3 139.47 308.58 140.76 307.61 142.49C306.63 144.21 305.63 146.11 304.59 148.18C303.56 150.25 302.59 152.39 301.7 154.6C300.81 156.81 300.25 158.81 300.02 160.59C299.62 163.12 299.57 164.87 299.89 165.85C300.2 166.83 300.74 167.26 301.48 167.14C302.23 167.03 303.12 166.45 304.15 165.42C305.18 164.39 306.22 163.12 307.25 161.63C309.14 157.78 310.72 154.58 311.99 152.02C313.25 149.47 314.34 147.3 315.26 145.52C316.18 143.74 316.94 142.26 317.54 141.08C318.14 139.9 318.76 138.77 319.39 137.68C320.25 137.39 321.3 137.16 322.53 136.99C323.76 136.82 325.01 136.77 326.28 136.86C327.54 136.95 328.74 137.15 329.85 137.46C330.97 137.78 331.79 138.28 332.31 138.97L330.33 143.54C329.52 145.44 328.65 147.5 327.7 149.74C326.75 151.98 325.77 154.25 324.77 156.55C323.76 158.85 322.8 161.1 321.88 163.31C320.96 165.52 320.13 167.55 319.38 169.38C319.95 168.92 320.54 168.35 321.15 167.66C321.75 166.97 322.46 166.02 323.26 164.82C324.06 163.61 325.07 162.06 326.28 160.17C327.49 158.27 328.98 155.86 330.76 152.93C331.68 151.38 332.67 150.46 333.73 150.17C334.79 149.88 335.71 149.95 336.49 150.39C337.27 150.82 337.8 151.48 338.08 152.37C338.37 153.26 338.19 154.14 337.56 155C336.3 157.3 334.86 159.78 333.25 162.45C331.64 165.12 329.9 167.63 328.04 169.99C326.17 172.35 324.22 174.38 322.18 176.11C320.14 177.83 318.09 178.9 316.02 179.3C315.5 181.42 314.77 183.69 313.82 186.11C312.87 188.52 311.82 190.9 310.68 193.26C309.53 195.61 308.34 197.88 307.11 200.07C305.87 202.25 304.71 204.18 303.62 205.84C302.82 207.1 301.75 208.02 300.43 208.6C299.11 209.17 297.77 209.43 296.42 209.38C295.07 209.32 293.79 208.96 292.59 208.3C291.38 207.64 290.49 206.65 289.92 205.33C289.4 203.84 289.27 202.33 289.53 200.81C289.79 199.29 290.32 197.76 291.12 196.24C291.92 194.72 292.92 193.2 294.09 191.67C295.27 190.15 296.49 188.64 297.75 187.15C298.67 186.06 299.54 185.01 300.38 184.01C301.21 183 301.99 181.99 302.71 180.95C303.43 179.92 304.07 178.82 304.65 177.68C305.24 176.5 305.7 175.27 306.05 173.94ZM319.14 169.64H319.31H319.4H319.14Z" fill="black"/>
<path d="M129.71 84.28C127.13 82.57 125.01 81.03 122.74 79.77C122.02 79.37 120.73 79.46 119.93 79.81C115.18 81.93 110.38 82.02 105.34 81C103.76 80.68 101.77 81.46 100.21 82.24C97.31 83.69 94.77 86.35 91.76 87.01C80.21 89.54 71.44 96.9 61.93 103.05C59.86 104.39 57.68 105.71 55.36 106.47C48.42 108.75 41.47 106.22 38.28 100.54C35.07 94.81 36.25 86.65 41.39 82.21C43.41 80.46 43.94 78.81 43.96 76.27C44.06 62.36 51.82 53.32 65.29 50.8C66.51 50.57 68.05 49.36 68.51 48.23C78.44 23.67 110.42 25.99 121.8 40.01C123.24 41.78 124.55 42.29 126.74 42.12C133.41 41.6 139.77 42.79 145.59 46.31C156.23 52.76 159.45 65.76 153.01 76.37C149.55 82.07 144.45 85.18 137.82 85.28C135.4 85.32 134.39 86.17 133.54 88.26C131.67 92.84 129.52 97.31 127.33 102.18C103.5 97.09 83.43 106.16 64.64 119.14C61.52 115.7 58.65 112.53 55.78 109.37C55.84 109.17 55.91 108.97 55.97 108.78C58.49 109.68 61.23 110.22 63.47 111.58C65.59 112.86 66.86 112.39 68.64 111.15C80.53 102.89 93.38 96.88 107.99 95.62C112.51 95.23 117.13 95.6 121.67 95.96C123.67 96.12 124.76 95.89 125.52 93.85C126.69 90.65 128.22 87.61 129.71 84.28ZM67.05 55.86C61.52 56.24 56.81 58.46 53.33 62.95C46.39 71.89 48.28 81.42 51.34 91.39C49.24 89.59 47.13 87.79 45.04 86.01C41.35 89.76 40.61 94.73 43.11 98.49C45.53 102.12 50.43 103.61 55.02 101.02C61.8 97.2 68.17 92.63 74.5 88.52C72.51 86.22 70.74 84.19 68.97 82.15C69.19 81.88 69.41 81.61 69.63 81.34C76.82 84.6 84.05 84.98 91.28 81.8C99.02 78.4 102.71 72.32 102.31 63.39C107.03 67.03 105.57 71.6 105.67 75.84C110.23 76.95 114.71 77.2 118.31 74.46C121.58 71.97 124.11 68.5 127.37 65.03C127.08 67.78 126.74 70.51 126.53 73.24C126.45 74.26 126.28 75.83 126.84 76.27C132.3 80.61 141.24 82.77 147.53 75.22C153.06 68.58 152.27 58.96 145.8 52.89C141.67 49.02 136.55 47.58 131.11 47.1C128.06 46.83 124.65 46.21 124.27 50.99C124.2 51.83 123.23 52.61 122.56 53.57C118.09 40.32 110.46 34.65 97.35 34.72C90.14 34.76 83.67 36.81 78.51 42.11C73.41 47.35 71.02 53.72 71.38 61.23C71.04 61.22 70.69 61.21 70.35 61.21C69.3 59.48 68.23 57.76 67.05 55.86Z" fill="black"/>
<path d="M280.75 214.44C281.5 213.71 281.87 212.99 281.87 212.27C281.87 210.88 281.05 210.19 279.41 210.19H273.47C272.74 210.19 272.12 210.41 271.62 210.87C271.11 211.32 270.86 211.88 270.86 212.54C270.86 213.6 271.5 214.13 272.78 214.13H273.22L275.18 214.06L269.4 219.62C268.61 220.39 268.22 221.07 268.22 221.67C268.22 222.29 268.43 222.79 268.86 223.16C269.29 223.52 269.87 223.71 270.6 223.71H283.36C279.73 230.63 272.47 235.34 264.12 235.34C252.12 235.34 242.39 225.61 242.39 213.61C242.39 212.69 242.45 211.79 242.56 210.9C242.81 211.8 243.25 212.62 243.86 213.35C244.91 214.6 246.17 215.22 247.64 215.22C248.41 215.22 249.04 215.01 249.55 214.58C250.07 214.15 250.32 213.61 250.32 212.95C250.32 212.16 249.87 211.61 248.98 211.29C247.5 210.76 246.77 209.81 246.77 208.45C246.77 207.2 247.25 206.07 248.21 205.07C249.17 204.06 250.25 203.56 251.45 203.56C252.12 203.56 252.71 203.77 253.21 204.19C253.71 204.61 253.96 205.1 253.96 205.68C253.96 206.34 253.61 207.53 252.92 209.25L248.33 220.56L248.12 221.08C247.92 221.59 247.82 222.03 247.82 222.42C247.82 222.9 248.01 223.32 248.41 223.68C248.8 224.03 249.26 224.21 249.8 224.21C251.11 224.21 252.12 223.32 252.82 221.56L256.48 212.57L261.16 225.22C261.68 226.59 262.26 227.49 262.89 227.91C263.53 228.34 264.63 228.55 266.18 228.55H272.05C273.1 228.55 273.91 228.33 274.51 227.87C275.1 227.42 275.39 226.79 275.39 225.99C275.39 224.83 274.56 224.24 272.9 224.24H267.17C266.09 224.24 265.38 223.8 265.05 222.93L261.32 212.79L269.77 203.99C270.72 202.99 271.2 202.14 271.2 201.45C271.2 200.88 271.02 200.41 270.64 200.04C270.26 199.67 269.79 199.48 269.23 199.48C268.4 199.48 267.49 200.01 266.49 201.05L257.22 210.75L257.84 209.25C258.45 207.74 258.76 206.39 258.76 205.19C258.76 203.49 258.11 202.08 256.82 200.95C255.52 199.82 253.91 199.25 251.98 199.25C249.9 199.25 248.03 199.87 246.38 201.12C250.31 195.54 256.81 191.9 264.15 191.9C276.15 191.9 285.88 201.63 285.88 213.63C285.88 215.8 285.56 217.9 284.97 219.88H275.18L280.75 214.44Z" fill="black"/>
<path d="M97.18 233.82C95.83 233.82 94.39 233.64 92.87 233.27C91.35 232.9 89.91 232.37 88.56 231.66C87.21 230.96 86 230.07 84.93 229C83.86 227.93 83.1 226.69 82.65 225.28C82.09 223.87 81.76 222.45 81.68 221.01C81.6 219.57 81.65 218.14 81.85 216.7C82.05 215.26 82.39 213.87 82.86 212.52C83.34 211.17 83.89 209.87 84.51 208.63C85.69 206.32 87.1 204.17 88.74 202.17C90.37 200.17 92.15 198.42 94.06 196.93C95.97 195.44 97.95 194.26 99.97 193.38C102 192.51 103.97 192.07 105.88 192.07C109.26 192.07 111.7 192.65 113.19 193.8C114.68 194.96 115.44 196.43 115.47 198.24C115.5 200.04 114.92 202.04 113.74 204.24C112.56 206.44 111.04 208.61 109.18 210.75C107.32 212.89 105.21 214.85 102.84 216.62C100.47 218.39 98.14 219.76 95.83 220.72C95.89 222.24 96.17 223.37 96.67 224.1C97.18 224.83 97.84 225.28 98.66 225.45C99.48 225.62 100.41 225.55 101.45 225.24C102.49 224.93 103.52 224.44 104.53 223.76C105.54 223.2 106.6 222.31 107.7 221.1C108.8 219.89 109.91 218.57 111.04 217.13C112.17 215.69 113.25 214.2 114.29 212.65C115.33 211.1 116.28 209.65 117.12 208.3C117.8 207.06 118.63 206.26 119.61 205.89C120.59 205.52 121.47 205.51 122.23 205.85C122.99 206.19 123.54 206.79 123.88 207.67C124.22 208.54 124.08 209.57 123.46 210.75C121.66 213.74 119.84 216.61 118.01 219.37C116.18 222.13 114.22 224.58 112.14 226.72C110.06 228.86 107.79 230.58 105.34 231.87C102.88 233.17 100.16 233.82 97.18 233.82ZM95.4 212.52C96.19 212.07 97.09 211.49 98.1 210.79C99.11 210.09 100.18 209.17 101.31 208.04C102.44 207.03 103.37 205.87 104.1 204.58C104.83 203.28 105.31 202.19 105.54 201.28C105.76 200.38 105.67 199.83 105.24 199.63C104.82 199.43 104.04 199.9 102.92 201.02C102.19 201.75 101.44 202.64 100.68 203.68C99.92 204.72 99.2 205.76 98.53 206.81C97.85 207.85 97.23 208.84 96.67 209.77C96.11 210.7 95.68 211.42 95.4 211.92V212.52V212.52Z" fill="black"/>
<path d="M144.07 219.96C144.35 220.92 144.55 221.64 144.66 222.11C144.77 222.59 144.93 222.83 145.12 222.83C145.32 222.83 145.6 222.59 145.96 222.11C146.33 221.63 146.93 220.91 147.78 219.96C149.47 217.76 150.99 215.52 152.34 213.24C153.69 210.96 155.02 208.83 156.31 206.86C156.93 205.73 157.69 205.07 158.59 204.87C159.49 204.67 160.31 204.77 161.04 205.17C161.77 205.56 162.31 206.18 162.65 207.03C162.99 207.87 162.9 208.8 162.4 209.82C161.61 211.29 160.75 212.86 159.82 214.55C158.89 216.24 157.86 217.96 156.74 219.7C155.61 221.45 154.4 223.18 153.11 224.9C151.81 226.62 150.46 228.18 149.05 229.59C147.81 230.83 146.39 231.86 144.78 232.67C143.17 233.49 141.58 233.94 140.01 234.02C138.43 234.1 137 233.72 135.7 232.88C134.4 232.03 133.45 230.6 132.83 228.57C132.72 228.23 132.65 227.94 132.62 227.68C132.59 227.43 132.55 227.16 132.49 226.88C132.43 226.6 132.36 226.25 132.28 225.82C132.2 225.4 132.07 224.88 131.9 224.26C130.89 225.44 130.04 226.51 129.37 227.47C128.69 228.43 128.09 229.4 127.55 230.39C127.01 231.38 126.48 232.43 125.94 233.56C125.4 234.69 124.74 236.04 123.95 237.62C121.25 236.32 119.13 234.83 117.61 233.14C116.09 231.45 115.38 230.07 115.5 229C115.67 228.78 116.18 228.13 117.02 227.06C117.86 225.99 118.93 224.65 120.23 223.05C121.53 221.44 123.02 219.64 124.71 217.64C126.4 215.64 128.17 213.57 130.03 211.43C129.64 208.5 129.34 206.42 129.14 205.18C128.94 203.94 128.63 203.42 128.21 203.62C127.79 203.82 127.15 204.66 126.31 206.15C125.47 207.64 124.23 209.6 122.59 212.02C121.86 213.49 120.96 214.42 119.89 214.81C118.82 215.2 117.88 215.19 117.06 214.77C116.24 214.35 115.74 213.57 115.54 212.45C115.34 211.32 115.78 209.97 116.85 208.39C117.75 206.98 118.71 205.33 119.72 203.45C120.73 201.56 121.82 199.72 122.97 197.92C124.12 196.12 125.36 194.5 126.69 193.06C128.01 191.62 129.46 190.65 131.04 190.14C133.07 189.52 134.77 189.49 136.15 190.06C137.53 190.62 138.36 191.5 138.64 192.68C138.92 193.98 139.22 195.26 139.53 196.52C139.84 197.79 140.05 198.87 140.16 199.77L146.41 190.14C147.48 189.97 148.58 190.13 149.71 190.6C150.84 191.08 151.85 191.7 152.75 192.46C153.65 193.22 154.38 194.07 154.95 195C155.51 195.93 155.77 196.76 155.71 197.49C155.54 197.66 155.01 198.22 154.1 199.18C153.2 200.14 152.11 201.33 150.85 202.77C149.58 204.21 148.19 205.8 146.67 207.54C145.15 209.29 143.66 210.98 142.19 212.61C142.47 214.19 142.78 215.58 143.12 216.79C143.48 218 143.79 219.06 144.07 219.96Z" fill="black"/>
<path d="M175.59 193.51C176.83 193 178.34 192.52 180.11 192.07C181.88 191.62 183.66 191.38 185.43 191.35C187.2 191.32 188.84 191.6 190.33 192.2C191.82 192.79 192.91 193.88 193.58 195.45C194.48 198.32 194.62 201.37 194 204.58C193.38 207.79 192.28 210.92 190.7 213.96C189.12 217 187.19 219.88 184.91 222.58C182.63 225.28 180.28 227.58 177.85 229.47C175.43 231.36 173.07 232.72 170.79 233.57C168.51 234.42 166.55 234.53 164.92 233.91C164.19 233.68 163.53 233.53 162.93 233.45C162.34 233.37 161.73 233.13 161.11 232.73C160.72 234.59 160.38 236.5 160.1 238.48C159.82 240.45 159.62 244.75 159.51 246.72C159.4 248.69 159.43 250.65 159.59 252.59C159.76 254.53 160.1 256.38 160.6 258.12C159.25 258.12 157.8 258.09 156.25 258.04C154.7 257.98 153.21 257.8 151.77 257.49C150.33 257.18 149.02 256.67 147.84 255.97C146.66 255.26 145.78 254.27 145.22 252.97C145.11 250.38 145.4 247.18 146.11 243.38C146.82 239.58 147.76 233.24 148.94 229.01C150.12 224.78 151.46 220.53 152.95 216.25C154.44 211.97 155.98 208.05 157.56 204.5C159.14 200.95 160.64 197.97 162.08 195.54C163.52 193.12 164.74 191.6 165.76 190.98C166.83 190.81 168.29 190.73 170.15 190.73C172.01 190.73 174.09 190.87 176.4 191.15C176.29 191.38 176.15 191.76 175.98 192.29C175.85 192.82 175.7 193.23 175.59 193.51ZM166.47 211.85C165.91 213.09 165.38 214.58 164.91 216.33C164.43 218.08 164.33 219.96 164.61 221.99C164.95 224.3 165.58 225.41 166.51 225.33C167.44 225.25 168.52 224.53 169.76 223.18C171 221.94 172.2 220.56 173.35 219.04C174.5 217.52 175.52 215.93 176.39 214.27C177.26 212.61 177.95 210.89 178.46 209.12C178.97 207.35 179.19 205.61 179.14 203.92C179.08 202.85 178.9 202.03 178.59 201.47C178.28 200.91 177.87 200.54 177.36 200.37C176.85 200.2 176.32 200.2 175.75 200.37C175.19 200.54 174.62 200.82 174.06 201.21C173.1 201.83 172.23 202.6 171.44 203.53C170.65 204.46 169.93 205.43 169.29 206.45C168.64 207.46 168.08 208.45 167.6 209.41C167.13 210.36 166.75 211.17 166.47 211.85Z" fill="black"/>
<path d="M219.7 226.13C218.63 227.54 217.33 228.88 215.81 230.14C214.29 231.41 212.65 232.46 210.91 233.31C209.16 234.15 207.36 234.69 205.5 234.92C203.64 235.14 201.87 234.89 200.18 234.16H200.26C197.56 233.15 195.57 231.72 194.3 229.89C193.03 228.06 192.29 226.02 192.06 223.76C191.95 222.18 192.03 220.52 192.31 218.77C192.59 217.02 193 215.28 193.54 213.53C194.08 211.78 194.72 210.09 195.48 208.46C196.24 206.83 197.04 205.33 197.89 203.98C199.52 201.61 201.11 199.66 202.66 198.11C204.21 196.56 205.7 195.35 207.14 194.48C208.58 193.61 209.96 193 211.28 192.66C212.6 192.32 213.86 192.15 215.04 192.15C217.74 192.15 220.07 192.83 222.01 194.18C223.95 195.53 225.06 197.59 225.35 200.35C226.87 200.91 227.8 201.94 228.14 203.43C228.48 204.92 228.49 206.54 228.18 208.29C227.87 210.04 227.35 211.74 226.62 213.4C225.89 215.06 225.21 216.32 224.59 217.16C224.98 217.67 225.39 217.78 225.82 217.5C226.24 217.22 226.57 216.94 226.79 216.66C227.3 215.98 227.82 215.22 228.35 214.38C228.89 213.54 229.38 212.72 229.83 211.93C230.28 211.14 230.7 210.4 231.1 209.69C231.49 208.99 231.83 208.46 232.11 208.13C232.79 206.83 233.62 206 234.6 205.64C235.59 205.27 236.46 205.27 237.22 205.64C237.98 206.01 238.5 206.68 238.78 207.67C239.06 208.66 238.84 209.85 238.1 211.26C237.31 212.73 236.62 214.01 236.03 215.1C235.44 216.2 234.9 217.18 234.42 218.06C233.94 218.93 233.48 219.74 233.03 220.47C232.58 221.2 232.1 221.94 231.59 222.67C230.12 224.64 228.31 225.95 226.14 226.6C224 227.24 221.84 227.09 219.7 226.13ZM208.84 224.65C209.32 224.23 209.8 223.71 210.28 223.09C210.76 222.47 211.22 221.82 211.67 221.15C212.12 220.47 212.54 219.85 212.94 219.29C212.15 217.88 211.6 216.42 211.29 214.9C210.98 213.38 210.95 211.91 211.21 210.51C211.46 209.1 211.98 207.81 212.77 206.62C213.56 205.43 214.69 204.48 216.15 203.75H215.73C215.28 203.53 214.86 203.33 214.46 203.16C214.07 202.99 213.78 202.77 213.62 202.48C212.72 202.59 211.8 203.24 210.87 204.42C209.94 205.6 209.08 207.04 208.29 208.73C207.5 210.42 206.84 212.22 206.3 214.14C205.76 216.06 205.41 217.84 205.24 219.51C205.07 221.17 205.17 222.55 205.54 223.65C205.91 224.75 206.6 225.3 207.61 225.3C207.96 225.28 208.36 225.07 208.84 224.65Z" fill="black"/>
</svg>
