<svg width="1072" height="232" viewBox="0 0 1072 232" fill="none" xmlns="http://www.w3.org/2000/svg">
<path fill-rule="evenodd" clip-rule="evenodd" d="M212.969 126.418C212.637 129.769 209.317 133.121 206.197 134.895C202.744 136.735 200.022 136.341 199.358 138.246C198.627 140.283 200.818 142.978 201.084 143.306C202.744 145.343 204.404 145.343 204.47 146.658C204.603 148.038 202.81 149.615 201.084 150.009C199.225 150.469 197.963 149.549 197.698 150.009C197.299 150.6 198.893 152.9 201.084 153.36C202.81 153.82 203.939 152.835 204.47 153.36C205.333 154.28 203.408 157.369 202.744 158.42C200.088 162.823 198.694 162.56 197.698 165.189C196.37 168.475 197.299 172.089 197.698 173.6C198.495 176.754 199.49 177.017 199.358 178.66C199.092 181.814 194.577 184.443 190.859 185.429C185.348 186.809 182.294 184.509 172.135 182.012C162.507 179.646 157.66 178.463 155.137 180.369C148.099 185.494 155.801 206.391 156.797 208.954C160.847 219.534 166.823 227.025 171.338 231.757H155.004C149.029 218.548 143.186 204.42 137.808 189.306C135.019 181.289 132.23 173.075 129.707 164.532C127.184 156.252 124.993 148.103 123.001 140.086C124.329 140.174 125.679 140.218 127.051 140.218C142.986 141.225 156.841 135.443 168.616 122.869C179.837 110.975 184.352 97.701 185.813 87.6469C185.99 86.5078 186.123 85.4126 186.211 84.3612C186.277 83.9012 188.402 50.6501 188.336 50.453C187.871 48.4816 185.414 47.233 183.887 48.9416C182.227 50.7158 181.364 55.5129 180.766 61.0986C179.837 70.1671 179.439 81.5355 177.513 86.464C174.658 93.824 167.819 94.2839 168.549 90.2754C169.147 87.1212 171.272 85.544 172.533 83.2441C173.131 82.1269 176.119 74.8327 172.4 76.0156C171.072 76.4756 168.881 78.1184 165.362 83.9669C163.37 87.384 161.511 94.1525 158.723 101.512C155.934 108.872 152.216 116.692 146.373 122.146C143.385 125.301 137.675 130.426 128.91 133.844C120.743 137.129 113.506 137.523 109.257 137.392H109.124C109.323 147.249 110.651 159.406 114.635 172.68C121.341 195.286 133.093 212.306 143.65 224.2C146.107 227.025 148.497 229.522 150.821 231.757C119.969 231.757 89.1384 231.757 58.3301 231.757C72.4063 219.797 89.8023 200.543 98.5668 172.68C100.758 165.583 102.152 158.815 102.949 152.572C103.679 147.118 104.011 141.992 104.011 137.392H103.945C103.06 137.436 102.108 137.436 101.09 137.392C98.9651 137.261 97.0396 136.866 95.5125 136.406C96.6191 136.187 97.1946 135.903 97.2388 135.552C97.2831 134.983 95.7338 134.304 92.591 133.515C96.3978 133.69 100.205 133.844 104.011 133.975C103.569 110.931 103.126 87.8878 102.683 64.8443C102.086 61.4929 100.691 56.4986 97.3052 51.2415C91.5287 42.4359 83.4946 38.4931 80.0419 37.1131C80.4403 31.396 80.5067 28.3732 80.5067 26.599C80.5067 26.599 80.7723 22.9847 80.7723 19.5676C80.7723 19.5676 81.7683 10.8277 81.9011 4.19062C81.9011 4.19062 81.9011 4.05919 81.9011 3.86205C81.9011 3.73063 81.9011 3.59921 81.9011 3.46779C94.3174 0.444962 110.983 -1.65788 129.574 1.75923C141.127 3.92778 149.294 7.4763 151.685 8.52772C158.59 11.5505 169.28 16.3476 178.974 27.059C182.161 30.6075 196.635 46.6416 195.971 67.4728C195.573 79.6298 190.46 81.1412 192.585 91.064C193.382 95.0068 196.702 106.507 206.197 116.364C209.716 120.044 213.367 122.672 212.969 126.418V126.418ZM185.879 44.4731C183.555 42.6988 175.587 36.8503 164.3 34.3532C159.121 33.1703 153.212 32.7103 146.838 33.6303C142.522 34.2217 125.458 36.7188 115.896 51.2415C112.51 56.4329 111.116 61.4929 110.518 64.8443C110.031 87.8878 109.567 110.931 109.124 133.975H118.552C118.287 125.892 118.486 116.298 119.88 105.521C121.474 93.8897 123.997 83.8355 126.653 75.687C128.844 71.2185 136.148 58.01 152.216 49.9273C159.387 46.313 166.292 44.7359 172.135 44.1445C178.376 43.5531 183.29 44.0788 185.879 44.4731V44.4731ZM184.551 46.9044C180.368 46.1159 176.65 45.7873 173.197 45.853C160.847 45.9845 152.946 50.453 149.958 52.3587C130.836 64.7128 126.719 90.604 124.329 105.915C122.603 116.692 122.669 125.892 123.067 131.938C136.546 128.849 143.053 122.212 146.107 118.269C153.012 109.135 156.797 94.3497 157.66 83.9669C157.859 80.8784 158.191 74.5699 161.445 67.4728C162.109 66.0928 163.702 62.7414 166.557 59.2586C169.612 55.5129 172.998 52.753 176.185 50.8473C179.372 48.8101 182.36 47.6273 184.551 46.9044V46.9044ZM178.841 67.3414C177.646 65.1728 176.451 62.9386 175.455 60.7043C175.233 60.2662 175.034 59.8281 174.857 59.39C173.264 58.2072 170.608 58.7986 170.541 61.1643C170.475 64.6471 174.326 69.2471 178.31 73.9784C178.443 72.1385 178.597 70.2985 178.775 68.4585L178.841 67.3414ZM179.771 58.5358C179.815 57.791 179.903 57.0463 180.036 56.3015C180.169 55.5129 180.302 54.5272 180.567 53.4758C180.103 52.6872 179.837 52.2272 179.771 52.2272C178.907 51.3073 177.513 50.9787 176.451 51.5044C175.853 51.7673 175.322 52.293 175.189 53.1472C174.525 56.0386 176.583 60.31 179.04 64.8443C179.239 62.7414 179.439 60.5729 179.771 58.5358V58.5358Z" fill="black"/>
<path fill-rule="evenodd" clip-rule="evenodd" d="M86.0847 139.955C87.4569 139.955 88.8291 139.911 90.2013 139.823C88.4086 147.643 86.2175 155.858 83.4952 164.335C74.7307 191.211 62.7128 213.62 50.6286 231.757H42.7937C49.367 221.637 69.5518 189.371 61.5177 180.172C60.057 178.507 58.3528 177.39 56.4051 176.82C50.2966 174.98 46.5119 180.237 35.9548 183.589C32.8341 184.574 21.3474 188.189 17.2308 183.589C15.77 181.88 15.7036 179.646 15.5708 175.112C15.3052 168.277 17.3636 166.24 15.5708 163.283C14.2429 161.115 12.6494 161.509 10.4583 158.223C9.3959 156.712 8.13435 154.74 8.73193 153.163C9.66149 150.798 13.9773 150.666 13.8445 149.746C13.7781 149.22 12.0518 149.418 10.4583 148.103C9.3959 147.249 8.33354 145.672 8.73193 144.686C9.19671 143.635 10.9894 144.292 12.1182 142.978C13.2469 141.729 12.9814 139.429 12.1182 137.918C11.1222 136.143 9.3295 135.421 7.0056 134.566C4.01772 133.384 3.15455 133.844 1.9594 132.858C0.89705 132.004 -0.165289 130.229 0.233094 126.089C6.74002 114.589 13.3133 103.024 19.8203 91.4583C18.0939 85.4126 12.3174 62.0843 24.9328 39.0845C40.9346 9.71055 73.934 4.71632 81.1049 3.59919C81.3705 3.55538 81.6361 3.51158 81.9016 3.46777C81.6803 8.94391 81.5475 14.5296 81.5033 20.2247C81.4147 26.2266 81.4147 32.097 81.5033 37.836C77.6522 35.8646 72.5396 33.8932 66.3647 32.9732C46.7775 30.2789 31.5726 40.7274 27.2567 43.8816C32.3029 43.1588 46.0472 41.8445 60.9201 49.3358C73.2036 55.5129 80.3081 64.6471 84.0263 70.6928C85.1551 72.5327 86.0183 74.1099 86.5494 75.1613C89.1389 83.3755 91.7284 93.4297 93.2555 105.127C94.4507 114.261 94.6499 123.921 94.7163 126.681C94.7827 129.506 94.7827 131.806 94.7827 133.515C95.4466 133.559 96.1106 133.624 96.7746 133.712C97.0402 134.764 97.35 135.815 97.7042 136.866C93.8531 136.472 89.2053 135.552 84.2255 133.581C79.8433 131.806 76.2579 129.638 73.3364 127.535C70.4813 125.432 68.2902 123.395 66.8295 121.818C55.1436 110.844 51.7573 90.2754 47.7735 83.5069C44.3208 77.5927 42.0633 75.9498 40.7354 75.5556C37.0835 74.3727 40.005 81.6012 40.6026 82.7841C41.8641 85.084 43.9888 86.6612 44.5864 89.8154C45.3832 93.8897 38.4779 93.3639 35.6228 86.004C32.5021 77.987 33.4981 53.0158 29.3151 48.4159C27.7215 46.6416 25.3312 47.9559 24.8664 49.8615C24.8 50.0587 26.9248 83.4412 26.9248 83.9012C27.8543 94.2182 32.1037 109.201 44.52 122.541C56.2944 135.114 70.1493 140.919 86.0847 139.955V139.955ZM28.6511 46.313C32.9669 47.7587 40.4698 51.1101 46.5783 58.6672C49.4334 62.2157 51.0933 65.5671 51.6909 66.9471C55.0108 74.1099 55.2764 80.3527 55.5419 83.5069C56.4051 93.8897 60.1234 108.741 67.0951 117.875C70.0829 121.884 76.5898 128.521 90.1349 131.675C90.4669 125.564 90.5333 116.364 88.8069 105.521C86.4166 90.144 82.3664 64.1871 63.244 51.833C59.393 49.3358 47.6407 42.6988 28.6511 46.313V46.313ZM42.5945 60.6386C42.5945 58.2729 39.9386 57.6815 38.2787 58.8643C38.1016 59.3024 37.9246 59.7405 37.7475 60.1786C36.7516 62.4129 35.49 64.6471 34.2948 66.8157L34.4277 67.9328C34.5604 69.7728 34.6932 71.6128 34.8924 73.4527C38.8099 68.7214 42.7273 64.1214 42.5945 60.6386ZM34.0957 64.2528C36.5524 59.7186 38.6107 55.4472 37.9467 52.5558C37.4819 50.2558 34.7596 50.1901 33.3653 51.6358C33.3653 51.6358 33.0333 52.0958 32.5685 52.8844C32.8341 53.9358 32.9669 54.9215 33.0997 55.7758C33.5645 58.5357 33.8301 61.4272 34.0957 64.2528V64.2528Z" fill="black"/>
<path d="M312.999 81.7783H299.099V131.578C299.099 136.378 295.199 140.178 290.499 140.178H285.499V81.7783H262.999V78.3783C262.999 73.6783 266.799 69.7783 271.499 69.7783H321.599V73.1783C321.599 77.9783 317.699 81.7783 312.999 81.7783Z" fill="black"/>
<path fill-rule="evenodd" clip-rule="evenodd" d="M366.499 108.479V140.079H363.699C358.999 140.079 355.199 136.279 355.099 131.679C352.833 134.612 350.066 136.879 346.799 138.479C343.466 140.079 339.933 140.879 336.199 140.879C333.666 140.879 331.333 140.445 329.199 139.579C326.999 138.779 325.099 137.645 323.499 136.179C321.899 134.645 320.666 132.912 319.799 130.979C318.866 128.979 318.399 126.779 318.399 124.379C318.399 121.912 318.966 119.645 320.099 117.579C321.166 115.512 322.666 113.745 324.599 112.279C326.599 110.812 328.933 109.679 331.599 108.879C334.333 108.079 337.333 107.679 340.599 107.679C342.866 107.679 345.133 107.845 347.399 108.179C349.599 108.579 351.533 109.145 353.199 109.879V106.979C353.199 103.512 352.233 100.845 350.299 98.9785C348.366 97.1785 345.499 96.2786 341.699 96.2786C338.899 96.2786 336.166 96.7452 333.499 97.6785C333.233 97.8119 332.933 97.9452 332.599 98.0786C328.299 99.8786 323.499 98.0785 321.499 93.9785L321.299 93.6785C327.966 89.2119 335.166 86.9785 342.899 86.9785C350.366 86.9785 356.166 88.8118 360.299 92.4785C364.433 96.1452 366.499 101.479 366.499 108.479V108.479ZM353.199 117.079C351.666 116.479 349.966 115.979 348.099 115.579C346.233 115.245 344.433 115.079 342.699 115.079C339.299 115.079 336.499 115.845 334.299 117.379C332.099 118.912 330.999 120.879 330.999 123.279C330.999 125.545 331.866 127.412 333.599 128.879C335.333 130.412 337.466 131.179 339.999 131.179C342.199 131.179 344.333 130.779 346.399 129.979C348.399 129.179 349.966 128.112 351.099 126.779C352.499 125.645 353.199 124.379 353.199 122.979V117.079Z" fill="black"/>
<path d="M419.799 87.8784H426.099L408.999 134.278C407.799 137.578 404.499 139.878 400.999 139.878H398.499C394.899 139.878 391.699 137.578 390.499 134.278L373.399 87.8784H380.799C384.599 87.8784 387.899 90.2784 388.999 93.8784L400.299 129.078L411.699 93.8784C412.799 90.2784 416.099 87.8784 419.799 87.8784Z" fill="black"/>
<path d="M476.199 124.378C476.199 129.512 474.333 133.545 470.599 136.478C466.799 139.412 461.666 140.878 455.199 140.878C450.866 140.878 446.599 140.178 442.399 138.778C438.266 137.378 434.699 135.412 431.699 132.878L432.299 131.878C434.599 127.978 439.499 126.678 443.599 128.578C444.399 128.978 445.166 129.312 445.899 129.578C448.966 130.778 451.966 131.378 454.899 131.378C457.566 131.378 459.666 130.878 461.199 129.878C462.666 128.878 463.399 127.445 463.399 125.578C463.399 123.712 462.533 122.378 460.799 121.578C458.999 120.712 456.066 119.712 451.999 118.578C448.666 117.645 445.799 116.745 443.399 115.878C440.999 115.012 439.099 114.045 437.699 112.978C436.233 111.845 435.166 110.578 434.499 109.178C433.833 107.778 433.499 106.078 433.499 104.078C433.499 101.412 433.999 99.0451 434.999 96.9784C436.066 94.8451 437.499 93.0451 439.299 91.5784C441.166 90.0451 443.333 88.8784 445.799 88.0784C448.333 87.3451 451.033 86.9451 453.899 86.8784C457.833 86.9451 461.499 87.5118 464.899 88.5784C468.299 89.7118 471.399 91.5451 474.199 94.0784L473.399 95.2784C471.099 98.7784 466.699 100.178 462.899 98.4784C462.366 98.2117 461.799 97.9784 461.199 97.7784C458.733 96.8451 456.266 96.3784 453.799 96.3784C451.533 96.3784 449.666 96.8451 448.199 97.7784C446.666 98.6451 445.899 100.112 445.899 102.178C445.899 103.112 446.066 103.878 446.399 104.478C446.799 105.078 447.399 105.612 448.199 106.078C448.999 106.545 450.033 106.978 451.299 107.378C452.566 107.778 454.166 108.245 456.099 108.778C459.699 109.678 462.699 110.578 465.299 111.478C467.833 112.412 469.899 113.478 471.499 114.678C473.099 115.878 474.299 117.245 475.099 118.778C475.833 120.312 476.199 122.178 476.199 124.378V124.378Z" fill="black"/>
<path d="M487.599 76.8783C487.599 73.2783 490.599 70.2783 494.199 70.2783C497.899 70.2783 500.899 73.2783 500.899 76.8783C500.899 80.5783 497.899 83.5783 494.199 83.5783C490.599 83.5783 487.599 80.5783 487.599 76.8783ZM487.599 87.8783H500.899V131.278C500.899 135.978 496.999 139.878 492.299 139.878H487.599V87.8783Z" fill="black"/>
<path d="M562.499 87.8784L543.799 143.178C541.599 150.078 540.399 155.478 537.299 159.178C534.199 162.978 531.799 164.278 526.399 164.278C522.199 164.278 517.932 163.245 513.599 161.178L514.399 158.378C515.399 154.378 519.499 151.978 523.499 153.078C528.166 153.012 530.499 149.878 530.499 143.678L530.299 139.878L509.799 87.8784H517.399C520.999 87.8784 524.299 90.1784 525.499 93.6784L537.599 128.378L548.199 93.9784C549.299 90.3784 552.599 87.8784 556.399 87.8784H562.499Z" fill="black"/>
<path d="M622.399 113.679C622.399 114.545 622.399 115.379 622.399 116.179C622.299 116.979 622.199 117.579 622.099 118.079H586.599C586.599 113.379 590.399 109.479 595.099 109.479H608.699C608.366 105.612 606.933 102.512 604.399 100.179C601.866 97.8452 598.799 96.6785 595.199 96.6785C593.399 96.6785 591.699 96.9786 590.099 97.5786C588.566 98.1786 587.199 99.0452 585.999 100.179C584.799 101.312 583.833 102.679 583.099 104.279C582.299 105.879 581.599 108.379 581.599 113.979C581.599 119.079 582.699 121.979 583.499 123.579C584.233 125.179 585.233 126.545 586.499 127.679C587.766 128.812 589.199 129.679 590.799 130.279C592.399 130.879 594.066 131.179 595.799 131.179C598.399 131.179 600.866 130.512 603.199 129.179C605.533 127.912 607.133 126.212 607.999 124.079L619.399 127.279C617.533 131.212 614.499 134.479 610.299 137.079C606.099 139.612 601.099 140.879 595.299 140.879C591.099 140.879 587.333 140.145 583.999 138.679C580.599 137.279 577.699 135.345 575.299 132.879C572.966 130.479 571.133 127.645 569.799 124.379C568.533 121.179 567.899 117.779 567.899 114.179C567.899 110.512 568.533 107.012 569.799 103.679C571.066 100.412 572.866 97.5452 575.199 95.0786C577.599 92.6119 580.499 90.6452 583.899 89.1785C587.299 87.7119 591.133 86.9785 595.399 86.9785C599.599 86.9785 603.366 87.7119 606.699 89.1785C610.033 90.6452 612.866 92.6119 615.199 95.0786C617.599 97.4786 619.399 100.312 620.599 103.579C621.799 106.845 622.399 110.212 622.399 113.679V113.679Z" fill="black"/>
<path fill-rule="evenodd" clip-rule="evenodd" d="M657.599 131.578V69.7783H687.499C690.699 69.7783 693.699 70.4783 696.499 71.8783C699.232 73.2116 701.565 74.9783 703.499 77.1783C705.499 79.3783 707.065 81.8783 708.199 84.6783C709.332 87.545 709.899 90.3783 709.899 93.1783C709.899 96.1783 709.365 99.0783 708.299 101.878C707.232 104.678 705.732 107.178 703.799 109.378C701.932 111.578 699.632 113.312 696.899 114.578C694.165 115.912 691.199 116.578 687.999 116.578H671.299V140.178H666.199C661.499 140.178 657.599 136.378 657.599 131.578V131.578ZM671.299 104.578H687.199C689.732 104.578 691.832 103.545 693.499 101.478C695.165 99.4783 695.999 96.7116 695.999 93.1783C695.999 91.3783 695.732 89.7783 695.199 88.3783C694.665 86.9783 693.965 85.7783 693.099 84.7783C692.232 83.7783 691.232 83.045 690.099 82.5783C688.965 82.045 687.799 81.7783 686.599 81.7783H671.299V104.578Z" fill="black"/>
<path d="M761.899 124.378C761.899 129.512 759.999 133.545 756.199 136.478C752.466 139.412 747.332 140.878 740.799 140.878C736.465 140.878 732.199 140.178 727.999 138.778C723.866 137.378 720.299 135.412 717.299 132.878L717.899 131.878C720.199 127.978 725.099 126.678 729.199 128.578C729.999 128.978 730.799 129.312 731.599 129.578C734.599 130.778 737.566 131.378 740.499 131.378C743.166 131.378 745.265 130.878 746.799 129.878C748.332 128.878 749.099 127.445 749.099 125.578C749.099 123.712 748.199 122.378 746.399 121.578C744.599 120.712 741.699 119.712 737.699 118.578C734.299 117.645 731.399 116.745 728.999 115.878C726.666 115.012 724.765 114.045 723.299 112.978C721.832 111.845 720.765 110.578 720.099 109.178C719.432 107.778 719.099 106.078 719.099 104.078C719.099 101.412 719.632 99.0451 720.699 96.9784C721.699 94.8451 723.132 93.0451 724.999 91.5784C726.799 90.0451 728.966 88.8784 731.499 88.0784C733.966 87.3451 736.632 86.9451 739.499 86.8784C743.432 86.9451 747.099 87.5118 750.499 88.5784C753.899 89.7118 757.032 91.5451 759.899 94.0784L758.999 95.2784C756.699 98.7784 752.299 100.178 748.499 98.4784C747.966 98.2117 747.399 97.9784 746.799 97.7784C744.332 96.8451 741.865 96.3784 739.399 96.3784C737.199 96.3784 735.332 96.8451 733.799 97.7784C732.265 98.6451 731.499 100.112 731.499 102.178C731.499 103.112 731.699 103.878 732.099 104.478C732.432 105.078 732.999 105.612 733.799 106.078C734.599 106.545 735.632 106.978 736.899 107.378C738.232 107.778 739.832 108.245 741.699 108.778C745.299 109.678 748.299 110.578 750.899 111.478C753.432 112.412 755.499 113.478 757.099 114.678C758.765 115.878 759.966 117.245 760.699 118.778C761.499 120.312 761.899 122.178 761.899 124.378V124.378Z" fill="black"/>
<path d="M773.198 76.8783C773.198 73.2783 776.198 70.2783 779.898 70.2783C783.498 70.2783 786.498 73.2783 786.498 76.8783C786.498 80.5783 783.498 83.5783 779.898 83.5783C776.198 83.5783 773.198 80.5783 773.198 76.8783ZM773.198 87.8783H786.498V131.278C786.498 135.978 782.698 139.878 777.898 139.878H773.198V87.8783Z" fill="black"/>
<path d="M849.998 139.879H840.398C837.598 139.879 834.898 138.479 833.298 136.079L820.798 117.379L813.598 124.379V131.279C813.598 135.979 809.798 139.879 805.098 139.879H800.398V67.4785H805.098C809.798 67.4785 813.598 71.2786 813.598 76.0786V111.379L831.898 90.8785C833.498 89.0785 835.898 87.9785 838.298 87.9785H848.598L829.298 109.979L849.998 139.879Z" fill="black"/>
<path fill-rule="evenodd" clip-rule="evenodd" d="M907.798 113.979C907.798 117.579 907.198 120.979 905.998 124.179C904.732 127.445 902.932 130.312 900.598 132.779C898.265 135.245 895.432 137.212 892.098 138.679C888.698 140.145 884.898 140.879 880.698 140.879C876.432 140.879 872.632 140.145 869.298 138.679C865.898 137.212 863.032 135.245 860.698 132.779C858.365 130.312 856.565 127.445 855.298 124.179C854.032 120.979 853.398 117.579 853.398 113.979C853.398 110.379 854.032 106.945 855.298 103.679C856.565 100.412 858.365 97.5452 860.698 95.0786C863.032 92.6119 865.898 90.6452 869.298 89.1785C872.632 87.7119 876.432 86.9785 880.698 86.9785C884.898 86.9785 888.665 87.7119 891.998 89.1785C895.332 90.6452 898.198 92.6119 900.598 95.0786C902.932 97.5452 904.732 100.412 905.998 103.679C907.198 106.945 907.798 110.379 907.798 113.979ZM894.298 113.879C894.298 111.612 893.932 109.545 893.198 107.679C892.532 105.745 891.565 104.079 890.298 102.679C889.098 101.279 887.665 100.212 885.998 99.4785C884.398 98.6785 882.632 98.2786 880.698 98.2786C878.765 98.2786 876.965 98.6785 875.298 99.4785C873.698 100.279 872.265 101.379 870.998 102.779C869.798 104.179 868.832 105.845 868.098 107.779C867.432 109.645 867.098 111.712 867.098 113.979C867.098 116.312 867.432 118.412 868.098 120.279C868.832 122.145 869.798 123.779 870.998 125.179C872.198 126.579 873.632 127.645 875.298 128.379C876.965 129.179 878.765 129.579 880.698 129.579C882.632 129.579 884.398 129.179 885.998 128.379C887.665 127.645 889.098 126.579 890.298 125.179C891.565 123.779 892.532 122.145 893.198 120.279C893.932 118.345 894.298 116.212 894.298 113.879V113.879Z" fill="black"/>
<path d="M949.799 135.078C947.999 136.678 945.966 137.845 943.699 138.578C941.432 139.312 939.066 139.678 936.599 139.678C934.066 139.678 931.699 139.245 929.499 138.378C927.299 137.445 925.366 136.112 923.699 134.378C922.099 132.712 920.832 130.712 919.899 128.378C918.966 126.045 918.499 123.478 918.499 120.678V68.3784H923.199C927.999 68.3784 931.799 72.1784 931.799 76.8784V121.678C931.799 123.612 932.432 125.178 933.699 126.378C934.966 127.578 936.466 128.178 938.199 128.178C941.599 126.978 945.399 128.278 947.399 131.278L949.799 135.078Z" fill="black"/>
<path fill-rule="evenodd" clip-rule="evenodd" d="M1008.4 113.979C1008.4 117.579 1007.8 120.979 1006.6 124.179C1005.33 127.445 1003.53 130.312 1001.2 132.779C998.866 135.245 996.032 137.212 992.699 138.679C989.299 140.145 985.499 140.879 981.299 140.879C977.032 140.879 973.232 140.145 969.899 138.679C966.499 137.212 963.632 135.245 961.299 132.779C958.966 130.312 957.166 127.445 955.899 124.179C954.632 120.979 953.999 117.579 953.999 113.979C953.999 110.379 954.632 106.945 955.899 103.679C957.166 100.412 958.966 97.5452 961.299 95.0786C963.632 92.6119 966.499 90.6452 969.899 89.1785C973.232 87.7119 977.032 86.9785 981.299 86.9785C985.499 86.9785 989.266 87.7119 992.599 89.1785C995.932 90.6452 998.799 92.6119 1001.2 95.0786C1003.53 97.5452 1005.33 100.412 1006.6 103.679C1007.8 106.945 1008.4 110.379 1008.4 113.979ZM994.899 113.879C994.899 111.612 994.532 109.545 993.799 107.679C993.132 105.745 992.166 104.079 990.899 102.679C989.699 101.279 988.266 100.212 986.599 99.4785C984.999 98.6785 983.232 98.2786 981.299 98.2786C979.366 98.2786 977.566 98.6785 975.899 99.4785C974.299 100.279 972.866 101.379 971.599 102.779C970.399 104.179 969.432 105.845 968.699 107.779C968.032 109.645 967.699 111.712 967.699 113.979C967.699 116.312 968.032 118.412 968.699 120.279C969.432 122.145 970.399 123.779 971.599 125.179C972.799 126.579 974.232 127.645 975.899 128.379C977.566 129.179 979.366 129.579 981.299 129.579C983.232 129.579 984.999 129.179 986.599 128.379C988.266 127.645 989.699 126.579 990.899 125.179C992.166 123.779 993.132 122.145 993.799 120.279C994.532 118.345 994.899 116.212 994.899 113.879V113.879Z" fill="black"/>
<path fill-rule="evenodd" clip-rule="evenodd" d="M1071.4 87.8785V137.379C1071.4 141.179 1070.67 144.612 1069.2 147.679C1067.73 150.745 1065.73 153.312 1063.2 155.379C1060.67 157.512 1057.63 159.145 1054.1 160.279C1050.57 161.412 1046.7 161.979 1042.5 161.979C1036.83 161.979 1032.07 161.045 1028.2 159.179C1024.33 157.245 1021 154.579 1018.2 151.179L1019.9 149.579C1022.8 146.779 1027.2 146.479 1030.6 148.679C1031.33 149.079 1032.13 149.479 1033 149.879C1036 151.279 1039.17 151.979 1042.5 151.979C1044.57 151.979 1046.53 151.679 1048.4 151.079C1050.27 150.545 1051.93 149.679 1053.4 148.479C1054.87 147.279 1056 145.745 1056.8 143.879C1057.67 142.079 1058.1 139.912 1058.1 137.379V130.879C1056.37 133.812 1053.93 136.079 1050.8 137.679C1047.73 139.345 1044.4 140.179 1040.8 140.179C1037.33 140.179 1034.17 139.479 1031.3 138.079C1028.43 136.679 1025.97 134.779 1023.9 132.379C1021.83 129.979 1020.23 127.179 1019.1 123.979C1017.97 120.845 1017.4 117.479 1017.4 113.879C1017.4 110.079 1018 106.579 1019.2 103.379C1020.4 100.112 1022.07 97.2785 1024.2 94.8785C1026.27 92.4119 1028.8 90.4786 1031.8 89.0786C1034.8 87.6786 1038.07 86.9785 1041.6 86.9785C1045.67 86.9785 1049.2 87.9119 1052.2 89.7786C1055.27 91.5786 1057.8 93.9785 1059.8 96.9785V96.4785C1059.8 91.7785 1063.6 87.8785 1068.3 87.8785H1071.4ZM1058.2 108.479C1057 105.412 1055.13 102.945 1052.6 101.079C1050 99.2119 1047.33 98.2786 1044.6 98.2786C1042.53 98.2786 1040.67 98.7452 1039 99.6785C1037.4 100.545 1036 101.712 1034.8 103.179C1033.6 104.712 1032.67 106.412 1032 108.279C1031.4 110.212 1031.1 112.212 1031.1 114.279C1031.1 116.412 1031.47 118.379 1032.2 120.179C1032.93 122.045 1033.93 123.679 1035.2 125.079C1036.47 126.479 1037.97 127.579 1039.7 128.379C1041.43 129.179 1043.33 129.579 1045.4 129.579C1046.87 129.579 1048.23 129.345 1049.5 128.879C1050.83 128.412 1052.07 127.779 1053.2 126.979C1054.33 126.179 1055.33 125.245 1056.2 124.179C1057.07 123.112 1057.73 121.979 1058.2 120.779V108.479Z" fill="black"/>
</svg>
