<svg width="1059" height="253" viewBox="0 0 1059 253" fill="none" xmlns="http://www.w3.org/2000/svg">
<mask id="mask0_654_297" style="mask-type:luminance" maskUnits="userSpaceOnUse" x="177" y="146" width="9" height="10">
<path d="M184.185 147.414C183.582 147.98 182.883 148.427 182.195 148.849C180.507 149.838 178.794 150.766 177.058 151.599C180.025 152.817 182.919 153.987 185.705 155.036C185.741 153.48 185.777 151.936 185.826 150.38C185.838 149.331 185.874 148.282 185.898 147.233C185.91 147.076 185.862 146.979 185.717 146.919C185.331 146.787 185.018 146.497 184.704 146.135C184.837 146.738 184.523 147.088 184.185 147.414Z" fill="white"/>
</mask>
<g mask="url(#mask0_654_297)">
<path d="M185.922 146.135H177.058V155.036H185.922V146.135Z" fill="url(#paint0_linear_654_297)"/>
</g>
<mask id="mask1_654_297" style="mask-type:luminance" maskUnits="userSpaceOnUse" x="71" y="22" width="177" height="157">
<path d="M84.3258 38.0505L84.4947 38.2555C84.4947 38.2555 70.2514 46.9269 71.373 69.2385C71.9158 79.6948 80.1409 91.0798 89.9821 100.885L89.6324 99.6788L98.9792 101.886L102.971 102.827L103.345 98.8225L104.225 89.2587L112.077 94.8185L115.442 97.1944L117.275 93.6366L121.677 85.0858L126.875 93.1662L129.094 96.6275L132.133 94.0225L139.405 87.7391L141.214 97.1823L141.974 101.223L145.773 99.9441L154.879 96.8567L152.997 106.276L152.201 110.316L156.217 110.545L165.793 111.088L160.535 119.132L158.28 122.569L161.91 124.282L170.593 128.37L162.694 133.846L159.317 136.198L162.031 139.14L168.555 146.196L165.89 146.799C168.724 148.065 171.57 149.295 174.368 150.477C174.887 150.091 175.405 149.717 175.948 149.355C177.444 148.318 178.975 147.353 180.579 146.473C181.291 146.087 182.015 145.701 182.798 145.46C182.979 145.4 183.184 145.339 183.365 145.303C183.715 145.231 184.041 145.267 184.318 145.52C184.33 145.532 184.354 145.568 184.354 145.568C184.39 145.532 184.39 145.52 184.366 145.484C183.884 144.001 184.752 142.674 185.934 142.288C186.055 142.252 186.2 142.228 186.356 142.179C185.572 141.89 185.524 141.178 185.428 140.551C185.211 139.068 185.259 137.572 185.295 136.089C185.355 134.388 185.452 132.688 185.633 131C185.777 129.673 185.91 128.358 186.272 127.08C186.332 126.875 186.392 126.682 186.501 126.489C186.658 126.26 186.827 126.26 186.959 126.513C187.188 126.935 187.285 127.393 187.381 127.84C187.599 128.961 187.719 130.119 187.84 131.265C188.069 133.641 188.189 136.017 188.165 138.392C188.165 139.285 188.117 140.189 187.924 141.058C187.864 141.371 187.755 141.661 187.55 141.89C187.442 142.011 187.285 142.095 187.104 142.155C188.985 142.614 189.54 144.302 189.034 145.629C189.637 145.062 190.24 145.351 190.819 145.556C191.036 145.629 191.265 145.725 191.482 145.834C192.604 146.352 193.689 146.992 194.738 147.643C196.981 149.03 199.164 150.501 201.203 152.165C201.637 152.515 202.071 152.889 202.421 153.335C202.529 153.468 202.698 153.625 202.59 153.818C202.469 153.999 202.252 153.938 202.083 153.914C201.154 153.745 200.298 153.408 199.43 153.034C196.463 151.779 193.58 150.368 190.831 148.668C190.433 148.415 190.023 148.137 189.661 147.836C189.456 147.691 189.287 147.522 189.118 147.353C188.805 147.04 188.563 146.702 188.708 146.208C188.394 146.533 188.081 146.811 187.659 146.967C187.538 147.028 187.586 147.136 187.586 147.233C187.611 148.68 187.659 150.151 187.695 151.599C187.731 153.022 187.767 154.421 187.804 155.844C190.131 156.724 192.338 157.508 194.425 158.208C203.084 161.09 209.922 163.683 215.301 166.204C215.458 161.018 215.578 155.82 215.711 150.634C215.832 146.328 215.94 142.023 216.049 137.705C216.097 136.089 216.145 134.461 216.194 132.845C216.206 132.579 216.145 132.459 215.88 132.362C215.289 132.133 214.819 131.711 214.324 131.144C214.541 132.073 214.059 132.628 213.54 133.122C212.6 134.015 211.538 134.702 210.441 135.341C205.689 138.151 200.78 140.624 195.607 142.541C194.955 142.77 194.292 142.975 193.605 143.084C193.508 143.096 193.424 143.12 193.339 143.12C193.134 143.108 192.929 143.156 192.784 142.939C192.664 142.71 192.845 142.565 192.941 142.433C193.327 141.806 193.87 141.323 194.437 140.865C195.197 140.238 195.944 139.599 196.752 139.008C198.079 138.031 199.394 137.054 200.732 136.125C203.06 134.521 205.436 133.014 207.908 131.663C209.018 131.06 210.151 130.457 211.345 130.059C211.635 129.962 211.936 129.89 212.238 129.83C212.793 129.721 213.287 129.793 213.721 130.167C213.733 130.204 213.769 130.228 213.781 130.228C213.83 130.204 213.794 130.155 213.781 130.119C213.058 127.84 214.385 125.765 216.242 125.186C216.423 125.126 216.628 125.078 216.869 125.006C215.663 124.547 215.591 123.462 215.434 122.461C215.108 120.181 215.168 117.866 215.229 115.562C215.313 112.921 215.47 110.304 215.735 107.675C215.952 105.625 216.169 103.574 216.724 101.584C216.821 101.271 216.929 100.969 217.098 100.704C217.327 100.318 217.58 100.33 217.81 100.74C218.171 101.391 218.304 102.091 218.449 102.802C218.787 104.551 218.992 106.324 219.172 108.109C219.522 111.775 219.727 115.466 219.679 119.156C219.667 120.543 219.607 121.93 219.293 123.293C219.185 123.775 219.052 124.222 218.726 124.583C218.557 124.764 218.316 124.873 218.039 124.981C220.957 125.681 221.814 128.298 221.03 130.348C221.958 129.48 222.887 129.914 223.792 130.228C224.153 130.348 224.491 130.505 224.829 130.662C226.577 131.482 228.242 132.447 229.87 133.472C233.343 135.619 236.732 137.886 239.88 140.479C240.568 141.034 241.219 141.601 241.761 142.3C241.93 142.517 242.208 142.77 242.027 143.036C241.858 143.313 241.52 143.217 241.243 143.168C239.808 142.903 238.481 142.372 237.154 141.806C232.535 139.876 228.085 137.657 223.816 135.028C223.189 134.642 222.561 134.22 221.983 133.749C221.705 133.52 221.416 133.267 221.15 133.014C220.692 132.519 220.318 132.001 220.523 131.241C220.065 131.747 219.534 132.169 218.907 132.411C218.702 132.483 218.787 132.676 218.787 132.809C218.847 135.064 218.895 137.319 218.955 139.562C219.052 143.168 219.136 146.799 219.233 150.405C219.365 156.399 219.522 162.393 219.679 168.387C225.757 171.703 229.496 175.02 231.776 178.879C241.918 162.381 247.55 142.891 247.08 122.123C246.947 115.876 246.26 109.761 245.078 103.84L243.595 110.642L234.935 101.753C225.709 92.2497 214.445 90.115 199.285 89.7652C187.285 89.4999 174.465 89.0175 161.801 86.2557C135.872 80.6355 116.479 53.0656 120.302 27.2083C120.591 25.2665 121.243 23.566 122.195 22.1912C108.374 24.953 95.5661 30.4284 84.3258 38.0505Z" fill="white"/>
</mask>
<g mask="url(#mask1_654_297)">
<path d="M247.514 22.1912H70.2514V178.867H247.514V22.1912Z" fill="url(#paint1_linear_654_297)"/>
</g>
<path d="M188.153 170.823C188.165 170.979 188.117 171.004 187.984 171.004H185.464C185.307 171.016 185.259 170.979 185.259 170.823C185.295 170.232 185.295 169.665 185.307 169.086C185.355 167.18 185.416 165.275 185.464 163.369C186.236 163.647 187.068 163.96 187.996 164.322C188.045 166.324 188.093 168.338 188.129 170.352C188.153 170.521 188.141 170.666 188.153 170.823Z" fill="white"/>
<mask id="mask2_654_297" style="mask-type:luminance" maskUnits="userSpaceOnUse" x="45" y="37" width="33" height="33">
<path d="M75.1721 38.4967C63.7751 44.5872 58.8183 49.2666 56.0806 52.2576C46.1308 64.137 45.8896 69.6606 45.9017 69.6968C46.3961 69.8295 46.9027 69.5159 48.2414 68.2616C50.4122 66.1511 50.4122 66.1511 62.3278 56.1651C63.0515 55.5621 65.5118 53.4033 66.8746 51.0756C70.155 45.0817 72.0243 43.0796 76.9691 38.4243C77.1862 38.2193 77.4515 37.8937 77.5962 37.6284C77.548 37.6163 77.4877 37.6042 77.4274 37.6042C77.0656 37.6163 76.4746 37.8575 75.1721 38.4967Z" fill="white"/>
</mask>
<g mask="url(#mask2_654_297)">
<path d="M65.2706 22.167L93.2868 57.3108L58.2032 85.2787L30.1871 50.1349L65.2706 22.167Z" fill="url(#paint2_linear_654_297)"/>
</g>
<mask id="mask3_654_297" style="mask-type:luminance" maskUnits="userSpaceOnUse" x="43" y="59" width="23" height="42">
<path d="M60.374 60.5792C44.4423 73.5199 43.8875 76.7521 43.381 79.5983C43.2604 82.1672 43.2121 85.6044 43.5137 88.1611C45.5277 104.732 49.5197 100.221 51.0273 98.521C55.176 93.2385 60.0604 88.5833 64.0524 83.1682C64.7881 82.1672 66.4404 79.5501 65.8735 76.7882C63.6182 69.4797 63.4976 67.14 63.968 60.2776C63.9801 60.1209 64.0283 59.9038 63.98 59.747C63.8353 59.337 63.5459 59.1802 63.1841 59.1802C62.3037 59.1681 60.977 60.145 60.374 60.5792Z" fill="white"/>
</mask>
<g mask="url(#mask3_654_297)">
<path d="M57.4313 47.8435L88.6676 87.0275L52.2454 116.057L21.0091 76.8727L57.4313 47.8435Z" fill="url(#paint3_linear_654_297)"/>
</g>
<mask id="mask4_654_297" style="mask-type:luminance" maskUnits="userSpaceOnUse" x="51" y="86" width="36" height="47">
<path d="M65.4393 88.33C51.7267 104.177 50.0624 106.384 52.4383 111.341C69.6363 137.331 72.9771 132.724 75.1841 129.673C78.7901 123.667 83.4454 118.324 86.3278 111.872C86.8464 110.714 87.7992 107.711 85.4716 104.877C78.1027 97.4958 75.1962 93.5883 74.2916 92.2496C73.1941 90.6214 72.0725 88.1129 70.565 86.8707C70.1911 86.5571 69.6966 86.3159 69.0695 86.3159C68.1529 86.3038 66.971 86.8104 65.4393 88.33Z" fill="white"/>
</mask>
<g mask="url(#mask4_654_297)">
<path d="M73.1339 67.9119L112.668 117.504L64.7278 155.723L25.194 106.131L73.1339 67.9119Z" fill="url(#paint4_linear_654_297)"/>
</g>
<mask id="mask5_654_297" style="mask-type:luminance" maskUnits="userSpaceOnUse" x="79" y="114" width="46" height="48">
<path d="M90.5972 117.094C77.2946 138.212 77.2946 138.212 81.6846 142.565C110.002 164.793 111.172 162.971 114.308 158.135C124.197 138.899 124.197 138.899 124.221 138.815C124.595 137.56 125.066 134.376 121.58 131.747C110.521 124.933 105.456 121.291 103.791 120.037C101.705 118.469 99.1359 115.996 96.7721 114.887C96.3862 114.706 95.759 114.489 94.9751 114.489C93.7811 114.477 92.1892 115.019 90.5972 117.094Z" fill="white"/>
</mask>
<g mask="url(#mask5_654_297)">
<path d="M106.517 91.1882L149.608 145.243L95.8676 188.081L52.764 134.027L106.517 91.1882Z" fill="url(#paint5_linear_654_297)"/>
</g>
<mask id="mask6_654_297" style="mask-type:luminance" maskUnits="userSpaceOnUse" x="120" y="140" width="49" height="44">
<path d="M130.24 143.615C118.457 166.662 118.457 166.662 123.329 169.979C154.276 186.513 154.674 185.958 158.461 180.736C162.923 173.066 168.266 163.201 168.748 161.476C169.11 160.186 169.544 156.941 165.818 154.722C153.504 149.03 147.631 146.051 145.665 145.026C143.072 143.675 139.767 141.492 136.981 140.624C136.668 140.527 136.113 140.395 135.413 140.395C133.978 140.395 131.94 140.973 130.24 143.615Z" fill="white"/>
</mask>
<g mask="url(#mask6_654_297)">
<path d="M149.693 115.502L192.013 168.592L138.308 211.406L95.9882 158.316L149.693 115.502Z" fill="url(#paint6_linear_654_297)"/>
</g>
<mask id="mask7_654_297" style="mask-type:luminance" maskUnits="userSpaceOnUse" x="163" y="161" width="45" height="38">
<path d="M174.778 165.468C173.114 168.676 170.895 172.969 169.05 176.081C167.578 178.565 165.154 181.689 164.238 184.415C163.393 186.935 164.165 188.853 166.505 190.119C170.811 191.832 188.587 198.658 189.625 198.839C189.914 198.899 192.531 199.261 195.631 195.522C203.373 184.692 206.666 178.276 206.955 177.528C207.414 176.346 208.222 173.379 205.689 171.775C197.741 168.35 192.097 165.914 188.009 164.322C187.08 163.948 186.248 163.647 185.476 163.369C182.618 162.344 180.724 161.886 179.337 161.886C176.997 161.886 176.165 163.225 174.778 165.468Z" fill="white"/>
</mask>
<g mask="url(#mask7_654_297)">
<path d="M190.794 140.033L226.433 184.74L180.808 221.114L145.158 176.407L190.794 140.033Z" fill="url(#paint7_linear_654_297)"/>
</g>
<mask id="mask8_654_297" style="mask-type:luminance" maskUnits="userSpaceOnUse" x="197" y="176" width="31" height="33">
<path d="M210.537 180.471C206.449 187.526 205.532 188.805 199.586 197.187C199.393 197.464 199.116 197.814 198.959 198.115C197.693 200.527 197.681 201.914 198.887 202.759C204.206 205.171 205.978 206.256 206.557 206.69C207.148 207.124 207.848 207.981 208.583 208.077C208.764 208.101 209.838 208.065 212.937 204.785C221.319 195.233 224.853 189.311 225.48 188.226C226.107 187.128 227.506 184.439 226.855 183.233C221.066 178.36 217.641 176.648 215.349 176.648C212.973 176.636 211.828 178.445 210.537 180.471Z" fill="white"/>
</mask>
<g mask="url(#mask8_654_297)">
<path d="M215.904 162.103L242.823 195.872L209.259 222.622L182.34 188.865L215.904 162.103Z" fill="url(#paint8_linear_654_297)"/>
</g>
<mask id="mask9_654_297" style="mask-type:luminance" maskUnits="userSpaceOnUse" x="29" y="54" width="25" height="41">
<path d="M53.4031 54.5851C51.5459 56.6112 49.2303 59.4575 47.4574 61.556C43.381 66.8263 43.1639 67.2002 37.4714 76.6796C35.3609 80.8405 32.792 86.5088 30.9709 90.8143C29.8373 93.9983 29.8372 93.9983 29.9579 94.2998C30.2232 93.8294 30.3197 93.6244 30.7538 92.6837C33.4192 87.0153 33.6483 86.6897 39.2925 78.3801C39.7991 77.6445 41.5237 75.0153 42.7177 72.0846C44.8524 66.9228 47.1076 62.0504 53.2946 54.7901C53.4273 54.6333 53.6082 54.4163 53.7167 54.2354C53.6323 54.3439 53.5117 54.4886 53.4031 54.5851Z" fill="white"/>
</mask>
<g mask="url(#mask9_654_297)">
<path d="M44.4544 42.6093L73.2544 78.742L39.1357 105.95L10.3236 69.8174L44.4544 42.6093Z" fill="url(#paint9_linear_654_297)"/>
</g>
<mask id="mask10_654_297" style="mask-type:luminance" maskUnits="userSpaceOnUse" x="27" y="82" width="17" height="48">
<path d="M37.7126 83.7953C28.595 96.9169 27.9438 102.887 27.6302 105.757C27.4614 110.039 27.1598 117.998 30.6332 127.49C30.9468 128.358 32.1166 130.879 33.9257 127.116C36.3136 121.436 39.775 116.31 42.3679 110.726C42.8745 109.629 43.9719 106.722 43.0795 103.478C42.175 100.8 40.993 97.1823 40.5951 94.3843C40.0523 90.5853 40.5348 86.738 40.1488 82.9269C40.1127 82.5651 39.992 82.1671 39.6302 82.1671C39.2684 82.1551 38.6895 82.5531 37.7126 83.7953Z" fill="white"/>
</mask>
<g mask="url(#mask10_654_297)">
<path d="M37.4353 73.9661L67.7188 111.944L33.6966 139.068L3.42511 101.09L37.4353 73.9661Z" fill="url(#paint10_linear_654_297)"/>
</g>
<mask id="mask11_654_297" style="mask-type:luminance" maskUnits="userSpaceOnUse" x="35" y="114" width="33" height="49">
<path d="M44.3458 116.672C33.9016 134.606 35.0111 136.776 37.2182 141.082C44.1046 151.719 56.1891 168.483 59.771 161.187C62.0504 155.156 65.572 149.657 67.4414 143.446C67.8032 142.24 68.358 139.116 65.7409 135.98C56.6353 126.682 54.368 123.341 49.387 116.033C49.2423 115.816 49.0494 115.526 48.8564 115.357C48.3257 114.875 47.771 114.634 47.2162 114.634C46.2755 114.634 45.3107 115.309 44.3458 116.672Z" fill="white"/>
</mask>
<g mask="url(#mask11_654_297)">
<path d="M54.9589 97.8456L94.6012 147.558L47.2885 185.271L7.65826 135.558L54.9589 97.8456Z" fill="url(#paint11_linear_654_297)"/>
</g>
<mask id="mask12_654_297" style="mask-type:luminance" maskUnits="userSpaceOnUse" x="64" y="146" width="44" height="46">
<path d="M72.2052 149.15C63.4374 167.41 62.762 169.231 67.7067 173.777C95.4937 194.883 97.146 192.169 99.0395 189.046C100.246 186.405 101.874 182.883 103.164 180.266C104.322 177.926 106.276 174.935 106.927 172.403C107.228 171.233 107.554 168.218 103.972 165.504C92.9008 158.449 87.353 154.3 85.4716 152.841C83.2525 151.116 80.5268 148.439 78.0183 147.148C77.5841 146.919 76.8484 146.642 76.0042 146.642C74.8464 146.63 73.4474 147.172 72.2052 149.15Z" fill="white"/>
</mask>
<g mask="url(#mask12_654_297)">
<path d="M90.151 124.8L131.072 176.129L80.1771 216.7L39.2563 165.371L90.151 124.8Z" fill="url(#paint12_linear_654_297)"/>
</g>
<mask id="mask13_654_297" style="mask-type:luminance" maskUnits="userSpaceOnUse" x="105" y="174" width="46" height="38">
<path d="M113.005 177.118C103.309 196.005 103.309 196.005 108.314 199.08C136.668 213.215 137.09 212.72 140.37 208.873C140.467 208.74 149.729 195.148 150.187 193.966C150.585 192.917 151.14 190.276 147.655 188.298C135.896 183.016 130.095 180.085 128.153 179.06C125.584 177.721 122.304 175.55 119.542 174.658C119.12 174.525 118.469 174.368 117.709 174.368C116.286 174.368 114.477 174.911 113.005 177.118Z" fill="white"/>
</mask>
<g mask="url(#mask13_654_297)">
<path d="M132.555 151.056L170.075 198.115L121.906 236.527L84.3861 189.468L132.555 151.056Z" fill="url(#paint13_linear_654_297)"/>
</g>
<mask id="mask14_654_297" style="mask-type:luminance" maskUnits="userSpaceOnUse" x="145" y="194" width="42" height="29">
<path d="M155.723 197.392C154.023 199.876 151.755 203.181 149.982 205.617C148.632 207.486 146.461 209.766 145.544 211.876C145.098 212.913 144.76 214.843 147.534 216.206C168.857 224.117 168.857 224.117 172.957 220.813C180.857 213.528 185.319 208.379 185.814 207.655C186.585 206.509 187.55 204.399 185.307 203.157C177.962 200.431 170.666 197.609 163.333 194.871C163.044 194.763 162.646 194.654 162.344 194.594C162.127 194.557 161.765 194.497 161.307 194.497C159.944 194.497 157.737 194.943 155.723 197.392Z" fill="white"/>
</mask>
<g mask="url(#mask14_654_297)">
<path d="M170.919 173.645L201.987 212.6L161.391 244.97L130.324 206.003L170.919 173.645Z" fill="url(#paint14_linear_654_297)"/>
</g>
<mask id="mask15_654_297" style="mask-type:luminance" maskUnits="userSpaceOnUse" x="174" y="207" width="31" height="23">
<path d="M188.937 209.934C183.956 215.217 182.943 216.121 176.406 222.007C176.201 222.2 175.912 222.429 175.731 222.646C173.946 224.696 174.453 225.384 175.092 225.77C179.132 227.265 180.495 227.928 180.917 228.23C181.279 228.483 181.713 228.966 182.147 229.014C182.183 229.014 182.991 229.074 186.573 226.939C195.763 221.126 200.575 216.833 201.842 215.663C202.698 214.867 204.652 212.901 204.278 212.021C199.514 208.318 196.463 207.04 194.232 207.04C191.904 207.028 190.481 208.427 188.937 209.934Z" fill="white"/>
</mask>
<g mask="url(#mask15_654_297)">
<path d="M192.724 192.049L215.398 220.499L185.886 244.041L163.2 215.591L192.724 192.049Z" fill="url(#paint15_linear_654_297)"/>
</g>
<mask id="mask16_654_297" style="mask-type:luminance" maskUnits="userSpaceOnUse" x="23" y="108" width="8" height="51">
<path d="M25.6282 110.509L25.0493 113.826C24.5066 118.589 24.0845 124.981 23.8795 129.769C24.0242 134.557 24.5066 140.913 24.977 145.677C26.7739 155.144 27.992 157.556 28.4262 158.147C28.5227 158.123 28.6433 158.099 28.7277 158.087C28.8483 157.568 28.8483 157.351 28.8121 156.386C28.6433 152.479 28.6433 152.479 29.9579 139.984C30.0785 138.815 30.2473 135.727 29.2222 132.205C26.7739 124.318 25.7126 118.915 26.2553 109.496C26.2674 109.267 26.2192 108.941 26.0624 108.772C25.8815 109.315 25.8332 109.532 25.6282 110.509Z" fill="white"/>
</mask>
<g mask="url(#mask16_654_297)">
<path d="M27.775 105.661L54.3318 138.959L26.3639 161.259L-0.192932 127.96L27.775 105.661Z" fill="url(#paint16_linear_654_297)"/>
</g>
<mask id="mask17_654_297" style="mask-type:luminance" maskUnits="userSpaceOnUse" x="31" y="144" width="25" height="47">
<path d="M32.3699 146.34C29.6564 161.958 32.0443 166.155 33.974 169.532C35.8313 172.306 38.4001 175.948 40.5348 178.517C53.4876 194.051 53.9097 190.011 54.0665 188.491C54.1509 183.522 55.6102 178.722 55.8152 173.765C55.8635 172.692 55.6705 169.87 52.8725 166.77C43.4172 157.291 41.186 153.974 35.783 145.93C35.6262 145.701 35.4453 145.387 35.2524 145.194C34.6614 144.603 34.1911 144.374 33.8051 144.374C33.0453 144.35 32.6353 145.339 32.3699 146.34Z" fill="white"/>
</mask>
<g mask="url(#mask17_654_297)">
<path d="M45.6845 131.566L80.0927 174.73L39.8353 206.811L5.43921 163.659L45.6845 131.566Z" fill="url(#paint17_linear_654_297)"/>
</g>
<mask id="mask18_654_297" style="mask-type:luminance" maskUnits="userSpaceOnUse" x="59" y="177" width="36" height="38">
<path d="M60.9167 179.096C57.5157 194.569 59.3248 196.029 63.2805 199.249C89.2706 217.629 90.2957 214.602 90.8987 212.793C91.2726 210.815 91.8153 208.186 92.4304 206.268C93.0093 204.471 94.1188 202.131 94.2997 200.25C94.3842 199.321 94.2153 196.921 90.754 194.557C79.6705 187.984 74.4846 184.33 72.772 183.064C70.565 181.436 67.8273 178.939 65.3911 177.673C64.764 177.347 64.0404 177.082 63.3529 177.082C62.376 177.094 61.4715 177.601 60.9167 179.096Z" fill="white"/>
</mask>
<g mask="url(#mask18_654_297)">
<path d="M80.0565 159.124L114.139 201.878L71.8434 235.599L37.7488 192.845L80.0565 159.124Z" fill="url(#paint18_linear_654_297)"/>
</g>
<mask id="mask19_654_297" style="mask-type:luminance" maskUnits="userSpaceOnUse" x="96" y="202" width="38" height="28">
<path d="M100.161 204.278C95.4696 216.604 95.1802 217.822 100.378 220.572C124.559 231.414 125.295 230.558 127.032 228.483C129.19 225.13 132.193 222.332 133.616 218.497C133.966 217.557 134.099 215.76 131.12 214.228C120.519 209.814 115.237 207.317 113.452 206.449C111.064 205.291 108 203.446 105.48 202.638C105.046 202.493 104.346 202.324 103.574 202.324C102.392 202.324 101.041 202.734 100.161 204.278Z" fill="white"/>
</mask>
<g mask="url(#mask19_654_297)">
<path d="M118.987 183.353L148.294 220.113L110.304 250.397L80.9972 213.637L118.987 183.353Z" fill="url(#paint19_linear_654_297)"/>
</g>
<mask id="mask20_654_297" style="mask-type:luminance" maskUnits="userSpaceOnUse" x="131" y="219" width="34" height="19">
<path d="M138.477 221.138C130.215 231.993 130.215 231.993 133.448 233.259C148.861 237.987 148.861 237.987 152.25 236.286C158.907 232.403 162.959 229.147 163.261 228.845C164.009 228.121 164.985 226.771 163.164 225.902C155.494 223.394 151.707 222.055 150.429 221.597C148.499 220.897 146.002 219.727 143.988 219.341C143.759 219.293 143.373 219.245 142.879 219.245C141.721 219.245 139.972 219.559 138.477 221.138Z" fill="white"/>
</mask>
<g mask="url(#mask20_654_297)">
<path d="M151.478 202.288L174.127 230.702L143.723 254.943L121.074 226.529L151.478 202.288Z" fill="url(#paint20_linear_654_297)"/>
</g>
<mask id="mask21_654_297" style="mask-type:luminance" maskUnits="userSpaceOnUse" x="152" y="228" width="26" height="11">
<path d="M165.685 230.292C160.607 233.705 159.088 234.501 154.589 236.877C153.504 237.444 152.913 237.842 152.828 238.288C152.889 238.373 153.009 238.445 153.106 238.481C154.42 238.734 154.42 238.734 155.868 238.976C159.486 238.252 159.908 238.143 165.021 236.805C170.533 235.056 174.453 233.319 174.489 233.307C177.178 232.077 177.456 231.631 177.612 231.366C175.96 230.063 171.413 228.519 170.81 228.459C170.762 228.459 170.702 228.447 170.605 228.447C170.014 228.435 168.338 228.616 165.685 230.292Z" fill="white"/>
</mask>
<g mask="url(#mask21_654_297)">
<path d="M167.988 216.35L182.762 234.875L162.465 251.06L147.691 232.535L167.988 216.35Z" fill="url(#paint21_linear_654_297)"/>
</g>
<mask id="mask22_654_297" style="mask-type:luminance" maskUnits="userSpaceOnUse" x="33" y="172" width="28" height="39">
<path d="M33.2745 172.294C33.2504 172.776 33.3107 172.969 33.5398 173.85C34.7458 177.106 36.6031 181.339 38.1469 184.451L40.3418 188.165C42.0062 190.795 44.4182 194.172 46.2032 196.728C56.8524 209.657 60.6876 210.923 60.7117 210.923C60.6756 210.622 60.6153 210.489 60.2173 209.838C58.7097 207.45 58.7097 207.45 55.1761 198.477C54.8384 197.609 53.7409 195.305 50.9911 192.592C42.5851 184.656 39.4373 180.736 34.2634 173.006C34.0946 172.752 33.8172 172.451 33.588 172.246C33.5036 172.258 33.371 172.282 33.2745 172.294Z" fill="white"/>
</mask>
<g mask="url(#mask22_654_297)">
<path d="M50.0504 158.859L79.5741 195.896L43.9238 224.31L14.4001 187.273L50.0504 158.859Z" fill="url(#paint22_linear_654_297)"/>
</g>
<mask id="mask23_654_297" style="mask-type:luminance" maskUnits="userSpaceOnUse" x="60" y="201" width="34" height="29">
<path d="M60.2775 203.06C63.1961 213.432 67.0193 216.037 70.3961 218.34C83.554 226.553 91.1037 229.4 91.1761 229.436C92.7439 230.015 93.3228 229.858 92.8887 228.965C91.4414 226.421 91.2364 223.478 90.3078 220.776C90.0786 220.113 89.2103 218.389 86.0263 216.507C74.8826 210.489 71.3489 208.065 63.5941 202.746C63.3529 202.577 63.0514 202.36 62.7861 202.228C61.978 201.806 61.4233 201.649 61.0373 201.649C60.0966 201.649 60.2293 202.65 60.2775 203.06Z" fill="white"/>
</mask>
<g mask="url(#mask23_654_297)">
<path d="M80.4062 185.452L107.144 218.992L73.0012 246.212L46.2634 212.672L80.4062 185.452Z" fill="url(#paint23_linear_654_297)"/>
</g>
<mask id="mask24_654_297" style="mask-type:luminance" maskUnits="userSpaceOnUse" x="95" y="222" width="29" height="18">
<path d="M95.747 223.828C96.35 231.583 98.943 232.584 102.513 233.959C103.297 234.236 121.821 240.616 122.256 238.855C122.268 237.155 123.51 235.816 123.655 234.152C123.703 233.621 123.413 232.572 120.929 231.546C112.137 228.423 107.59 226.529 106.034 225.866C103.972 224.974 101.283 223.587 99.136 222.923C98.6415 222.767 97.9902 222.622 97.3993 222.622C96.5912 222.646 95.8917 222.911 95.747 223.828Z" fill="white"/>
</mask>
<g mask="url(#mask24_654_297)">
<path d="M112.837 209.018L132.471 233.633L106.613 254.244L86.9912 229.629L112.837 209.018Z" fill="url(#paint24_linear_654_297)"/>
</g>
<mask id="mask25_654_297" style="mask-type:luminance" maskUnits="userSpaceOnUse" x="125" y="234" width="21" height="7">
<path d="M127.659 235.768C124.921 240.073 125.102 240.097 127.996 240.543C129.54 240.712 131.614 240.881 133.17 240.966L134.051 240.978C135.655 240.99 135.655 240.99 138.887 240.905L139.936 240.857C142.867 240.483 144.386 239.989 145.146 239.639C145.58 239.434 146.461 238.927 145.231 238.541C140.105 237.408 137.017 236.551 136.185 236.31C134.714 235.888 132.772 235.177 131.265 234.935C130.963 234.887 130.589 234.851 130.191 234.851C129.323 234.863 128.322 235.056 127.659 235.768Z" fill="white"/>
</mask>
<g mask="url(#mask25_654_297)">
<path d="M138.103 224.359L149.464 238.614L133.303 251.494L121.942 237.239L138.103 224.359Z" fill="url(#paint25_linear_654_297)"/>
</g>
<mask id="mask26_654_297" style="mask-type:luminance" maskUnits="userSpaceOnUse" x="0" y="0" width="241" height="253">
<path d="M0 126.272C0 196.029 56.563 252.592 126.332 252.592C152.804 252.592 177.359 244.451 197.657 230.521C195.317 231.293 193.182 232.403 191.084 233.585C163.586 248.889 134.268 252.797 104.201 244.487C59.771 232.222 30.4644 203.217 19.2483 158.485C8.22515 114.441 20.2493 75.5218 52.4866 43.6825C78.1871 18.3076 110.569 6.78997 145.52 13.1216C168.688 17.3066 190.071 30.4403 205.05 50.6896C205.388 51.1479 205.725 51.5941 206.075 52.0403C207.245 53.572 207.643 55.2001 205.87 56.4424C204.001 57.769 203.783 55.4052 202.855 54.7298C198.525 51.5579 194.461 47.9881 189.938 45.1177C153.757 22.1669 127.996 22.1669 127.996 22.1669C124.692 44.5268 140.491 74.8103 163.164 79.7309C175.092 82.3118 187.225 82.8183 199.394 83.0836C213.987 83.4213 228.133 85.2183 239.663 97.0857C240.206 94.6013 240.531 92.1651 240.688 89.7651C241.508 77.6806 237.866 65.7409 231.1 55.7067C211.84 27.1599 181.231 6.91057 145.749 1.42312C138.38 0.771862 130.999 0.277388 123.594 0.0241212C123.245 0.0120609 122.919 0 122.581 0C54.561 1.96583 0 57.7449 0 126.272Z" fill="white"/>
</mask>
<g mask="url(#mask26_654_297)">
<path d="M241.532 0.012085H0V252.797H241.532V0.012085Z" fill="url(#paint26_linear_654_297)"/>
</g>
<path d="M317.7 117.5C313.033 117.5 308.65 116.683 304.55 115.05C300.483 113.383 296.9 110.95 293.8 107.75C290.733 104.55 288.333 100.633 286.6 96C284.867 91.3333 284 86 284 80C284 72.1333 285.467 65.4167 288.4 59.85C291.333 54.25 295.35 49.9667 300.45 47C305.55 44 311.3 42.5 317.7 42.5C326.567 42.5 333.583 44.5667 338.75 48.7C343.95 52.8 347.467 58.5667 349.3 66L337 67.95C335.633 63.6833 333.4 60.2833 330.3 57.75C327.2 55.1833 323.25 53.9 318.45 53.9C313.617 53.8333 309.6 54.8833 306.4 57.05C303.2 59.2167 300.783 62.2667 299.15 66.2C297.55 70.1333 296.75 74.7333 296.75 80C296.75 85.2667 297.55 89.85 299.15 93.75C300.75 97.6167 303.15 100.633 306.35 102.8C309.583 104.967 313.617 106.083 318.45 106.15C322.083 106.183 325.267 105.533 328 104.2C330.733 102.833 332.967 100.783 334.7 98.05C336.433 95.2833 337.6 91.8333 338.2 87.7H325.5V78.25H351C351.067 78.7833 351.117 79.5667 351.15 80.6C351.183 81.6333 351.2 82.25 351.2 82.45C351.2 89.25 349.85 95.3 347.15 100.6C344.483 105.867 340.65 110 335.65 113C330.65 116 324.667 117.5 317.7 117.5ZM361.242 116V62H371.892V75.15L370.592 73.45C371.259 71.65 372.142 70.0167 373.242 68.55C374.376 67.05 375.726 65.8167 377.292 64.85C378.626 63.95 380.092 63.25 381.692 62.75C383.326 62.2167 384.992 61.9 386.692 61.8C388.392 61.6667 390.042 61.7333 391.642 62V73.25C390.042 72.7833 388.192 72.6333 386.092 72.8C384.026 72.9667 382.159 73.55 380.492 74.55C378.826 75.45 377.459 76.6 376.392 78C375.359 79.4 374.592 81 374.092 82.8C373.592 84.5667 373.342 86.4833 373.342 88.55V116H361.242ZM424.757 117.5C419.29 117.5 414.49 116.317 410.357 113.95C406.224 111.583 402.99 108.3 400.657 104.1C398.357 99.9 397.207 95.0667 397.207 89.6C397.207 83.7 398.34 78.5833 400.607 74.25C402.874 69.8833 406.024 66.5 410.057 64.1C414.09 61.7 418.757 60.5 424.057 60.5C429.657 60.5 434.407 61.8167 438.307 64.45C442.24 67.05 445.157 70.7333 447.057 75.5C448.957 80.2667 449.674 85.8833 449.207 92.35H437.257V87.95C437.224 82.0833 436.19 77.8 434.157 75.1C432.124 72.4 428.924 71.05 424.557 71.05C419.624 71.05 415.957 72.5833 413.557 75.65C411.157 78.6833 409.957 83.1333 409.957 89C409.957 94.4667 411.157 98.7 413.557 101.7C415.957 104.7 419.457 106.2 424.057 106.2C427.024 106.2 429.574 105.55 431.707 104.25C433.874 102.917 435.54 101 436.707 98.5L448.607 102.1C446.54 106.967 443.34 110.75 439.007 113.45C434.707 116.15 429.957 117.5 424.757 117.5ZM406.157 92.35V83.25H443.307V92.35H406.157ZM484.913 117.5C479.447 117.5 474.647 116.317 470.513 113.95C466.38 111.583 463.147 108.3 460.813 104.1C458.513 99.9 457.363 95.0667 457.363 89.6C457.363 83.7 458.497 78.5833 460.763 74.25C463.03 69.8833 466.18 66.5 470.213 64.1C474.247 61.7 478.913 60.5 484.213 60.5C489.813 60.5 494.563 61.8167 498.463 64.45C502.397 67.05 505.313 70.7333 507.213 75.5C509.113 80.2667 509.83 85.8833 509.363 92.35H497.413V87.95C497.38 82.0833 496.347 77.8 494.313 75.1C492.28 72.4 489.08 71.05 484.713 71.05C479.78 71.05 476.113 72.5833 473.713 75.65C471.313 78.6833 470.113 83.1333 470.113 89C470.113 94.4667 471.313 98.7 473.713 101.7C476.113 104.7 479.613 106.2 484.213 106.2C487.18 106.2 489.73 105.55 491.863 104.25C494.03 102.917 495.697 101 496.863 98.5L508.763 102.1C506.697 106.967 503.497 110.75 499.163 113.45C494.863 116.15 490.113 117.5 484.913 117.5ZM466.313 92.35V83.25H503.463V92.35H466.313ZM556.405 116V90C556.405 88.3 556.288 86.4167 556.055 84.35C555.821 82.2833 555.271 80.3 554.405 78.4C553.571 76.4667 552.305 74.8833 550.605 73.65C548.938 72.4167 546.671 71.8 543.805 71.8C542.271 71.8 540.755 72.05 539.255 72.55C537.755 73.05 536.388 73.9167 535.155 75.15C533.955 76.35 532.988 78.0167 532.255 80.15C531.521 82.25 531.155 84.95 531.155 88.25L524.005 85.2C524.005 80.6 524.888 76.4333 526.655 72.7C528.455 68.9667 531.088 66 534.555 63.8C538.021 61.5667 542.288 60.45 547.355 60.45C551.355 60.45 554.655 61.1167 557.255 62.45C559.855 63.7833 561.921 65.4833 563.455 67.55C564.988 69.6167 566.121 71.8167 566.855 74.15C567.588 76.4833 568.055 78.7 568.255 80.8C568.488 82.8667 568.605 84.55 568.605 85.85V116H556.405ZM518.955 116V62H529.705V78.75H531.155V116H518.955ZM592.995 116V55.3H569.695V44H628.345V55.3H605.045V116H592.995ZM652.882 117.5C647.415 117.5 642.615 116.317 638.482 113.95C634.349 111.583 631.115 108.3 628.782 104.1C626.482 99.9 625.332 95.0667 625.332 89.6C625.332 83.7 626.465 78.5833 628.732 74.25C630.999 69.8833 634.149 66.5 638.182 64.1C642.215 61.7 646.882 60.5 652.182 60.5C657.782 60.5 662.532 61.8167 666.432 64.45C670.365 67.05 673.282 70.7333 675.182 75.5C677.082 80.2667 677.799 85.8833 677.332 92.35H665.382V87.95C665.349 82.0833 664.315 77.8 662.282 75.1C660.249 72.4 657.049 71.05 652.682 71.05C647.749 71.05 644.082 72.5833 641.682 75.65C639.282 78.6833 638.082 83.1333 638.082 89C638.082 94.4667 639.282 98.7 641.682 101.7C644.082 104.7 647.582 106.2 652.182 106.2C655.149 106.2 657.699 105.55 659.832 104.25C661.999 102.917 663.665 101 664.832 98.5L676.732 102.1C674.665 106.967 671.465 110.75 667.132 113.45C662.832 116.15 658.082 117.5 652.882 117.5ZM634.282 92.35V83.25H671.432V92.35H634.282ZM711.938 117.5C706.372 117.5 701.622 116.267 697.688 113.8C693.755 111.3 690.738 107.9 688.638 103.6C686.572 99.3 685.522 94.4333 685.488 89C685.522 83.4667 686.605 78.5667 688.738 74.3C690.905 70 693.972 66.6333 697.938 64.2C701.905 61.7333 706.622 60.5 712.088 60.5C718.222 60.5 723.405 62.05 727.638 65.15C731.905 68.2167 734.688 72.4167 735.988 77.75L723.988 81C723.055 78.1 721.505 75.85 719.338 74.25C717.172 72.6167 714.705 71.8 711.938 71.8C708.805 71.8 706.222 72.55 704.188 74.05C702.155 75.5167 700.655 77.55 699.688 80.15C698.722 82.75 698.238 85.7 698.238 89C698.238 94.1333 699.388 98.2833 701.688 101.45C703.988 104.617 707.405 106.2 711.938 106.2C715.138 106.2 717.655 105.467 719.488 104C721.355 102.533 722.755 100.417 723.688 97.65L735.988 100.4C734.322 105.9 731.405 110.133 727.238 113.1C723.072 116.033 717.972 117.5 711.938 117.5ZM783.358 116V90C783.358 88.3 783.241 86.4167 783.008 84.35C782.774 82.2833 782.224 80.3 781.358 78.4C780.524 76.4667 779.258 74.8833 777.558 73.65C775.891 72.4167 773.624 71.8 770.758 71.8C769.224 71.8 767.708 72.05 766.208 72.55C764.708 73.05 763.341 73.9167 762.108 75.15C760.908 76.35 759.941 78.0167 759.208 80.15C758.474 82.25 758.108 84.95 758.108 88.25L750.958 85.2C750.958 80.6 751.841 76.4333 753.608 72.7C755.408 68.9667 758.041 66 761.508 63.8C764.974 61.5667 769.241 60.45 774.308 60.45C778.308 60.45 781.608 61.1167 784.208 62.45C786.808 63.7833 788.874 65.4833 790.408 67.55C791.941 69.6167 793.074 71.8167 793.808 74.15C794.541 76.4833 795.008 78.7 795.208 80.8C795.441 82.8667 795.558 84.55 795.558 85.85V116H783.358ZM745.908 116V44H756.658V81.9H758.108V116H745.908ZM828.625 116V44H875.125V55.3H840.675V73.05H869.125V84.35H840.675V104.7H875.125V116H828.625ZM881.121 116L900.871 88.7L881.521 62H895.721L907.871 79.25L919.821 62H934.021L914.671 88.7L934.521 116H920.321L907.871 98.15L895.321 116H881.121ZM968.442 117.5C963.176 117.5 958.759 116.25 955.192 113.75C951.626 111.25 948.942 107.85 947.142 103.55C945.342 99.2167 944.442 94.3667 944.442 89C944.442 83.5667 945.342 78.7 947.142 74.4C948.942 70.1 951.576 66.7167 955.042 64.25C958.542 61.75 962.859 60.5 967.992 60.5C973.092 60.5 977.509 61.75 981.242 64.25C985.009 66.7167 987.926 70.1 989.992 74.4C992.059 78.6667 993.092 83.5333 993.092 89C993.092 94.4 992.076 99.25 990.042 103.55C988.009 107.85 985.142 111.25 981.442 113.75C977.742 116.25 973.409 117.5 968.442 117.5ZM942.392 140V62H953.042V99.9H954.542V140H942.392ZM966.592 106.7C969.726 106.7 972.309 105.917 974.342 104.35C976.376 102.783 977.876 100.667 978.842 98C979.842 95.3 980.342 92.3 980.342 89C980.342 85.7333 979.842 82.7667 978.842 80.1C977.842 77.4 976.292 75.2667 974.192 73.7C972.092 72.1 969.426 71.3 966.192 71.3C963.126 71.3 960.626 72.05 958.692 73.55C956.759 75.0167 955.326 77.0833 954.392 79.75C953.492 82.3833 953.042 85.4667 953.042 89C953.042 92.5 953.492 95.5833 954.392 98.25C955.326 100.917 956.776 103 958.742 104.5C960.742 105.967 963.359 106.7 966.592 106.7ZM1027.96 117.5C1022.56 117.5 1017.85 116.283 1013.81 113.85C1009.78 111.417 1006.65 108.067 1004.41 103.8C1002.21 99.5 1001.11 94.5667 1001.11 89C1001.11 83.3333 1002.25 78.3667 1004.51 74.1C1006.78 69.8333 1009.93 66.5 1013.96 64.1C1018 61.7 1022.66 60.5 1027.96 60.5C1033.4 60.5 1038.13 61.7167 1042.16 64.15C1046.2 66.5833 1049.33 69.95 1051.56 74.25C1053.8 78.5167 1054.91 83.4333 1054.91 89C1054.91 94.6 1053.78 99.55 1051.51 103.85C1049.28 108.117 1046.15 111.467 1042.11 113.9C1038.08 116.3 1033.36 117.5 1027.96 117.5ZM1027.96 106.2C1032.76 106.2 1036.33 104.6 1038.66 101.4C1041 98.2 1042.16 94.0667 1042.16 89C1042.16 83.7667 1040.98 79.6 1038.61 76.5C1036.25 73.3667 1032.7 71.8 1027.96 71.8C1024.73 71.8 1022.06 72.5333 1019.96 74C1017.9 75.4333 1016.36 77.45 1015.36 80.05C1014.36 82.6167 1013.86 85.6 1013.86 89C1013.86 94.2333 1015.05 98.4167 1017.41 101.55C1019.81 104.65 1023.33 106.2 1027.96 106.2Z" fill="black"/>
<path d="M288 214V142H295.35V176L328.2 142H337.6L304.05 176.75L340.35 214H330.75L295.35 178V214H288ZM362.825 215.5C358.758 215.5 355.342 214.767 352.575 213.3C349.842 211.833 347.792 209.883 346.425 207.45C345.058 205.017 344.375 202.367 344.375 199.5C344.375 196.567 344.958 194.067 346.125 192C347.325 189.9 348.942 188.183 350.975 186.85C353.042 185.517 355.425 184.5 358.125 183.8C360.858 183.133 363.875 182.55 367.175 182.05C370.508 181.517 373.758 181.067 376.925 180.7C380.125 180.3 382.925 179.917 385.325 179.55L382.725 181.15C382.825 175.817 381.792 171.867 379.625 169.3C377.458 166.733 373.692 165.45 368.325 165.45C364.625 165.45 361.492 166.283 358.925 167.95C356.392 169.617 354.608 172.25 353.575 175.85L346.425 173.75C347.658 168.917 350.142 165.167 353.875 162.5C357.608 159.833 362.458 158.5 368.425 158.5C373.358 158.5 377.542 159.433 380.975 161.3C384.442 163.133 386.892 165.8 388.325 169.3C388.992 170.867 389.425 172.617 389.625 174.55C389.825 176.483 389.925 178.45 389.925 180.45V214H383.375V200.45L385.275 201.25C383.442 205.883 380.592 209.417 376.725 211.85C372.858 214.283 368.225 215.5 362.825 215.5ZM363.675 209.15C367.108 209.15 370.108 208.533 372.675 207.3C375.242 206.067 377.308 204.383 378.875 202.25C380.442 200.083 381.458 197.65 381.925 194.95C382.325 193.217 382.542 191.317 382.575 189.25C382.608 187.15 382.625 185.583 382.625 184.55L385.425 186C382.925 186.333 380.208 186.667 377.275 187C374.375 187.333 371.508 187.717 368.675 188.15C365.875 188.583 363.342 189.1 361.075 189.7C359.542 190.133 358.058 190.75 356.625 191.55C355.192 192.317 354.008 193.35 353.075 194.65C352.175 195.95 351.725 197.567 351.725 199.5C351.725 201.067 352.108 202.583 352.875 204.05C353.675 205.517 354.942 206.733 356.675 207.7C358.442 208.667 360.775 209.15 363.675 209.15ZM397.941 214V212.45L432.791 166.85H400.541V160H444.891V161.7L410.091 207.15H442.991V214H397.941ZM468.294 215.5C464.227 215.5 460.81 214.767 458.044 213.3C455.31 211.833 453.26 209.883 451.894 207.45C450.527 205.017 449.844 202.367 449.844 199.5C449.844 196.567 450.427 194.067 451.594 192C452.794 189.9 454.41 188.183 456.444 186.85C458.51 185.517 460.894 184.5 463.594 183.8C466.327 183.133 469.344 182.55 472.644 182.05C475.977 181.517 479.227 181.067 482.394 180.7C485.594 180.3 488.394 179.917 490.794 179.55L488.194 181.15C488.294 175.817 487.26 171.867 485.094 169.3C482.927 166.733 479.16 165.45 473.794 165.45C470.094 165.45 466.96 166.283 464.394 167.95C461.86 169.617 460.077 172.25 459.044 175.85L451.894 173.75C453.127 168.917 455.61 165.167 459.344 162.5C463.077 159.833 467.927 158.5 473.894 158.5C478.827 158.5 483.01 159.433 486.444 161.3C489.91 163.133 492.36 165.8 493.794 169.3C494.46 170.867 494.894 172.617 495.094 174.55C495.294 176.483 495.394 178.45 495.394 180.45V214H488.844V200.45L490.744 201.25C488.91 205.883 486.06 209.417 482.194 211.85C478.327 214.283 473.694 215.5 468.294 215.5ZM469.144 209.15C472.577 209.15 475.577 208.533 478.144 207.3C480.71 206.067 482.777 204.383 484.344 202.25C485.91 200.083 486.927 197.65 487.394 194.95C487.794 193.217 488.01 191.317 488.044 189.25C488.077 187.15 488.094 185.583 488.094 184.55L490.894 186C488.394 186.333 485.677 186.667 482.744 187C479.844 187.333 476.977 187.717 474.144 188.15C471.344 188.583 468.81 189.1 466.544 189.7C465.01 190.133 463.527 190.75 462.094 191.55C460.66 192.317 459.477 193.35 458.544 194.65C457.644 195.95 457.194 197.567 457.194 199.5C457.194 201.067 457.577 202.583 458.344 204.05C459.144 205.517 460.41 206.733 462.144 207.7C463.91 208.667 466.244 209.15 469.144 209.15ZM508.36 214L508.41 142H515.81V186L539.91 160H549.71L524.41 187L553.01 214H542.31L515.81 188V214H508.36ZM597.02 214V186.45C597.02 183.45 596.736 180.7 596.17 178.2C595.603 175.667 594.686 173.467 593.42 171.6C592.186 169.7 590.57 168.233 588.57 167.2C586.603 166.167 584.203 165.65 581.37 165.65C578.77 165.65 576.47 166.1 574.47 167C572.503 167.9 570.836 169.2 569.47 170.9C568.136 172.567 567.12 174.6 566.42 177C565.72 179.4 565.37 182.133 565.37 185.2L560.17 184.05C560.17 178.517 561.136 173.867 563.07 170.1C565.003 166.333 567.67 163.483 571.07 161.55C574.47 159.617 578.37 158.65 582.77 158.65C586.003 158.65 588.82 159.15 591.22 160.15C593.653 161.15 595.703 162.5 597.37 164.2C599.07 165.9 600.436 167.85 601.47 170.05C602.503 172.217 603.253 174.533 603.72 177C604.186 179.433 604.42 181.867 604.42 184.3V214H597.02ZM557.97 214V142H564.62V182.65H565.37V214H557.97ZM637.545 215.45C631.211 215.45 625.995 214.083 621.895 211.35C617.828 208.617 615.328 204.817 614.395 199.95L621.895 198.7C622.695 201.767 624.511 204.217 627.345 206.05C630.211 207.85 633.745 208.75 637.945 208.75C642.045 208.75 645.278 207.9 647.645 206.2C650.011 204.467 651.195 202.117 651.195 199.15C651.195 197.483 650.811 196.133 650.045 195.1C649.311 194.033 647.795 193.05 645.495 192.15C643.195 191.25 639.761 190.183 635.195 188.95C630.295 187.617 626.461 186.283 623.695 184.95C620.928 183.617 618.961 182.083 617.795 180.35C616.628 178.583 616.045 176.433 616.045 173.9C616.045 170.833 616.911 168.15 618.645 165.85C620.378 163.517 622.778 161.717 625.845 160.45C628.911 159.15 632.478 158.5 636.545 158.5C640.611 158.5 644.245 159.167 647.445 160.5C650.678 161.8 653.278 163.633 655.245 166C657.211 168.367 658.378 171.117 658.745 174.25L651.245 175.6C650.745 172.433 649.161 169.933 646.495 168.1C643.861 166.233 640.511 165.267 636.445 165.2C632.611 165.1 629.495 165.833 627.095 167.4C624.695 168.933 623.495 170.983 623.495 173.55C623.495 174.983 623.928 176.217 624.795 177.25C625.661 178.25 627.228 179.2 629.495 180.1C631.795 181 635.061 181.983 639.295 183.05C644.261 184.317 648.161 185.65 650.995 187.05C653.828 188.45 655.845 190.1 657.045 192C658.245 193.9 658.845 196.25 658.845 199.05C658.845 204.15 656.945 208.167 653.145 211.1C649.378 214 644.178 215.45 637.545 215.45ZM699.334 214C696.3 214.633 693.3 214.883 690.334 214.75C687.4 214.617 684.767 213.983 682.434 212.85C680.134 211.717 678.384 209.95 677.184 207.55C676.217 205.55 675.684 203.533 675.584 201.5C675.517 199.433 675.484 197.083 675.484 194.45V145H682.784V194.15C682.784 196.417 682.8 198.317 682.834 199.85C682.9 201.35 683.25 202.683 683.884 203.85C685.084 206.083 686.984 207.417 689.584 207.85C692.217 208.283 695.467 208.183 699.334 207.55V214ZM663.934 166.3V160H699.334V166.3H663.934ZM725.423 215.5C721.356 215.5 717.939 214.767 715.173 213.3C712.439 211.833 710.389 209.883 709.023 207.45C707.656 205.017 706.973 202.367 706.973 199.5C706.973 196.567 707.556 194.067 708.723 192C709.923 189.9 711.539 188.183 713.573 186.85C715.639 185.517 718.023 184.5 720.723 183.8C723.456 183.133 726.473 182.55 729.773 182.05C733.106 181.517 736.356 181.067 739.523 180.7C742.723 180.3 745.523 179.917 747.923 179.55L745.323 181.15C745.423 175.817 744.389 171.867 742.223 169.3C740.056 166.733 736.289 165.45 730.923 165.45C727.223 165.45 724.089 166.283 721.523 167.95C718.989 169.617 717.206 172.25 716.173 175.85L709.023 173.75C710.256 168.917 712.739 165.167 716.473 162.5C720.206 159.833 725.056 158.5 731.023 158.5C735.956 158.5 740.139 159.433 743.573 161.3C747.039 163.133 749.489 165.8 750.923 169.3C751.589 170.867 752.023 172.617 752.223 174.55C752.423 176.483 752.523 178.45 752.523 180.45V214H745.973V200.45L747.873 201.25C746.039 205.883 743.189 209.417 739.323 211.85C735.456 214.283 730.823 215.5 725.423 215.5ZM726.273 209.15C729.706 209.15 732.706 208.533 735.273 207.3C737.839 206.067 739.906 204.383 741.473 202.25C743.039 200.083 744.056 197.65 744.523 194.95C744.923 193.217 745.139 191.317 745.173 189.25C745.206 187.15 745.223 185.583 745.223 184.55L748.023 186C745.523 186.333 742.806 186.667 739.873 187C736.973 187.333 734.106 187.717 731.273 188.15C728.473 188.583 725.939 189.1 723.673 189.7C722.139 190.133 720.656 190.75 719.223 191.55C717.789 192.317 716.606 193.35 715.673 194.65C714.773 195.95 714.323 197.567 714.323 199.5C714.323 201.067 714.706 202.583 715.473 204.05C716.273 205.517 717.539 206.733 719.273 207.7C721.039 208.667 723.373 209.15 726.273 209.15ZM804.539 214V186.45C804.539 183.45 804.256 180.7 803.689 178.2C803.122 175.667 802.206 173.467 800.939 171.6C799.706 169.7 798.089 168.233 796.089 167.2C794.122 166.167 791.722 165.65 788.889 165.65C786.289 165.65 783.989 166.1 781.989 167C780.022 167.9 778.356 169.2 776.989 170.9C775.656 172.567 774.639 174.6 773.939 177C773.239 179.4 772.889 182.133 772.889 185.2L767.689 184.05C767.689 178.517 768.656 173.867 770.589 170.1C772.522 166.333 775.189 163.483 778.589 161.55C781.989 159.617 785.889 158.65 790.289 158.65C793.522 158.65 796.339 159.15 798.739 160.15C801.172 161.15 803.222 162.5 804.889 164.2C806.589 165.9 807.956 167.85 808.989 170.05C810.022 172.217 810.772 174.533 811.239 177C811.706 179.433 811.939 181.867 811.939 184.3V214H804.539ZM765.489 214V160H772.139V173.3H772.889V214H765.489Z" fill="black"/>
<defs>
<linearGradient id="paint0_linear_654_297" x1="176.957" y1="150.552" x2="185.802" y2="150.552" gradientUnits="userSpaceOnUse">
<stop stop-color="#FEC001"/>
<stop offset="1" stop-color="#FB6F06"/>
</linearGradient>
<linearGradient id="paint1_linear_654_297" x1="71.4087" y1="100.557" x2="247.175" y2="100.557" gradientUnits="userSpaceOnUse">
<stop stop-color="#FEC001"/>
<stop offset="1" stop-color="#FB6F06"/>
</linearGradient>
<linearGradient id="paint2_linear_654_297" x1="76.2214" y1="72.0513" x2="199.998" y2="227.309" gradientUnits="userSpaceOnUse">
<stop stop-color="#49A4E9"/>
<stop offset="1" stop-color="#161D81"/>
</linearGradient>
<linearGradient id="paint3_linear_654_297" x1="58.2443" y1="86.3687" x2="182.021" y2="241.626" gradientUnits="userSpaceOnUse">
<stop stop-color="#49A4E9"/>
<stop offset="1" stop-color="#161D81"/>
</linearGradient>
<linearGradient id="paint4_linear_654_297" x1="52.2906" y1="91.1163" x2="176.067" y2="246.374" gradientUnits="userSpaceOnUse">
<stop stop-color="#49A4E9"/>
<stop offset="1" stop-color="#161D81"/>
</linearGradient>
<linearGradient id="paint5_linear_654_297" x1="58.4682" y1="86.2044" x2="182.245" y2="241.462" gradientUnits="userSpaceOnUse">
<stop stop-color="#49A4E9"/>
<stop offset="1" stop-color="#161D81"/>
</linearGradient>
<linearGradient id="paint6_linear_654_297" x1="73.0363" y1="74.6046" x2="196.813" y2="229.862" gradientUnits="userSpaceOnUse">
<stop stop-color="#49A4E9"/>
<stop offset="1" stop-color="#161D81"/>
</linearGradient>
<linearGradient id="paint7_linear_654_297" x1="90.5271" y1="60.9377" x2="214.317" y2="216.211" gradientUnits="userSpaceOnUse">
<stop stop-color="#49A4E9"/>
<stop offset="1" stop-color="#161D81"/>
</linearGradient>
<linearGradient id="paint8_linear_654_297" x1="100.864" y1="52.4054" x2="224.641" y2="207.663" gradientUnits="userSpaceOnUse">
<stop stop-color="#49A4E9"/>
<stop offset="1" stop-color="#161D81"/>
</linearGradient>
<linearGradient id="paint9_linear_654_297" x1="54.0227" y1="89.7649" x2="177.799" y2="245.022" gradientUnits="userSpaceOnUse">
<stop stop-color="#49A4E9"/>
<stop offset="1" stop-color="#161D81"/>
</linearGradient>
<linearGradient id="paint10_linear_654_297" x1="34.4932" y1="105.312" x2="158.27" y2="260.569" gradientUnits="userSpaceOnUse">
<stop stop-color="#49A4E9"/>
<stop offset="1" stop-color="#161D81"/>
</linearGradient>
<linearGradient id="paint11_linear_654_297" x1="26.9052" y1="111.357" x2="150.682" y2="266.615" gradientUnits="userSpaceOnUse">
<stop stop-color="#49A4E9"/>
<stop offset="1" stop-color="#161D81"/>
</linearGradient>
<linearGradient id="paint12_linear_654_297" x1="33.4998" y1="106.098" x2="157.277" y2="261.355" gradientUnits="userSpaceOnUse">
<stop stop-color="#49A4E9"/>
<stop offset="1" stop-color="#161D81"/>
</linearGradient>
<linearGradient id="paint13_linear_654_297" x1="47.9935" y1="94.5722" x2="171.77" y2="249.83" gradientUnits="userSpaceOnUse">
<stop stop-color="#49A4E9"/>
<stop offset="1" stop-color="#161D81"/>
</linearGradient>
<linearGradient id="paint14_linear_654_297" x1="64.222" y1="81.6135" x2="187.999" y2="236.871" gradientUnits="userSpaceOnUse">
<stop stop-color="#49A4E9"/>
<stop offset="1" stop-color="#161D81"/>
</linearGradient>
<linearGradient id="paint15_linear_654_297" x1="74.0987" y1="73.75" x2="197.875" y2="229.008" gradientUnits="userSpaceOnUse">
<stop stop-color="#49A4E9"/>
<stop offset="1" stop-color="#161D81"/>
</linearGradient>
<linearGradient id="paint16_linear_654_297" x1="16.1624" y1="119.94" x2="139.939" y2="275.197" gradientUnits="userSpaceOnUse">
<stop stop-color="#49A4E9"/>
<stop offset="1" stop-color="#161D81"/>
</linearGradient>
<linearGradient id="paint17_linear_654_297" x1="8.34615" y1="126.176" x2="132.123" y2="281.434" gradientUnits="userSpaceOnUse">
<stop stop-color="#49A4E9"/>
<stop offset="1" stop-color="#161D81"/>
</linearGradient>
<linearGradient id="paint18_linear_654_297" x1="14.8927" y1="120.961" x2="138.67" y2="276.219" gradientUnits="userSpaceOnUse">
<stop stop-color="#49A4E9"/>
<stop offset="1" stop-color="#161D81"/>
</linearGradient>
<linearGradient id="paint19_linear_654_297" x1="29.0285" y1="109.662" x2="152.805" y2="264.919" gradientUnits="userSpaceOnUse">
<stop stop-color="#49A4E9"/>
<stop offset="1" stop-color="#161D81"/>
</linearGradient>
<linearGradient id="paint20_linear_654_297" x1="43.4667" y1="98.1728" x2="167.243" y2="253.43" gradientUnits="userSpaceOnUse">
<stop stop-color="#49A4E9"/>
<stop offset="1" stop-color="#161D81"/>
</linearGradient>
<linearGradient id="paint21_linear_654_297" x1="51.7704" y1="91.5306" x2="175.547" y2="246.788" gradientUnits="userSpaceOnUse">
<stop stop-color="#49A4E9"/>
<stop offset="1" stop-color="#161D81"/>
</linearGradient>
<linearGradient id="paint22_linear_654_297" x1="0.00641107" y1="132.798" x2="123.783" y2="288.056" gradientUnits="userSpaceOnUse">
<stop stop-color="#49A4E9"/>
<stop offset="1" stop-color="#161D81"/>
</linearGradient>
<linearGradient id="paint23_linear_654_297" x1="6.36555" y1="127.755" x2="130.142" y2="283.012" gradientUnits="userSpaceOnUse">
<stop stop-color="#49A4E9"/>
<stop offset="1" stop-color="#161D81"/>
</linearGradient>
<linearGradient id="paint24_linear_654_297" x1="18.8404" y1="117.789" x2="142.617" y2="273.047" gradientUnits="userSpaceOnUse">
<stop stop-color="#49A4E9"/>
<stop offset="1" stop-color="#161D81"/>
</linearGradient>
<linearGradient id="paint25_linear_654_297" x1="31.6626" y1="107.587" x2="155.439" y2="262.845" gradientUnits="userSpaceOnUse">
<stop stop-color="#49A4E9"/>
<stop offset="1" stop-color="#161D81"/>
</linearGradient>
<linearGradient id="paint26_linear_654_297" x1="-0.142352" y1="126.365" x2="240.69" y2="126.365" gradientUnits="userSpaceOnUse">
<stop stop-color="#A9CF37"/>
<stop offset="0.4944" stop-color="#60AF46"/>
<stop offset="1" stop-color="#177262"/>
</linearGradient>
</defs>
</svg>
