<svg width="9152" height="4075" viewBox="0 0 9152 4075" fill="none" xmlns="http://www.w3.org/2000/svg">
<path d="M316.902 2644.3H600.877V655.717H316.902V2644.3Z" fill="url(#paint0_linear_1740_2072)"/>
<path d="M316.902 284.395H600.877V0.210297H316.902V284.395Z" fill="url(#paint1_linear_1740_2072)"/>
<path d="M994.309 655.706V2644.3H1278.26V1065.07C1278.26 1028.51 1288.03 1001.31 1315.45 974.948C1342.66 948.597 1370.72 939.879 1407.49 939.879H2602.43C2639 939.879 2673.41 948.597 2699.78 974.948C2726.13 1001.31 2742.49 1028.51 2742.49 1065.07V2644.3H3026.67V1065.07C3026.67 950.713 2981.61 855.724 2900.19 774.533C2819.01 693.111 2716.77 655.706 2602.43 655.706H994.309Z" fill="url(#paint2_linear_1740_2072)"/>
<path d="M3376.09 -0.00244141V2225.58C3376.09 2339.93 3415.42 2439.61 3495.54 2520.81C3575.88 2602.21 3673.66 2644.3 3790.35 2644.3H4512.59V2360.13H3790.35C3753.79 2360.13 3724.04 2346.52 3697.88 2320.36C3671.54 2293.82 3660.27 2262.35 3660.27 2225.58V939.879H4512.59V655.706H3660.27V-0.00244141H3376.09Z" fill="url(#paint3_linear_1740_2072)"/>
<path d="M5194.65 655.706C5080.1 655.706 4979.97 693.111 4898.57 774.533C4817.59 855.724 4774.87 950.713 4774.87 1065.07V2644.3H5058.82V1065.07C5058.82 1028.51 5072.86 1001.31 5099.42 974.948C5125.57 948.597 5157.88 939.879 5194.65 939.879H6304.36V655.706H5194.65Z" fill="url(#paint4_linear_1740_2072)"/>
<path d="M6932.21 655.706C6817.65 655.706 6722.85 693.111 6641.45 774.533C6560.48 855.724 6523.06 950.713 6523.06 1065.07V2225.58C6523.06 2339.93 6560.48 2439.61 6641.45 2520.81C6722.85 2602.21 6817.65 2644.3 6932.21 2644.3H8127.16C8243.85 2644.3 8347.14 2602.21 8428.54 2520.81C8509.96 2439.61 8555.22 2339.93 8555.22 2225.58V1065.07C8555.22 950.713 8509.96 855.724 8428.54 774.533C8347.14 693.111 8243.85 655.706 8127.16 655.706H6932.21ZM6841.88 2320.36C6815.74 2293.82 6807.24 2262.35 6807.24 2225.58V1065.07C6807.24 1028.51 6815.74 1001.31 6841.88 974.948C6868.25 948.597 6895.46 939.879 6932.21 939.879H8127.16C8163.51 939.879 8200.07 948.597 8226.41 974.948C8252.56 1001.31 8271.05 1028.51 8271.05 1065.07V2225.58C8271.05 2262.35 8252.56 2293.82 8226.41 2320.36C8200.07 2346.52 8163.51 2360.13 8127.16 2360.13H6932.21C6895.46 2360.13 6868.25 2346.52 6841.88 2320.36Z" fill="url(#paint5_linear_1740_2072)"/>
<path d="M617.024 3848.38C617.024 3832.23 614.037 3817.14 607.237 3802.9C600.867 3788.66 591.94 3776.12 580.467 3765.27C569.193 3754.65 555.803 3746.15 540.506 3739.78C524.988 3733.6 508.622 3730.41 491.408 3730.41C465.465 3730.41 444.205 3735.73 427.211 3746.15C409.997 3756.78 396.386 3768.69 386.621 3782.49C376.626 3795.88 369.616 3809.28 365.362 3822.02C361.329 3834.78 358.992 3843.7 358.992 3848.38H617.024ZM653.15 3992.27C634.877 4020.12 612.13 4040.1 585.35 4052C557.93 4064.12 528.383 4070.07 496.081 4070.07C468.231 4070.07 442.938 4065.38 420.4 4056.05C397.885 4046.69 378.334 4033.29 362.177 4016.28C345.811 3999.28 333.479 3979.09 324.982 3955.71C316.264 3932.55 311.801 3906.62 311.801 3878.36C311.801 3851.14 316.474 3825.85 325.202 3802.9C334.118 3779.73 346.66 3759.53 363.015 3742.54C379.392 3725.74 398.524 3712.14 420.4 3702.58C442.519 3692.8 466.964 3688.12 493.524 3688.12C521.374 3688.12 545.807 3692.8 567.066 3702.58C588.535 3712.14 606.19 3725.09 620.628 3741.05C635.087 3757.2 645.931 3775.26 653.15 3795.67C660.589 3816.07 664.193 3836.91 664.193 3857.74V3890.88H358.992C358.992 3900.89 361.108 3913.64 364.932 3928.94C368.977 3944.45 376.196 3959.55 386.621 3974.21C397.025 3988.88 411.066 4001.42 428.92 4012.05C446.344 4022.46 469.08 4027.77 496.499 4027.77C520.944 4027.77 544.33 4021.82 566.857 4010.34C589.383 3998.86 606.598 3983.14 618.71 3963.16L653.15 3992.27Z" fill="#034693"/>
<path d="M862.513 3864.1L732.643 3697.47H793.224L893.966 3834.99L993.65 3697.47H1052.74L924.582 3864.1L1080.37 4060.71H1018.74L892.269 3896.42L767.932 4060.71H711.395L862.513 3864.1Z" fill="#034693"/>
<path d="M1147.77 3466.2H1195.17V3761.01H1196.67C1206 3741.25 1221.74 3724.03 1244.04 3709.57C1265.73 3695.11 1291.44 3687.89 1320.77 3687.89C1349.05 3687.89 1372.22 3692.36 1390.07 3701.29C1407.92 3710.21 1421.95 3721.9 1432.16 3736.37C1442.14 3750.8 1449.58 3767.39 1453.41 3786.3C1457.23 3805.22 1459.15 3824.57 1459.15 3844.34V4060.7H1411.97V3846.87C1411.97 3832.21 1410.9 3817.96 1408.14 3803.95C1405.59 3790.14 1400.91 3777.58 1394.53 3766.54C1387.95 3755.49 1378.81 3746.99 1366.68 3740.39C1355 3733.8 1339.69 3730.4 1320.77 3730.4C1303.57 3730.4 1287.19 3733.59 1271.89 3739.55C1256.17 3745.49 1242.99 3754.64 1231.72 3766.96C1220.46 3779.29 1211.32 3794.8 1204.94 3813.29C1198.35 3831.99 1195.17 3853.89 1195.17 3878.97V4060.7H1147.77V3466.2Z" fill="#034693"/>
<path d="M1593.04 3697.46H1640.01V4060.49H1593.04V3697.46ZM1581.13 3553.57C1581.13 3543.58 1584.54 3535.08 1591.55 3528.27C1598.14 3521.48 1606.64 3518.09 1616.63 3518.09C1626.42 3518.09 1635.12 3521.48 1641.49 3528.27C1648.51 3535.08 1651.91 3543.58 1651.91 3553.57C1651.91 3563.35 1648.51 3571.86 1641.49 3578.66C1635.12 3585.46 1626.42 3588.86 1616.63 3588.86C1606.64 3588.86 1598.14 3585.46 1591.55 3578.66C1584.54 3571.86 1581.13 3563.35 1581.13 3553.57Z" fill="#034693"/>
<path d="M1806 3879.2C1806 3899.61 1809.82 3918.95 1817.89 3937.01C1825.55 3954.87 1836.39 3970.6 1849.79 3983.98C1863.6 3997.38 1879.75 4008.01 1898.03 4015.87C1916.3 4023.73 1936.28 4027.77 1957.96 4027.77C1979.85 4027.77 1999.62 4023.73 2017.7 4015.87C2035.34 4008.01 2050.64 3997.38 2063.18 3983.98C2075.72 3970.6 2085.28 3954.87 2091.87 3937.01C2098.46 3918.95 2101.64 3899.61 2101.64 3879.2C2101.64 3858.59 2098.46 3839.45 2091.87 3821.17C2085.28 3803.11 2075.72 3787.38 2063.18 3773.99C2050.64 3760.81 2035.34 3750.19 2017.7 3742.11C1999.62 3734.25 1979.85 3730.41 1957.96 3730.41C1936.28 3730.41 1916.3 3734.25 1898.03 3742.11C1879.75 3750.19 1863.6 3760.81 1849.79 3773.99C1836.39 3787.38 1825.55 3803.11 1817.89 3821.17C1809.82 3839.45 1806 3858.59 1806 3879.2ZM1763.49 3466.21H1810.67V3761.02H1812.38C1819.82 3748.49 1828.73 3737.64 1840.01 3728.5C1850.84 3719.37 1862.74 3711.71 1875.7 3705.76C1888.45 3699.6 1902.08 3695.14 1916.09 3692.16C1930.33 3689.39 1944.14 3688.12 1957.96 3688.12C1985.6 3688.12 2011.11 3692.58 2034.48 3702.16C2057.87 3711.5 2077.84 3724.89 2094.84 3741.9C2112.06 3758.9 2125.25 3779.09 2134.58 3802.26C2143.95 3825.85 2149.05 3851.14 2149.05 3879.2C2149.05 3906.84 2143.95 3932.55 2134.58 3955.71C2125.25 3979.09 2112.06 3999.28 2094.84 4016.28C2077.84 4033.29 2057.87 4046.69 2034.48 4056.05C2011.11 4065.39 1985.6 4070.07 1957.96 4070.07C1944.14 4070.07 1930.33 4068.79 1916.09 4065.82C1902.08 4063.06 1888.45 4058.38 1875.7 4052.43C1862.74 4046.48 1850.84 4038.82 1840.01 4029.67C1828.73 4020.34 1819.82 4009.71 1812.38 3997.16H1810.67V4060.72H1763.49V3466.21Z" fill="#034693"/>
<path d="M2262.13 3697.46H2309.31V4060.49H2262.13V3697.46ZM2250.23 3553.57C2250.23 3543.58 2253.84 3535.08 2260.43 3528.27C2267.44 3521.48 2275.73 3518.09 2285.72 3518.09C2295.71 3518.09 2304.22 3521.48 2310.8 3528.27C2317.82 3535.08 2321 3543.58 2321 3553.57C2321 3563.35 2317.82 3571.86 2310.8 3578.66C2304.22 3585.46 2295.71 3588.86 2285.72 3588.86C2275.73 3588.86 2267.44 3585.46 2260.43 3578.66C2253.84 3571.86 2250.23 3563.35 2250.23 3553.57Z" fill="#034693"/>
<path d="M2620.72 3739.77H2516.78V3976.53C2516.78 3992.91 2521.25 4005.44 2530.17 4014.38C2539.1 4023.3 2551.42 4027.77 2567.16 4027.77C2576.29 4027.77 2585.01 4026.49 2594.36 4024.16C2603.5 4021.82 2612.42 4018.63 2620.72 4015.23L2624.54 4057.51C2615.62 4060.71 2605.41 4063.48 2594.16 4066.23C2582.45 4068.79 2572.26 4070.07 2563.54 4070.07C2546.55 4070.07 2532.09 4067.73 2520.19 4062.63C2508.06 4057.73 2498.29 4051.14 2490.85 4042.64C2483.63 4034.35 2478.31 4024.35 2474.69 4013.1C2471.29 4002.05 2469.81 3989.72 2469.81 3976.53V3739.77H2391.16V3697.46H2469.81V3592.9H2516.78V3697.46H2620.72V3739.77Z" fill="#034693"/>
<path d="M2713.38 3697.46H2760.78V4060.49H2713.38V3697.46ZM2701.9 3553.57C2701.9 3543.58 2705.3 3535.08 2711.89 3528.27C2718.69 3521.48 2727.4 3518.09 2736.96 3518.09C2746.96 3518.09 2755.46 3521.48 2762.25 3528.27C2769.05 3535.08 2772.47 3543.58 2772.47 3553.57C2772.47 3563.35 2769.05 3571.86 2762.25 3578.66C2755.46 3585.46 2746.96 3588.86 2736.96 3588.86C2727.4 3588.86 2718.69 3585.46 2711.89 3578.66C2705.3 3571.86 2701.9 3563.35 2701.9 3553.57Z" fill="#034693"/>
<path d="M2921.03 3879.2C2921.03 3899.61 2924.21 3918.95 2930.82 3937.01C2937.38 3954.87 2946.96 3970.6 2959.5 3983.98C2972.24 3997.38 2987.55 4008.01 3005.41 4015.87C3023.26 4023.73 3042.82 4027.77 3064.93 4027.77C3087.04 4027.77 3107.01 4023.73 3124.86 4015.87C3142.7 4008.01 3157.8 3997.38 3170.34 3983.98C3183.09 3970.6 3192.66 3954.87 3199.04 3937.01C3205.63 3918.95 3208.82 3899.61 3208.82 3879.2C3208.82 3858.59 3205.63 3839.45 3199.04 3821.17C3192.66 3803.11 3183.09 3787.38 3170.34 3773.99C3157.8 3760.81 3142.7 3750.19 3124.86 3742.11C3107.01 3734.25 3087.04 3730.41 3064.93 3730.41C3042.82 3730.41 3023.26 3734.25 3005.41 3742.11C2987.55 3750.19 2972.24 3760.81 2959.5 3773.99C2946.96 3787.38 2937.38 3803.11 2930.82 3821.17C2924.21 3839.45 2921.03 3858.59 2921.03 3879.2ZM2874.06 3879.2C2874.06 3851.14 2878.53 3825.86 2888.09 3802.26C2897.43 3779.09 2910.63 3758.9 2927.41 3741.9C2944.2 3724.89 2964.39 3711.5 2987.77 3702.16C3011.58 3692.58 3037.29 3688.12 3064.93 3688.12C3092.99 3688.12 3118.26 3692.58 3141.66 3702.16C3165.04 3711.5 3185.43 3724.89 3202.24 3741.9C3219.23 3758.9 3232.41 3779.09 3241.77 3802.26C3251.32 3825.86 3256.21 3851.14 3256.21 3879.2C3256.21 3906.84 3251.32 3932.55 3241.77 3955.71C3232.41 3979.09 3219.23 3999.28 3202.24 4016.28C3185.43 4033.29 3165.04 4046.69 3141.66 4056.05C3118.26 4065.39 3092.99 4070.07 3064.93 4070.07C3037.29 4070.07 3011.58 4065.39 2987.77 4056.05C2964.39 4046.69 2944.2 4033.29 2927.41 4016.28C2910.63 3999.28 2897.43 3979.09 2888.09 3955.71C2878.53 3932.55 2874.06 3906.84 2874.06 3879.2Z" fill="#034693"/>
<path d="M3361.43 3799.71C3361.43 3792.9 3361.21 3784.4 3360.6 3774.83C3360.17 3765.27 3359.74 3755.49 3359.53 3745.5C3359.1 3735.3 3358.89 3725.96 3358.25 3717.45C3357.82 3708.95 3357.6 3702.14 3357.6 3697.47H3404.8C3405.22 3711.07 3405.43 3724.04 3405.85 3736.78C3406.07 3749.33 3406.71 3757.4 3407.99 3761.01H3410.1C3419.67 3741.25 3435.18 3724.04 3457.29 3709.58C3479.4 3695.13 3504.91 3687.89 3534.45 3687.89C3562.73 3687.89 3585.67 3692.38 3603.53 3701.29C3621.38 3710.22 3635.41 3721.9 3645.83 3736.37C3656.02 3750.81 3663.04 3767.39 3667.07 3786.31C3670.9 3805.23 3673.03 3824.57 3673.03 3844.34V4060.71H3625.64V3846.88C3625.64 3832.22 3624.35 3817.97 3621.8 3803.96C3619.05 3790.14 3614.36 3777.59 3607.98 3766.55C3601.39 3755.71 3592.25 3746.77 3580.35 3740.39C3568.67 3733.81 3553.15 3730.41 3534.45 3730.41C3517.23 3730.41 3500.87 3733.59 3485.35 3739.56C3469.83 3745.5 3456.44 3754.64 3445.19 3766.96C3433.91 3779.3 3424.99 3794.81 3418.4 3813.3C3411.81 3832.01 3408.62 3853.9 3408.62 3878.97V4060.71H3361.43V3799.71Z" fill="#034693"/>
<path d="M4182.51 3537C4158.7 3537 4138.93 3544.23 4122.78 3558.68C4106.42 3573.12 4098.13 3592.04 4098.13 3615.64C4098.13 3624.99 4100.25 3634.77 4104.28 3644.75C4108.12 3654.75 4113.22 3664.31 4119.37 3673.87C4125.12 3683.23 4131.91 3692.16 4138.51 3700.67C4145.95 3708.95 4152.32 3716.59 4157.85 3723.4C4169.12 3717.66 4180.59 3711.5 4192.7 3704.48C4204.61 3697.68 4215.66 3689.81 4225.86 3680.89C4235.64 3671.97 4243.93 3661.97 4250.52 3650.5C4257.11 3639.22 4260.3 3626.48 4260.3 3611.81C4260.3 3589.71 4253.06 3571.64 4238.41 3557.82C4223.53 3543.8 4204.81 3537 4182.51 3537ZM4143.81 3781.43C4131.28 3788.87 4118.94 3796.72 4106.62 3805.23C4094.09 3813.73 4083.03 3822.87 4072.84 3833.07C4062.41 3843.28 4054.34 3854.75 4047.97 3867.72C4041.79 3880.47 4038.4 3895.14 4038.4 3911.29C4038.4 3929.15 4041.79 3945.09 4048.38 3959.33C4054.97 3973.57 4063.69 3985.69 4075.16 3995.88C4086.43 4005.88 4099.62 4013.95 4115.13 4019.48C4130.64 4024.79 4147 4027.77 4164.43 4027.77C4179.1 4027.77 4192.7 4025.22 4205.67 4020.76C4218.43 4015.86 4230.33 4009.48 4241.38 4001.84C4252.44 3993.76 4262.64 3984.83 4271.99 3974.41C4281.34 3964.43 4290.26 3953.6 4297.92 3941.9L4143.81 3781.43ZM4323.21 3898.76L4403.55 3754H4457.12L4356.36 3931.91L4482.83 4064.54H4412.91L4329.37 3975.06C4306.85 4005.45 4282.19 4029.67 4254.98 4047.76C4228.2 4065.81 4195.47 4074.96 4156.36 4074.96C4132.77 4074.96 4110.65 4070.91 4090.03 4063.47C4069.22 4055.82 4051.37 4044.98 4036.06 4030.95C4020.96 4016.5 4008.85 3999.71 4000.15 3979.74C3991.22 3959.76 3986.54 3937.44 3986.54 3912.99C3986.54 3891.31 3990.15 3872.4 3997.59 3856.25C4005.03 3839.87 4014.59 3825.63 4026.28 3812.88C4038.18 3800.35 4051.57 3789.09 4066.88 3778.87C4082.17 3768.47 4097.7 3758.68 4114.06 3748.68C4106.2 3739.13 4098.13 3729.14 4090.03 3718.94C4081.74 3708.95 4074.75 3698.11 4068.38 3687.06C4061.98 3676.21 4056.89 3664.74 4052.64 3653.05C4048.38 3641.14 4046.47 3629.03 4046.47 3616.27C4046.47 3596.51 4050.08 3578.65 4057.74 3562.93C4065.39 3547.2 4075.59 3534.01 4088.57 3523.18C4101.1 3512.34 4116.18 3504.26 4133.41 3498.52C4150.2 3492.79 4168.05 3489.8 4186.33 3489.8C4202.7 3489.8 4218.43 3492.79 4233.51 3498.52C4248.82 3504.26 4262.42 3512.34 4273.9 3522.33C4285.8 3532.74 4295.16 3545.07 4301.95 3559.52C4308.54 3573.77 4312.17 3590.13 4312.17 3607.98C4312.17 3627.54 4308.54 3644.97 4301.53 3659.64C4294.51 3674.3 4285.16 3687.49 4273.25 3698.96C4261.57 3710.43 4248.18 3720.86 4233.51 3729.56C4218.86 3738.49 4203.76 3747.21 4188.03 3755.72L4323.21 3898.76Z" fill="#034693"/>
<path d="M5065.42 4007.16C5047.57 4028.84 5027.38 4044.76 5005.06 4054.98C4982.32 4064.95 4958.09 4070.07 4931.73 4070.07C4903.89 4070.07 4878.17 4065.38 4854.79 4056.05C4831.19 4046.69 4810.8 4033.29 4794.22 4016.28C4777.43 3999.28 4764.25 3979.09 4754.89 3955.71C4745.54 3932.54 4740.87 3906.83 4740.87 3879.2C4740.87 3851.14 4745.54 3825.85 4754.89 3802.25C4764.25 3779.09 4777.43 3758.9 4794.22 3741.9C4810.8 3724.89 4831.19 3711.5 4854.79 3702.15C4878.17 3692.58 4903.89 3688.12 4931.73 3688.12C4958.72 3688.12 4983.16 3693.43 5006.12 3704.48C5028.87 3715.33 5049.27 3730.84 5066.91 3751.03L5029.3 3779.3C5015.69 3764.01 5000.6 3752.09 4984.44 3743.6C4968.3 3734.66 4950.85 3730.41 4931.73 3730.41C4909.84 3730.41 4889.85 3734.24 4872 3742.1C4854.15 3750.19 4838.85 3760.8 4826.32 3773.99C4813.98 3787.38 4804.21 3803.1 4797.62 3821.17C4791.24 3839.44 4787.84 3858.59 4787.84 3879.2C4787.84 3899.39 4791.24 3918.95 4797.62 3937.01C4804.21 3954.87 4813.98 3970.6 4826.32 3983.97C4838.85 3997.37 4854.15 4008 4872 4015.87C4889.85 4023.73 4909.84 4027.77 4931.73 4027.77C4951.92 4027.77 4969.99 4023.1 4986.57 4013.95C5003.15 4004.6 5017.38 3992.48 5029.3 3977.39L5065.42 4007.16Z" fill="#034693"/>
<path d="M5166.18 3879.2C5166.18 3899.61 5169.36 3918.95 5175.75 3937.01C5182.55 3954.87 5192.11 3970.6 5204.64 3983.98C5217.18 3997.38 5232.27 4008.01 5250.56 4015.87C5268.2 4023.73 5287.97 4027.77 5310.07 4027.77C5332.19 4027.77 5351.94 4023.73 5369.8 4015.87C5387.65 4008.01 5402.95 3997.38 5415.49 3983.98C5428.04 3970.6 5437.81 3954.87 5444.19 3937.01C5450.57 3918.95 5453.97 3899.61 5453.97 3879.2C5453.97 3858.59 5450.57 3839.45 5444.19 3821.17C5437.81 3803.11 5428.04 3787.38 5415.49 3773.99C5402.95 3760.81 5387.65 3750.19 5369.8 3742.11C5351.94 3734.25 5332.19 3730.41 5310.07 3730.41C5287.97 3730.41 5268.2 3734.25 5250.56 3742.11C5232.27 3750.19 5217.18 3760.81 5204.64 3773.99C5192.11 3787.38 5182.55 3803.11 5175.75 3821.17C5169.36 3839.45 5166.18 3858.59 5166.18 3879.2ZM5118.99 3879.2C5118.99 3851.14 5123.67 3825.86 5133.02 3802.26C5142.58 3779.09 5155.54 3758.9 5172.34 3741.9C5189.35 3724.89 5209.54 3711.5 5232.92 3702.16C5256.51 3692.58 5282.44 3688.12 5310.07 3688.12C5337.92 3688.12 5363.42 3692.58 5386.81 3702.16C5409.97 3711.5 5430.16 3724.89 5447.38 3741.9C5464.38 3758.9 5477.56 3779.09 5486.92 3802.26C5496.48 3825.86 5500.94 3851.14 5500.94 3879.2C5500.94 3906.84 5496.48 3932.55 5486.92 3955.71C5477.56 3979.09 5464.38 3999.28 5447.38 4016.28C5430.16 4033.29 5409.97 4046.69 5386.81 4056.05C5363.42 4065.39 5337.92 4070.07 5310.07 4070.07C5282.44 4070.07 5256.51 4065.39 5232.92 4056.05C5209.54 4046.69 5189.35 4033.29 5172.34 4016.28C5155.54 3999.28 5142.58 3979.09 5133.02 3955.71C5123.67 3932.55 5118.99 3906.84 5118.99 3879.2Z" fill="#034693"/>
<path d="M5606.56 3799.71C5606.56 3792.9 5606.34 3784.4 5605.72 3774.83C5605.08 3765.27 5604.87 3755.49 5604.65 3745.5C5604.23 3735.3 5604.03 3725.96 5603.38 3717.45C5602.74 3708.95 5602.53 3702.14 5602.53 3697.47H5649.71C5650.35 3711.07 5650.78 3724.04 5650.99 3736.78C5651.2 3749.33 5651.84 3757.4 5652.91 3761.01H5655.45C5664.81 3741.25 5680.54 3724.04 5702.63 3709.58C5724.53 3695.13 5750.24 3687.89 5779.57 3687.89C5807.85 3687.89 5831.02 3692.38 5848.66 3701.29C5866.51 3710.22 5880.53 3721.9 5890.74 3736.37C5900.94 3750.81 5908.17 3767.39 5912 3786.31C5916.04 3805.23 5917.95 3824.57 5917.95 3844.34V4060.71H5870.98V3846.88C5870.98 3832.22 5869.48 3817.97 5866.72 3803.96C5864.18 3790.14 5859.5 3777.59 5853.12 3766.55C5846.53 3755.71 5837.39 3746.77 5825.48 3740.39C5813.8 3733.81 5798.28 3730.41 5779.57 3730.41C5762.16 3730.41 5746 3733.59 5730.48 3739.56C5714.97 3745.5 5701.37 3754.64 5690.31 3766.96C5678.84 3779.3 5669.9 3794.81 5663.53 3813.3C5656.94 3832.01 5653.75 3853.9 5653.75 3878.97V4060.71H5606.56V3799.71Z" fill="#034693"/>
<path d="M6070.56 3739.78H5994.89V3697.47H6070.56V3578.66C6070.56 3555.07 6073.97 3535.52 6080.96 3520C6088.2 3504.48 6096.92 3492.15 6107.53 3482.8C6117.96 3473.23 6129.64 3466.43 6142.61 3462.61C6155.16 3458.78 6167.49 3456.87 6179.17 3456.87C6201.06 3456.87 6219.12 3459.85 6233.15 3466.22L6223.81 3507.03C6213.39 3501.92 6199.37 3499.38 6181.5 3499.38C6139 3499.38 6117.74 3531.47 6117.74 3596.09V3697.47H6202.56V3739.78H6117.74V4060.71H6070.56V3739.78Z" fill="#034693"/>
<path d="M6561.1 3848.38C6561.1 3832.23 6557.7 3817.14 6551.33 3802.9C6544.95 3788.66 6535.81 3776.12 6524.55 3765.27C6513.27 3754.65 6499.88 3746.15 6484.36 3739.78C6468.86 3733.6 6452.7 3730.41 6435.27 3730.41C6409.77 3730.41 6388.29 3735.73 6371.29 3746.15C6354.28 3756.78 6340.7 3768.69 6330.7 3782.49C6320.71 3795.88 6313.69 3809.28 6309.66 3822.02C6305.19 3834.78 6303.28 3843.7 6303.28 3848.38H6561.1ZM6597.23 3992.27C6578.96 4020.12 6556.43 4040.1 6529.43 4052C6502.22 4064.12 6472.68 4070.07 6440.16 4070.07C6412.1 4070.07 6387.02 4065.38 6364.71 4056.05C6342.17 4046.69 6322.61 4033.29 6306.48 4016.28C6290.1 3999.28 6277.77 3979.09 6268.85 3955.71C6260.55 3932.55 6256.1 3906.62 6256.1 3878.36C6256.1 3851.14 6260.55 3825.85 6269.48 3802.9C6278.2 3779.73 6290.95 3759.53 6307.32 3742.54C6323.47 3725.74 6342.6 3712.14 6364.71 3702.58C6386.6 3692.8 6411.04 3688.12 6437.61 3688.12C6465.67 3688.12 6489.9 3692.8 6511.36 3702.58C6532.62 3712.14 6550.27 3725.09 6564.51 3741.05C6579.18 3757.2 6590 3775.26 6597.23 3795.67C6604.89 3816.07 6608.5 3836.91 6608.5 3857.74V3890.88H6303.28C6303.28 3900.89 6305.19 3913.64 6309.02 3928.94C6313.06 3944.45 6320.08 3959.55 6330.7 3974.21C6341.33 3988.88 6355.35 4001.42 6372.79 4012.05C6390.43 4022.46 6413.17 4027.77 6440.8 4027.77C6465.02 4027.77 6488.41 4021.82 6510.74 4010.34C6533.25 3998.86 6550.69 3983.14 6562.59 3963.16L6597.23 3992.27Z" fill="#034693"/>
<path d="M6713.74 3799.71C6713.74 3792.9 6713.52 3784.4 6712.88 3774.83C6712.24 3765.27 6712.03 3755.49 6711.81 3745.5C6711.39 3735.3 6710.96 3725.96 6710.55 3717.45C6710.12 3708.95 6709.9 3702.14 6709.9 3697.47H6757.09C6757.52 3711.07 6757.73 3724.04 6757.94 3736.78C6758.37 3749.33 6759.22 3757.4 6760.28 3761.01C6772.18 3739.78 6787.48 3721.9 6806.62 3708.3C6825.31 3694.71 6848.49 3687.89 6875.69 3687.89C6880.58 3687.89 6885.03 3688.33 6889.5 3689.18C6894.18 3690.03 6898.43 3690.88 6903.32 3691.95L6897.8 3738.28C6891.43 3736.15 6885.46 3735.09 6879.73 3735.09C6859.33 3735.09 6841.47 3738.28 6826.38 3744.87C6811.5 3751.68 6799.18 3760.58 6789.61 3772.07C6779.83 3783.76 6772.81 3797.16 6767.93 3812.46C6763.25 3828.19 6760.92 3844.76 6760.92 3862.61V4060.71H6713.74V3799.71Z" fill="#034693"/>
<path d="M7260.21 3848.38C7260.21 3832.23 7257.02 3817.14 7250.64 3802.9C7243.84 3788.66 7235.12 3776.12 7223.65 3765.27C7212.6 3754.65 7198.99 3746.15 7183.69 3739.78C7167.96 3733.6 7151.6 3730.41 7134.37 3730.41C7108.87 3730.41 7087.62 3735.73 7070.19 3746.15C7053.39 3756.78 7039.79 3768.69 7029.8 3782.49C7020.02 3795.88 7013.01 3809.28 7008.55 3822.02C7004.51 3834.78 7002.37 3843.7 7002.37 3848.38H7260.21ZM7296.55 3992.27C7278.05 4020.12 7255.52 4040.1 7228.53 4052C7201.32 4064.12 7171.79 4070.07 7139.05 4070.07C7111.2 4070.07 7086.12 4065.38 7063.59 4056.05C7041.07 4046.69 7021.73 4033.29 7005.58 4016.28C6989.2 3999.28 6976.66 3979.09 6968.16 3955.71C6959.45 3932.55 6955.19 3906.62 6955.19 3878.36C6955.19 3851.14 6959.66 3825.85 6968.39 3802.9C6977.52 3779.73 6989.84 3759.53 7006.21 3742.54C7022.57 3725.74 7041.71 3712.14 7063.59 3702.58C7085.7 3692.8 7110.15 3688.12 7136.71 3688.12C7164.55 3688.12 7189 3692.8 7210.25 3702.58C7231.51 3712.14 7249.36 3725.09 7263.81 3741.05C7278.27 3757.2 7288.91 3775.26 7296.55 3795.67C7303.77 3816.07 7307.38 3836.91 7307.38 3857.74V3890.88H7002.37C7002.37 3900.89 7004.29 3913.64 7008.34 3928.94C7012.16 3944.45 7019.38 3959.55 7029.8 3974.21C7040.43 3988.88 7054.25 4001.42 7071.88 4012.05C7089.31 4022.46 7112.05 4027.77 7139.9 4027.77C7163.93 4027.77 7187.3 4021.82 7209.83 4010.34C7232.37 3998.86 7249.79 3983.14 7261.89 3963.16L7296.55 3992.27Z" fill="#034693"/>
<path d="M7412.8 3799.71C7412.8 3792.9 7412.37 3784.4 7412.15 3774.83C7411.52 3765.27 7411.1 3755.49 7410.89 3745.5C7410.46 3735.3 7410.03 3725.96 7409.61 3717.45C7409.18 3708.95 7408.96 3702.14 7408.96 3697.47H7455.94C7456.58 3711.07 7457.01 3724.04 7457.21 3736.78C7457.43 3749.33 7458.07 3757.4 7459.35 3761.01H7461.47C7471.03 3741.25 7486.77 3724.04 7508.88 3709.58C7530.56 3695.13 7556.49 3687.89 7585.8 3687.89C7614.08 3687.89 7637.25 3692.38 7655.09 3701.29C7672.75 3710.22 7686.99 3721.9 7696.97 3736.37C7707.18 3750.81 7714.41 3767.39 7718.23 3786.31C7722.26 3805.23 7724.18 3824.57 7724.18 3844.34V4060.71H7677V3846.88C7677 3832.22 7675.93 3817.97 7672.96 3803.96C7670.62 3790.14 7665.95 3777.59 7659.35 3766.55C7652.76 3755.71 7643.62 3746.77 7631.94 3740.39C7619.81 3733.81 7604.73 3730.41 7585.8 3730.41C7568.38 3730.41 7552.22 3733.59 7536.72 3739.56C7521.2 3745.5 7507.81 3754.64 7496.55 3766.96C7485.27 3779.3 7476.14 3794.81 7469.77 3813.3C7463.39 3832.01 7459.99 3853.9 7459.99 3878.97V4060.71H7412.8V3799.71Z" fill="#034693"/>
<path d="M8154.35 4007.16C8136.5 4028.84 8116.31 4044.76 8093.78 4054.98C8071.25 4064.95 8046.8 4070.07 8020.45 4070.07C7992.81 4070.07 7967.09 4065.38 7943.51 4056.05C7919.92 4046.69 7899.93 4033.29 7882.92 4016.28C7866.35 3999.28 7853.17 3979.09 7843.61 3955.71C7834.05 3932.54 7829.57 3906.83 7829.57 3879.2C7829.57 3851.14 7834.05 3825.85 7843.61 3802.25C7853.17 3779.09 7866.35 3758.9 7882.92 3741.9C7899.93 3724.89 7919.92 3711.5 7943.51 3702.15C7967.09 3692.58 7992.81 3688.12 8020.45 3688.12C8047.43 3688.12 8072.31 3693.43 8094.84 3704.48C8117.8 3715.33 8138.19 3730.84 8155.85 3751.03L8118.22 3779.3C8104.4 3764.01 8089.74 3752.09 8073.16 3743.6C8057.22 3734.66 8039.57 3730.41 8020.45 3730.41C7998.54 3730.41 7978.78 3734.24 7960.93 3742.1C7943.08 3750.19 7927.77 3760.8 7915.24 3773.99C7902.7 3787.38 7893.14 3803.1 7886.54 3821.17C7879.96 3839.44 7876.55 3858.59 7876.55 3879.2C7876.55 3899.39 7879.96 3918.95 7886.54 3937.01C7893.14 3954.87 7902.7 3970.6 7915.24 3983.97C7927.77 3997.37 7943.08 4008 7960.93 4015.87C7978.78 4023.73 7998.54 4027.77 8020.45 4027.77C8040.42 4027.77 8058.71 4023.1 8075.28 4013.95C8091.86 4004.6 8106.1 3992.48 8118.22 3977.39L8154.35 4007.16Z" fill="#034693"/>
<path d="M8512.92 3848.38C8512.92 3832.23 8509.74 3817.14 8503.15 3802.9C8496.57 3788.66 8487.64 3776.12 8476.16 3765.27C8465.1 3754.65 8451.71 3746.15 8436.21 3739.78C8420.68 3733.6 8404.32 3730.41 8387.11 3730.41C8361.39 3730.41 8339.92 3735.73 8323.11 3746.15C8305.92 3756.78 8292.52 3768.69 8282.52 3782.49C8272.54 3795.88 8265.53 3809.28 8261.27 3822.02C8257.02 3834.78 8254.89 3843.7 8254.89 3848.38H8512.92ZM8549.06 3992.27C8530.78 4020.12 8508.25 4040.1 8481.26 4052C8454.05 4064.12 8424.51 4070.07 8391.78 4070.07C8363.92 4070.07 8338.65 4065.38 8316.32 4056.05C8294.02 4046.69 8274.23 4033.29 8258.3 4016.28C8241.73 3999.28 8229.39 3979.09 8220.67 3955.71C8212.18 3932.55 8207.92 3906.62 8207.92 3878.36C8207.92 3851.14 8212.18 3825.85 8221.1 3802.9C8230.03 3779.73 8242.57 3759.53 8258.94 3742.54C8275.29 3725.74 8294.23 3712.14 8316.32 3702.58C8338.43 3692.8 8362.67 3688.12 8389.44 3688.12C8417.08 3688.12 8441.73 3692.8 8462.99 3702.58C8484.24 3712.14 8502.09 3725.09 8516.34 3741.05C8531 3757.2 8541.62 3775.26 8549.06 3795.67C8556.5 3816.07 8560.12 3836.91 8560.12 3857.74V3890.88H8254.89C8254.89 3900.89 8257.02 3913.64 8260.86 3928.94C8264.68 3944.45 8271.9 3959.55 8282.52 3974.21C8292.95 3988.88 8307.19 4001.42 8324.61 4012.05C8342.05 4022.46 8364.79 4027.77 8392.62 4027.77C8416.65 4027.77 8440.03 4021.82 8462.56 4010.34C8485.1 3998.86 8502.52 3983.14 8514.2 3963.16L8549.06 3992.27Z" fill="#034693"/>
<path d="M8828.79 2987.78L0.0078125 2994.56V3104.88H8828.57L8828.36 3286.2L9151.65 3045.15L8829 2814.98L8828.79 2987.78Z" fill="url(#paint6_linear_1740_2072)"/>
<defs>
<linearGradient id="paint0_linear_1740_2072" x1="-1532.13" y1="1648.98" x2="10337.1" y2="1648.98" gradientUnits="userSpaceOnUse">
<stop stop-color="#0D76BA"/>
<stop offset="0.00810379" stop-color="#0D76BA"/>
<stop offset="1" stop-color="#164A8A"/>
</linearGradient>
<linearGradient id="paint1_linear_1740_2072" x1="-1532.13" y1="141.195" x2="10337.1" y2="141.195" gradientUnits="userSpaceOnUse">
<stop stop-color="#0D76BA"/>
<stop offset="0.00810379" stop-color="#0D76BA"/>
<stop offset="1" stop-color="#164A8A"/>
</linearGradient>
<linearGradient id="paint2_linear_1740_2072" x1="-1550.73" y1="1648.98" x2="10374.5" y2="1648.98" gradientUnits="userSpaceOnUse">
<stop stop-color="#0D76BA"/>
<stop offset="0.00810379" stop-color="#0D76BA"/>
<stop offset="1" stop-color="#164A8A"/>
</linearGradient>
<linearGradient id="paint3_linear_1740_2072" x1="-1516.98" y1="1322.49" x2="10356.8" y2="1322.49" gradientUnits="userSpaceOnUse">
<stop stop-color="#0D76BA"/>
<stop offset="0.00810379" stop-color="#0D76BA"/>
<stop offset="1" stop-color="#164A8A"/>
</linearGradient>
<linearGradient id="paint4_linear_1740_2072" x1="-1530.07" y1="1650.36" x2="10381.8" y2="1650.36" gradientUnits="userSpaceOnUse">
<stop stop-color="#0D76BA"/>
<stop offset="0.00810379" stop-color="#0D76BA"/>
<stop offset="1" stop-color="#164A8A"/>
</linearGradient>
<linearGradient id="paint5_linear_1740_2072" x1="-1519.06" y1="1649.67" x2="10373.1" y2="1649.67" gradientUnits="userSpaceOnUse">
<stop stop-color="#0D76BA"/>
<stop offset="0.00810379" stop-color="#0D76BA"/>
<stop offset="1" stop-color="#164A8A"/>
</linearGradient>
<linearGradient id="paint6_linear_1740_2072" x1="0.00208165" y1="3050.59" x2="9151.65" y2="3050.59" gradientUnits="userSpaceOnUse">
<stop stop-color="#FAAA45"/>
<stop offset="1" stop-color="#F9A944"/>
</linearGradient>
</defs>
</svg>
