<?xml version="1.0" encoding="UTF-8"?>
<!DOCTYPE svg PUBLIC "-//W3C//DTD SVG 1.1//EN" "http://www.w3.org/Graphics/SVG/1.1/DTD/svg11.dtd">
<!-- Creator: CorelDRAW 2020 (64-Bit) -->
<svg xmlns="http://www.w3.org/2000/svg" xml:space="preserve" width="62.9142mm" height="11.3122mm" version="1.1" style="shape-rendering:geometricPrecision; text-rendering:geometricPrecision; image-rendering:optimizeQuality; fill-rule:evenodd; clip-rule:evenodd"
viewBox="0 0 2427.5 436.47"
 xmlns:xlink="http://www.w3.org/1999/xlink"
 xmlns:xodm="http://www.corel.com/coreldraw/odm/2003">
 <defs>
  <style type="text/css">
   <![CDATA[
    .fil2 {fill:#4E565A}
    .fil1 {fill:#FBBE07;fill-rule:nonzero}
    .fil3 {fill:#FBBE07;fill-rule:nonzero}
    .fil0 {fill:#4E565A;fill-rule:nonzero}
   ]]>
  </style>
 </defs>
 <g id="Katman_x0020_1">
  <metadata id="CorelCorpID_0Corel-Layer"/>
  <g id="_1786751064960">
   <polygon class="fil0" points="972.75,384.56 1205.09,384.56 1205.09,307.54 1072.09,307.54 1072.09,89.94 972.75,89.94 "/>
   <polygon class="fil0" points="86.28,384.56 185.61,384.56 185.61,166.96 271.9,166.96 271.9,89.94 -0,89.94 -0,166.96 86.28,166.96 "/>
   <polygon class="fil1" points="1302.38,309.91 1302.38,271.33 1426.51,271.33 1426.51,200.04 1302.38,200.04 1302.38,165.65 1443.7,165.65 1443.7,91.01 1205.09,91.01 1205.09,384.56 1449.15,384.56 1449.15,309.91 "/>
   <path class="fil1" d="M1937.69 91.01l-141.32 0 0 293.54 98.97 0 0 -72.13 42.35 0c81.78,0 133.78,-42.78 133.78,-110.71 0,-67.94 -52,-110.71 -133.78,-110.71zm-6.29 145.1l-36.06 0 0 -68.77 36.06 0c27.26,0 40.26,13 40.26,34.39 0,21.39 -13,34.39 -40.26,34.39zm330.45 155.16c95.61,0 165.65,-64.58 165.65,-153.48 0,-88.91 -70.03,-153.48 -165.65,-153.48 -95.61,0 -165.64,64.58 -165.64,153.48 0,88.9 70.03,153.48 165.64,153.48zm0 -80.1c-36.48,0 -65.84,-27.68 -65.84,-73.38 0,-45.71 29.35,-73.39 65.84,-73.39 36.48,0 65.84,27.68 65.84,73.39 0,45.71 -29.36,73.38 -65.84,73.38z"/>
   <polygon class="fil2" points="552.65,151.47 600.75,234.8 515.71,382.1 345.6,382.11 260.56,234.79 345.6,87.49 441.82,87.48 393.73,170.77 393.73,170.77 356.84,234.67 393.78,298.66 467.3,298.66 485.79,266.63 486.07,266.79 495.9,249.77 504.47,234.92 "/>
   <path class="fil3" d="M378.49 234.58l78.43 45.29 13.99 -24.23 -90.56 -24.27 -1.85 3.21zm181.52 -124.29l-3.89 -2.24 -9.3 16.11 -90.57 -24.27 21.44 -37.13 -3.89 -2.25 -64.41 -37.18c39.27,-26.2 90.6,-31.31 135.42,-10.34l-17.37 30.08 20.84 12.03 17.36 -30.08c40.56,28.33 61.82,75.34 58.76,122.44l-64.4 -37.18zm-77.76 125.72l10.19 -17.65 -90.56 -24.27 -10.19 17.65 90.57 24.27zm21.52 -37.28l10.19 -17.65 -90.57 -24.26 -10.19 17.64 90.56 24.27zm21.53 -37.28l10.19 -17.65 -90.57 -24.27 -10.19 17.66 90.57 24.26z"/>
   <path class="fil0" d="M781.15 308.52c-34.63,0 -62.5,-26.28 -62.5,-69.67 0,-43.4 27.87,-69.67 62.5,-69.67 34.64,0 62.51,26.28 62.51,69.67 0,43.39 -27.87,69.67 -62.51,69.67zm0 76.04c90.77,0 157.26,-61.31 157.26,-145.71 0,-84.4 -66.49,-145.71 -157.26,-145.71 -90.77,0 -157.25,61.31 -157.25,145.71 0,84.4 66.48,145.71 157.25,145.71z"/>
   <path class="fil0" d="M1226 435.95l8.26 0 -13.41 -16.94 12.66 -13.62 -7.86 0 -13.54 14.28 0 -14.28 -7.03 0 0 30.57 7.03 0 0 -7.73 4.1 -4.28 9.78 12.01zm75.23 0l7.42 0 -13.67 -30.57 -6.99 0 -13.62 30.57 7.25 0 2.71 -6.55 14.19 0 2.71 6.55zm-14.63 -11.92l4.85 -11.7 4.85 11.7 -9.7 0zm74.97 6.16l16.72 -20.22 0 -4.59 -25.72 0 0 5.76 16.42 0 -16.77 20.22 0 4.58 26.72 0 0 -5.76 -17.38 0zm87.11 5.76l7.42 0 -13.67 -30.57 -6.99 0 -13.62 30.57 7.25 0 2.71 -6.55 14.19 0 2.71 6.55zm-14.63 -11.92l4.85 -11.7 4.85 11.7 -9.7 0zm88.5 11.92l8.25 0 -13.41 -16.94 12.67 -13.62 -7.86 0 -13.54 14.28 0 -14.28 -7.03 0 0 30.57 7.03 0 0 -7.73 4.11 -4.28 9.78 12.01zm74.71 -30.57l0 12.05 -13.89 0 0 -12.05 -7.07 0 0 30.57 7.07 0 0 -12.53 13.89 0 0 12.53 7.07 0 0 -30.57 -7.07 0zm66.71 31.09c8.74,0 12.97,-4.36 12.97,-9.47 0,-11.22 -17.78,-7.33 -17.78,-12.97 0,-1.93 1.62,-3.5 5.81,-3.5 2.71,0 5.63,0.78 8.47,2.4l2.18 -5.37c-2.84,-1.79 -6.77,-2.71 -10.61,-2.71 -8.69,0 -12.88,4.33 -12.88,9.53 0,11.35 17.77,7.42 17.77,13.14 0,1.87 -1.71,3.27 -5.9,3.27 -3.67,0 -7.51,-1.31 -10.09,-3.18l-2.4 5.32c2.71,2.1 7.6,3.54 12.44,3.54zm66.06 -0.52l7.08 0 0 -24.8 9.78 0 0 -5.76 -26.64 0 0 5.76 9.78 0 0 24.8zm84.31 0l7.42 0 -13.67 -30.57 -6.99 0 -13.62 30.57 7.25 0 2.71 -6.55 14.19 0 2.71 6.55zm-14.63 -11.92l4.85 -11.7 4.85 11.7 -9.69 0zm88.63 -18.65l0 18.56 -15.19 -18.56 -5.85 0 0 30.57 6.99 0 0 -18.56 15.24 18.56 5.81 0 0 -30.57 -6.99 0z"/>
   <path class="fil1" d="M1607.63 159.24c2.04,0.16 4.12,0.39 6.22,0.69l-43.45 -64.27 -99.73 0 61.13 86.94c8.72,-7.02 18.56,-12.71 29.2,-16.74 11.85,-4.5 24.68,-6.96 38.06,-6.96 2.84,0 5.7,0.12 8.56,0.34z"/>
   <path class="fil1" d="M1570.81 235.06l22.63 39.41 39.41 10.56 136.02 -189.38 -95.19 0c-35.58,46.71 -68.68,91.68 -102.88,139.4z"/>
   <path class="fil1" d="M1775.21 379.91l-69.86 -98.02c-2.02,13.91 -6.71,26.96 -13.53,38.61 -8.37,14.3 -19.95,26.48 -33.75,35.57l15.43 23.85 101.71 0z"/>
   <path class="fil2" d="M1598.17 172.95c-51.15,0.49 -92.47,42.1 -92.47,93.36 0,14.11 3.13,27.48 8.74,39.48l-56.48 78.77 43.18 0 34.22 -47.76c3.63,-5.05 10.73,-6.23 15.78,-2.6l0 0c5.06,3.62 6.23,10.72 2.61,15.78l-24.78 34.58 41.79 0 17.63 -25.48c3.5,0.4 7.07,0.61 10.68,0.61 51.57,0 93.37,-41.81 93.37,-93.37 0,-11.39 -2.04,-22.29 -5.77,-32.38l-47.99 67.43 -54.3 -14.55 -30.08 -52.09 43.86 -61.77z"/>
  </g>
 </g>
</svg>
