<?xml version="1.0" encoding="UTF-8"?>
<svg xmlns="http://www.w3.org/2000/svg" width="796" height="232" viewBox="0 0 796 232" fill="none">
  <path fill-rule="evenodd" clip-rule="evenodd" d="M174.605 161.535L105.808 193.793V0.640964L174.605 32.899V56.4779L129.89 43.198V151.236L174.605 137.956V161.535Z" fill="#748188"></path>
  <path fill-rule="evenodd" clip-rule="evenodd" d="M93.2702 32.3242V92.7832L59.6809 92.1012V22.3484L93.2702 32.3242Z" fill="#008DD2"></path>
  <path fill-rule="evenodd" clip-rule="evenodd" d="M48.1481 18.9232L0.394287 4.74078V90.8975L48.1481 91.8672V18.9232Z" fill="#A3DAF8"></path>
  <path fill-rule="evenodd" clip-rule="evenodd" d="M93.2702 101.653V162.112L59.6809 172.088V102.334L93.2702 101.653Z" fill="#006193"></path>
  <path fill-rule="evenodd" clip-rule="evenodd" d="M48.1481 102.569L0.394287 103.538V189.695L48.1481 175.513V102.569Z" fill="#D0EAF1"></path>
  <mask id="mask0_109_369" style="mask-type:alpha" maskUnits="userSpaceOnUse" x="0" y="175" width="91" height="52">
    <mask id="mask1_109_369" style="mask-type:alpha" maskUnits="userSpaceOnUse" x="0" y="175" width="91" height="52">
      <path d="M0.394775 226.152H90.128V175.519H0.394775V226.152Z" fill="white"></path>
    </mask>
    <g mask="url(#mask1_109_369)">
      <path fill-rule="evenodd" clip-rule="evenodd" d="M0.394775 226.152H90.128V175.519H0.394775V226.152Z" fill="url(#paint0_linear_109_369)"></path>
    </g>
  </mask>
  <g mask="url(#mask0_109_369)">
    <path fill-rule="evenodd" clip-rule="evenodd" d="M48.1484 175.515L90.1277 200.975L36.1928 226.148L0.394531 189.697L48.1484 175.515Z" fill="#2B2B2A"></path>
  </g>
  <mask id="mask2_109_369" style="mask-type:alpha" maskUnits="userSpaceOnUse" x="59" y="162" width="47" height="32">
    <mask id="mask3_109_369" style="mask-type:alpha" maskUnits="userSpaceOnUse" x="59" y="162" width="47" height="32">
      <path d="M59.6809 193.648H105.808V162.045H59.6809V193.648Z" fill="white"></path>
    </mask>
    <g mask="url(#mask3_109_369)">
      <path fill-rule="evenodd" clip-rule="evenodd" d="M59.6809 193.648H105.808V162.045H59.6809V193.648Z" fill="url(#paint1_linear_109_369)"></path>
    </g>
  </mask>
  <g mask="url(#mask2_109_369)">
    <path fill-rule="evenodd" clip-rule="evenodd" d="M93.2702 162.112L105.808 162.045V193.648L59.6809 172.088L93.2702 162.112V162.112Z" fill="#2B2B2A"></path>
  </g>
  <path d="M302.69 17.9464L286.817 66.6444L271.592 17.9464H251.94L235.96 66.2127L220.734 17.9464H198.707L223.218 93.5311H246.11L261.226 47.5324L275.695 93.5311H298.587L323.098 17.9464H302.69ZM330.764 93.5311H352.144V17.9464H330.764V93.5311ZM418.334 17.9464V58.2223L384.969 17.9464H367.368V93.5311H388.316V53.2552L421.681 93.5311H439.281V17.9464H418.334ZM454.398 93.5311H490.139C515.19 93.5311 532.358 78.9541 532.358 55.7386C532.358 32.5238 515.19 17.9464 490.139 17.9464H454.398V93.5311ZM475.778 76.4706V35.0071H489.275C502.124 35.0071 510.763 42.6736 510.763 55.7386C510.763 68.804 502.124 76.4706 489.275 76.4706H475.778ZM581.704 95.043C605.891 95.043 623.708 78.4142 623.708 55.7386C623.708 33.0637 605.891 16.4349 581.704 16.4349C557.517 16.4349 539.701 33.0637 539.701 55.7386C539.701 78.4142 557.517 95.043 581.704 95.043ZM581.704 77.3343C570.258 77.3343 561.296 68.804 561.296 55.7386C561.296 42.6736 570.258 34.1434 581.704 34.1434C593.15 34.1434 602.112 42.6736 602.112 55.7386C602.112 68.804 593.15 77.3343 581.704 77.3343ZM673.053 95.043C697.24 95.043 715.057 78.4142 715.057 55.7386C715.057 33.0637 697.24 16.4349 673.053 16.4349C648.866 16.4349 631.05 33.0637 631.05 55.7386C631.05 78.4142 648.866 95.043 673.053 95.043ZM673.053 77.3343C661.608 77.3343 652.646 68.804 652.646 55.7386C652.646 42.6736 661.608 34.1434 673.053 34.1434C684.499 34.1434 693.461 42.6736 693.461 55.7386C693.461 68.804 684.499 77.3343 673.053 77.3343ZM773.041 93.5311H795.932L779.627 69.7759C789.022 65.2407 794.42 57.0347 794.42 45.913C794.42 28.6367 781.463 17.9464 760.839 17.9464H726.287V93.5311H747.666V73.4472H759.328L773.041 93.5311ZM772.825 45.913C772.825 52.8234 768.398 56.9266 759.544 56.9266H747.666V34.7913H759.544C768.398 34.7913 772.825 38.8942 772.825 45.913Z" fill="#748188"></path>
  <path d="M224.039 173.646V149.243H261.94V140.065H224.039V116.85H266.583V107.456H213.242V183.04H268.094V173.646H224.039ZM344.65 183.04L316.037 143.952L342.707 107.456H330.938L309.99 136.502L288.826 107.456H276.517L303.187 144.276L274.789 183.04H287.206L309.558 151.834L332.233 183.04H344.65ZM384.387 107.456H354.909V183.04H365.706V160.149H384.387C404.038 160.149 415.916 150.215 415.916 133.802C415.916 117.39 404.038 107.456 384.387 107.456V107.456ZM384.063 150.755H365.706V116.85H384.063C397.884 116.85 405.118 123.005 405.118 133.802C405.118 144.6 397.884 150.755 384.063 150.755V150.755ZM466.989 183.904C489.989 183.904 507.049 167.491 507.049 145.248C507.049 123.005 489.989 106.592 466.989 106.592C443.774 106.592 426.714 123.113 426.714 145.248C426.714 167.384 443.774 183.904 466.989 183.904ZM466.989 174.294C450.037 174.294 437.512 161.985 437.512 145.248C437.512 128.512 450.037 116.202 466.989 116.202C483.726 116.202 496.252 128.512 496.252 145.248C496.252 161.985 483.726 174.294 466.989 174.294Z" fill="#748188"></path>
  <path d="M220.018 212.861H221.883L216.816 206.726L221.58 201.707H219.764L213.709 207.937V201.707H212.115V212.861H213.709V209.977L215.748 207.905L220.018 212.861ZM237.364 212.861H239.038L233.971 201.707H232.393L227.342 212.861H228.983L230.21 210.072H236.137L237.364 212.861ZM230.768 208.798L233.174 203.332L235.58 208.798H230.768ZM247.748 211.475L254.726 202.791V201.707H245.724V203.093H252.623L245.612 211.777V212.861H254.934V211.475H247.748ZM271.307 212.861H272.981L267.914 201.707H266.336L261.285 212.861H262.926L264.153 210.072H270.08L271.307 212.861ZM264.711 208.798L267.117 203.332L269.523 208.798H264.711ZM288.446 212.861H290.311L285.244 206.726L290.008 201.707H288.192L282.137 207.937V201.707H280.543V212.861H282.137V209.977L284.176 207.905L288.446 212.861ZM305.904 201.707V206.503H299.498V201.707H297.905V212.861H299.498V207.89H305.904V212.861H307.497V201.707H305.904ZM319.999 212.988C322.947 212.988 324.317 211.522 324.317 209.82C324.317 205.728 317.562 207.435 317.562 204.705C317.562 203.731 318.374 202.934 320.27 202.934C321.258 202.934 322.358 203.221 323.33 203.842L323.855 202.568C322.931 201.93 321.577 201.579 320.27 201.579C317.338 201.579 316 203.046 316 204.769C316 208.914 322.756 207.196 322.756 209.916C322.756 210.888 321.927 211.634 319.999 211.634C318.566 211.634 317.147 211.095 316.319 210.346L315.729 211.586C316.621 212.415 318.294 212.988 319.999 212.988V212.988ZM334.604 212.861H336.182V203.093H340.006V201.707H330.78V203.093H334.604V212.861ZM355.424 212.861H357.097L352.03 201.707H350.453L345.402 212.861H347.043L348.27 210.072H354.197L355.424 212.861ZM348.828 208.798L351.234 203.332L353.64 208.798H348.828ZM372.659 201.707V210.025L365.967 201.707H364.66V212.861H366.253V204.543L372.946 212.861H374.252V201.707H372.659ZM387.025 209.148H391.311V207.826H387.025V209.148ZM412.418 212.861H414.091L409.024 201.707H407.446L402.395 212.861H404.036L405.263 210.072H411.19L412.418 212.861ZM405.821 208.798L408.227 203.332L410.633 208.798H405.821ZM421.653 212.861H429.285V211.475H423.246V201.707H421.653V212.861ZM448.902 212.861L448.886 201.707H447.58L442.988 209.547L438.33 201.707H437.024V212.861H438.553V204.782L442.587 211.506H443.323L447.356 204.734L447.372 212.861H448.902H448.902ZM466.479 212.861H468.152L463.085 201.707H461.508L456.456 212.861H458.098L459.325 210.072H465.252L466.479 212.861ZM459.882 208.798L462.288 203.332L464.694 208.798H459.882ZM477.371 212.861H478.949V203.093H482.773V201.707H473.547V203.093H477.371V212.861ZM498.988 201.707H497.411L493.825 207.587L490.256 201.707H488.551L492.981 208.973V212.861H494.558V209.005L498.988 201.707Z" fill="#748188"></path>
  <defs>
    <linearGradient id="paint0_linear_109_369" x1="27.1182" y1="149.763" x2="44.1734" y2="198.727" gradientUnits="userSpaceOnUse">
      <stop stop-color="white"></stop>
      <stop offset="0.575705" stop-color="white" stop-opacity="0"></stop>
      <stop offset="1" stop-color="white" stop-opacity="0"></stop>
    </linearGradient>
    <linearGradient id="paint1_linear_109_369" x1="79.7674" y1="152.885" x2="88.7177" y2="176.466" gradientUnits="userSpaceOnUse">
      <stop stop-color="white"></stop>
      <stop offset="0.575705" stop-color="white" stop-opacity="0"></stop>
      <stop offset="1" stop-color="white" stop-opacity="0"></stop>
    </linearGradient>
  </defs>
</svg>
