<svg width="2000" height="2000" viewBox="0 0 2000 2000" fill="none" xmlns="http://www.w3.org/2000/svg">
<path fillRule="evenodd" clipRule="evenodd" d="M2000 0H0V2000H2000V0ZM387.682 826.75C375.382 830.65 364.432 836.35 354.832 843.85V730L296.782 734.95V1047.7H354.832V892.45C362.332 886.75 370.582 881.8 379.582 877.6C388.582 873.1 397.282 870.85 405.682 870.85C418.582 870.85 428.332 874.6 434.932 882.1C441.532 889.3 444.832 899.8 444.832 913.6V1047.7H503.332V910.9C503.332 885.7 497.032 864.4 484.432 847C472.132 829.6 451.132 820.9 421.432 820.9C411.532 820.9 400.282 822.85 387.682 826.75ZM240.5 1052.65C249.5 1050.25 256.4 1047.1 261.2 1043.2L244.1 1000.9C239.9 1003 235.85 1004.5 231.95 1005.4C228.05 1006.3 224.15 1006.75 220.25 1006.75C209.75 1006.75 201.8 1003.15 196.4 995.95C191 988.45 188.3 979 188.3 967.6V874.9H245.9L227.9 829.9H188.3V767.8L130.25 778.15V829.9H101V874.9H130.25V977.95C130.25 1003.15 137.9 1022.65 153.2 1036.45C168.8 1049.95 190.1 1056.7 217.1 1056.7C224 1056.7 231.8 1055.35 240.5 1052.65ZM669.814 1053.1C632.014 1053.1 602.164 1042.75 580.264 1022.05C558.664 1001.35 547.864 973.6 547.864 938.8C547.864 904 557.614 876.1 577.114 855.1C596.914 834.1 623.764 823.6 657.664 823.6C691.864 823.6 716.914 835 732.814 857.8C749.014 880.3 757.114 907 757.114 937.9V955.9H609.964C612.664 970.3 619.264 981.85 629.764 990.55C640.264 998.95 654.064 1003.15 671.164 1003.15C681.064 1003.15 689.914 1001.95 697.714 999.55C705.814 996.85 715.114 993.1 725.614 988.3L742.714 1030.6C732.514 1038.4 720.064 1044.1 705.364 1047.7C690.964 1051.3 679.114 1053.1 669.814 1053.1ZM701.764 916.75C698.764 902.05 693.364 891.25 685.564 884.35C677.764 877.15 668.014 873.55 656.314 873.55C644.314 873.55 634.264 877.3 626.164 884.8C618.064 892 612.814 902.65 610.414 916.75H701.764ZM191.45 1266.45C200.75 1253.85 213.65 1247.55 230.15 1247.55C240.35 1247.55 249.5 1248.9 257.6 1251.6C266 1254 275.45 1257.6 285.95 1262.4L302.6 1220.55C291.8 1213.05 279.2 1207.35 264.8 1203.45C250.7 1199.55 239 1197.6 229.7 1197.6C194.3 1197.6 166.7 1208.1 146.9 1229.1C127.1 1250.1 117.2 1278 117.2 1312.8C117.2 1347.6 127.1 1375.35 146.9 1396.05C166.7 1416.75 194.3 1427.1 229.7 1427.1C239 1427.1 250.85 1425.3 265.25 1421.7C279.95 1418.1 292.4 1412.4 302.6 1404.6L285.95 1362.3C275.45 1367.1 266 1370.85 257.6 1373.55C249.5 1375.95 240.35 1377.15 230.15 1377.15C213.65 1377.15 200.75 1371.15 191.45 1359.15C182.15 1347.15 177.5 1331.7 177.5 1312.8C177.5 1294.2 182.15 1278.75 191.45 1266.45ZM445.848 1427.1C411.348 1427.1 384.348 1416.75 364.848 1396.05C345.648 1375.05 336.048 1347 336.048 1311.9C336.048 1277.1 346.098 1249.35 366.198 1228.65C386.598 1207.95 414.348 1197.6 449.448 1197.6C485.748 1197.6 513.798 1208.4 533.598 1230C553.698 1251.3 563.748 1279.35 563.748 1314.15C563.748 1348.95 552.948 1376.55 531.348 1396.95C509.748 1417.05 481.248 1427.1 445.848 1427.1ZM503.448 1314.15C503.448 1293.45 498.798 1277.25 489.498 1265.55C480.498 1253.55 467.598 1247.55 450.798 1247.55C433.698 1247.55 420.348 1252.8 410.748 1263.3C401.148 1273.8 396.348 1289.85 396.348 1311.45C396.348 1333.05 400.398 1349.4 408.498 1360.5C416.898 1371.6 429.648 1377.15 446.748 1377.15C463.548 1377.15 477.198 1372.2 487.698 1362.3C498.198 1352.1 503.448 1336.05 503.448 1314.15ZM673.477 1266.45C681.577 1252.05 695.827 1244.85 716.227 1244.85C723.127 1244.85 730.327 1246.35 737.827 1249.35C745.627 1252.35 752.827 1256.1 759.427 1260.6V1361.4C752.827 1365.6 745.627 1369.35 737.827 1372.65C730.327 1375.65 723.127 1377.15 716.227 1377.15C694.327 1377.15 679.777 1370.4 672.577 1356.9C665.377 1343.4 661.777 1328.1 661.777 1311C661.777 1295.7 665.677 1280.85 673.477 1266.45ZM818.377 1421.7V1104L759.427 1108.95V1211.1C750.427 1206 740.827 1202.1 730.627 1199.4C720.427 1196.4 711.277 1194.9 703.177 1194.9C671.677 1194.9 646.777 1206 628.477 1228.2C610.477 1250.4 601.477 1278 601.477 1311C601.477 1344 610.027 1371.6 627.127 1393.8C644.227 1416 668.677 1427.1 700.477 1427.1C711.277 1427.1 723.277 1424.85 736.477 1420.35C749.977 1415.55 761.677 1408.95 771.577 1400.55L787.777 1421.7H818.377ZM989.736 1427.1C951.936 1427.1 922.086 1416.75 900.186 1396.05C878.586 1375.35 867.786 1347.6 867.786 1312.8C867.786 1278 877.536 1250.1 897.036 1229.1C916.836 1208.1 943.686 1197.6 977.586 1197.6C1011.79 1197.6 1036.84 1209 1052.74 1231.8C1068.94 1254.3 1077.04 1281 1077.04 1311.9V1329.9H929.886C932.586 1344.3 939.186 1355.85 949.686 1364.55C960.186 1372.95 973.986 1377.15 991.086 1377.15C1000.99 1377.15 1009.84 1375.95 1017.64 1373.55C1025.74 1370.85 1035.04 1367.1 1045.54 1362.3L1062.64 1404.6C1052.44 1412.4 1039.99 1418.1 1025.29 1421.7C1010.89 1425.3 999.036 1427.1 989.736 1427.1ZM1021.69 1290.75C1018.69 1276.05 1013.29 1265.25 1005.49 1258.35C997.686 1251.15 987.936 1247.55 976.236 1247.55C964.236 1247.55 954.186 1251.3 946.086 1258.8C937.986 1266 932.736 1276.65 930.336 1290.75H1021.69ZM257.6 1624.25L245.9 1577.45C234.2 1577.45 221.9 1580.9 209 1587.8C196.1 1594.4 185.15 1601.6 176.15 1609.4L156.8 1577.45H126.2V1795.7H184.7V1658C197.3 1646.9 210.05 1638.5 222.95 1632.8C236.15 1627.1 247.7 1624.25 257.6 1624.25ZM400.429 1801.1C362.629 1801.1 332.779 1790.75 310.879 1770.05C289.279 1749.35 278.479 1721.6 278.479 1686.8C278.479 1652 288.229 1624.1 307.729 1603.1C327.529 1582.1 354.379 1571.6 388.279 1571.6C422.479 1571.6 447.529 1583 463.429 1605.8C479.629 1628.3 487.729 1655 487.729 1685.9V1703.9H340.579C343.279 1718.3 349.879 1729.85 360.379 1738.55C370.879 1746.95 384.679 1751.15 401.779 1751.15C411.679 1751.15 420.529 1749.95 428.329 1747.55C436.429 1744.85 445.729 1741.1 456.229 1736.3L473.329 1778.6C463.129 1786.4 450.679 1792.1 435.979 1795.7C421.579 1799.3 409.729 1801.1 400.429 1801.1ZM432.379 1664.75C429.379 1650.05 423.979 1639.25 416.179 1632.35C408.379 1625.15 398.629 1621.55 386.929 1621.55C374.929 1621.55 364.879 1625.3 356.779 1632.8C348.679 1640 343.429 1650.65 341.029 1664.75H432.379ZM674.894 1729.55C666.794 1743.95 652.694 1751.15 632.594 1751.15C626.294 1751.15 619.694 1749.95 612.794 1747.55C606.194 1745.15 599.894 1742.15 593.894 1738.55V1631.45C599.894 1627.55 606.194 1624.55 612.794 1622.45C619.694 1620.05 626.294 1618.85 632.594 1618.85C654.494 1618.85 669.044 1625.6 676.244 1639.1C683.444 1652.6 687.044 1667.9 687.044 1685C687.044 1700 682.994 1714.85 674.894 1729.55ZM565.544 1577.45H535.844V1894.25L593.894 1889.75V1785.8C602.594 1790.6 611.744 1794.35 621.344 1797.05C631.244 1799.75 640.094 1801.1 647.894 1801.1C679.094 1801.1 703.394 1790 720.794 1767.8C738.494 1745.6 747.344 1718 747.344 1685C747.344 1652 738.794 1624.4 721.694 1602.2C704.594 1580 679.994 1568.9 647.894 1568.9C637.694 1568.9 625.994 1571.15 612.794 1575.65C599.594 1580.15 588.044 1586.15 578.144 1593.65L565.544 1577.45ZM949.419 1774.1C939.519 1783.4 927.369 1790.75 912.969 1796.15C898.569 1801.85 885.519 1804.7 873.819 1804.7C844.119 1804.7 822.969 1796 810.369 1778.6C798.069 1760.9 791.919 1739.6 791.919 1714.7V1577.45H850.869V1712C850.869 1725.8 854.169 1736.45 860.769 1743.95C867.369 1751.15 876.969 1754.75 889.569 1754.75C897.369 1754.75 905.619 1752.8 914.319 1748.9C923.019 1745 930.969 1740.5 938.169 1735.4V1577.45H996.669V1795.7H966.069L949.419 1774.1ZM1114.21 1584.2V1478L1056.16 1482.95V1795.7H1085.86L1100.26 1777.25C1110.16 1784.75 1121.41 1790.6 1134.01 1794.8C1146.61 1799 1158.01 1801.1 1168.21 1801.1C1199.41 1801.1 1223.71 1790 1241.11 1767.8C1258.81 1745.6 1267.66 1718 1267.66 1685C1267.66 1652 1259.11 1624.4 1242.01 1602.2C1224.91 1580 1200.31 1568.9 1168.21 1568.9C1160.41 1568.9 1151.56 1570.25 1141.66 1572.95C1132.06 1575.65 1122.91 1579.4 1114.21 1584.2ZM1195.21 1729.55C1187.11 1743.95 1173.01 1751.15 1152.91 1751.15C1146.61 1751.15 1140.01 1749.95 1133.11 1747.55C1126.51 1745.15 1120.21 1742.15 1114.21 1738.55V1631.45C1120.21 1627.55 1126.51 1624.55 1133.11 1622.45C1140.01 1620.05 1146.61 1618.85 1152.91 1618.85C1174.81 1618.85 1189.36 1625.6 1196.56 1639.1C1203.76 1652.6 1207.36 1667.9 1207.36 1685C1207.36 1700 1203.31 1714.85 1195.21 1729.55ZM1375.68 1478V1795.7H1317.63V1482.95L1375.68 1478ZM1486.66 1490.15C1480.36 1483.85 1472.56 1480.7 1463.26 1480.7C1454.26 1480.7 1446.61 1483.85 1440.31 1490.15C1434.01 1496.45 1430.86 1504.25 1430.86 1513.55C1430.86 1522.85 1434.01 1530.65 1440.31 1536.95C1446.61 1543.25 1454.26 1546.4 1463.26 1546.4C1472.56 1546.4 1480.36 1543.25 1486.66 1536.95C1493.26 1530.65 1496.56 1522.85 1496.56 1513.55C1496.56 1504.25 1493.26 1496.45 1486.66 1490.15ZM1492.51 1795.7V1577.45H1434.01V1795.7H1492.51ZM1653.1 1621.55C1636.6 1621.55 1623.7 1627.85 1614.4 1640.45C1605.1 1652.75 1600.45 1668.2 1600.45 1686.8C1600.45 1705.7 1605.1 1721.15 1614.4 1733.15C1623.7 1745.15 1636.6 1751.15 1653.1 1751.15C1663.3 1751.15 1672.45 1749.95 1680.55 1747.55C1688.95 1744.85 1698.4 1741.1 1708.9 1736.3L1725.55 1778.6C1715.35 1786.4 1702.9 1792.1 1688.2 1795.7C1673.8 1799.3 1661.95 1801.1 1652.65 1801.1C1617.25 1801.1 1589.65 1790.75 1569.85 1770.05C1550.05 1749.35 1540.15 1721.6 1540.15 1686.8C1540.15 1652 1550.05 1624.1 1569.85 1603.1C1589.65 1582.1 1617.25 1571.6 1652.65 1571.6C1661.95 1571.6 1673.65 1573.55 1687.75 1577.45C1702.15 1581.35 1714.75 1587.05 1725.55 1594.55L1708.9 1636.4C1698.4 1631.6 1688.95 1628 1680.55 1625.6C1672.45 1622.9 1663.3 1621.55 1653.1 1621.55ZM1800.85 1739.45C1794.85 1733.15 1787.2 1730 1777.9 1730C1768.6 1730 1760.65 1733.15 1754.05 1739.45C1747.75 1745.75 1744.6 1753.55 1744.6 1762.85C1744.6 1772.15 1747.75 1779.95 1754.05 1786.25C1760.65 1792.55 1768.6 1795.7 1777.9 1795.7C1787.2 1795.7 1794.85 1792.55 1800.85 1786.25C1807.15 1779.95 1810.3 1772.15 1810.3 1762.85C1810.3 1753.55 1807.15 1745.75 1800.85 1739.45Z" fill="black"/>
</svg>
