<svg width="1752" height="984" viewBox="0 0 1752 984" fill="none" xmlns="http://www.w3.org/2000/svg">
<path d="M249 984C197.667 984 156.333 970 125 942C93.6667 914 78 872.667 78 818C78 796 79.6667 775.667 83 757C86.3333 738.333 89.6667 719.667 93 701C97 681.667 99 660.333 99 637C99 614.333 91.6667 594.333 77 577C63 559 37.3333 547.667 1.54972e-06 543V440C37.3333 435.333 63 424.667 77 408C91.6667 390.667 99 370 99 346C99 323.333 97 302.667 93 284C89.6667 264.667 86.3333 245.667 83 227C79.6667 208.333 78 187.667 78 165C78 111 93.6667 69.9999 125 41.9999C156.333 13.9999 197.667 -4.91142e-05 249 -4.91142e-05H312V106H273C225 106 201 129.667 201 177C201 203 204 229.333 210 256C216.667 282 220 313.667 220 351C220 386.333 211.333 416.667 194 442C176.667 466.667 149 483 111 491V493C149 501 176.667 517.667 194 543C211.333 567.667 220 597.667 220 633C220 670.333 216.667 702.333 210 729C204 755 201 781 201 807C201 854.333 225 878 273 878H312V984H249ZM558.914 811C506.914 811 465.247 798.333 433.914 773C402.581 747.667 386.914 702.667 386.914 638V422H301.914V315H386.914L401.914 182H514.914V315H648.914V422H514.914V639C514.914 663 519.914 679.667 529.914 689C540.581 697.667 558.581 702 583.914 702H645.914V811H558.914ZM889.117 823C838.451 823 793.784 812 755.117 790C716.451 768 685.784 737.333 663.117 698C641.117 658.667 630.117 613.667 630.117 563C630.117 512.333 641.117 467.333 663.117 428C685.784 388.667 716.451 358 755.117 336C793.784 314 838.451 303 889.117 303C952.451 303 1005.78 319.667 1049.12 353C1092.45 385.667 1120.12 431 1132.12 489H997.117C990.451 465 977.117 446.333 957.117 433C937.784 419 914.784 412 888.117 412C852.784 412 822.784 425.333 798.117 452C773.451 478.667 761.117 515.667 761.117 563C761.117 610.333 773.451 647.333 798.117 674C822.784 700.667 852.784 714 888.117 714C914.784 714 937.784 707.333 957.117 694C977.117 680.667 990.451 661.667 997.117 637H1132.12C1120.12 693 1092.45 738 1049.12 772C1005.78 806 952.451 823 889.117 823ZM1145.73 811V315H1259.73L1271.73 408C1289.73 376 1314.06 350.667 1344.73 332C1376.06 312.667 1412.73 303 1454.73 303V438H1418.73C1390.73 438 1365.73 442.333 1343.73 451C1321.73 459.667 1304.39 474.667 1291.73 496C1279.73 517.333 1273.73 547 1273.73 585V811H1145.73ZM1439.21 984V878H1477.21C1525.88 878 1550.21 854.333 1550.21 807C1550.21 781 1546.88 755 1540.21 729C1533.54 702.333 1530.21 670.333 1530.21 633C1530.21 597.667 1538.88 567.667 1556.21 543C1573.54 517.667 1601.54 501 1640.21 493V491C1601.54 483 1573.54 466.667 1556.21 442C1538.88 416.667 1530.21 386.333 1530.21 351C1530.21 313.667 1533.54 282 1540.21 256C1546.88 229.333 1550.21 203 1550.21 177C1550.21 129.667 1525.88 106 1477.21 106H1439.21V-4.91142e-05H1501.21C1552.54 -4.91142e-05 1593.88 13.9999 1625.21 41.9999C1657.21 69.9999 1673.21 111 1673.21 165C1673.21 187.667 1671.21 208.333 1667.21 227C1663.88 245.667 1660.21 264.667 1656.21 284C1652.88 302.667 1651.21 323.333 1651.21 346C1651.21 370 1658.54 390.667 1673.21 408C1687.88 424.667 1713.88 435.333 1751.21 440V543C1713.88 547.667 1687.88 559 1673.21 577C1658.54 594.333 1651.21 614.333 1651.21 637C1651.21 660.333 1652.88 681.667 1656.21 701C1660.21 719.667 1663.88 738.333 1667.21 757C1671.21 775.667 1673.21 796 1673.21 818C1673.21 872.667 1657.21 914 1625.21 942C1593.88 970 1552.54 984 1501.21 984H1439.21Z" fill="black"/>
</svg>
