<svg width="2313" height="984" viewBox="0 0 2313 984" fill="none" xmlns="http://www.w3.org/2000/svg">
<path d="M3.69549e-06 981V-4.91142e-05H238V104H120V876H238V981H3.69549e-06ZM530.352 984C479.018 984 437.685 970 406.352 942C375.018 914 359.352 872.667 359.352 818C359.352 796 361.018 775.667 364.352 757C367.685 738.333 371.018 719.667 374.352 701C378.352 681.667 380.352 660.333 380.352 637C380.352 614.333 373.018 594.333 358.352 577C344.352 559 318.685 547.667 281.352 543V440C318.685 435.333 344.352 424.667 358.352 408C373.018 390.667 380.352 370 380.352 346C380.352 323.333 378.352 302.667 374.352 284C371.018 264.667 367.685 245.667 364.352 227C361.018 208.333 359.352 187.667 359.352 165C359.352 111 375.018 69.9999 406.352 41.9999C437.685 13.9999 479.018 -4.91142e-05 530.352 -4.91142e-05H593.352V106H554.352C506.352 106 482.352 129.667 482.352 177C482.352 203 485.352 229.333 491.352 256C498.018 282 501.352 313.667 501.352 351C501.352 386.333 492.685 416.667 475.352 442C458.018 466.667 430.352 483 392.352 491V493C430.352 501 458.018 517.667 475.352 543C492.685 567.667 501.352 597.667 501.352 633C501.352 670.333 498.018 702.333 491.352 729C485.352 755 482.352 781 482.352 807C482.352 854.333 506.352 878 554.352 878H593.352V984H530.352ZM840.266 811C788.266 811 746.599 798.333 715.266 773C683.932 747.667 668.266 702.667 668.266 638V422H583.266V315H668.266L683.266 182H796.266V315H930.266V422H796.266V639C796.266 663 801.266 679.667 811.266 689C821.932 697.667 839.932 702 865.266 702H927.266V811H840.266ZM1170.47 823C1119.8 823 1075.14 812 1036.47 790C997.802 768 967.135 737.333 944.469 698C922.469 658.667 911.469 613.667 911.469 563C911.469 512.333 922.469 467.333 944.469 428C967.135 388.667 997.802 358 1036.47 336C1075.14 314 1119.8 303 1170.47 303C1233.8 303 1287.14 319.667 1330.47 353C1373.8 385.667 1401.47 431 1413.47 489H1278.47C1271.8 465 1258.47 446.333 1238.47 433C1219.14 419 1196.14 412 1169.47 412C1134.14 412 1104.14 425.333 1079.47 452C1054.8 478.667 1042.47 515.667 1042.47 563C1042.47 610.333 1054.8 647.333 1079.47 674C1104.14 700.667 1134.14 714 1169.47 714C1196.14 714 1219.14 707.333 1238.47 694C1258.47 680.667 1271.8 661.667 1278.47 637H1413.47C1401.47 693 1373.8 738 1330.47 772C1287.14 806 1233.8 823 1170.47 823ZM1427.08 811V315H1541.08L1553.08 408C1571.08 376 1595.41 350.667 1626.08 332C1657.41 312.667 1694.08 303 1736.08 303V438H1700.08C1672.08 438 1647.08 442.333 1625.08 451C1603.08 459.667 1585.74 474.667 1573.08 496C1561.08 517.333 1555.08 547 1555.08 585V811H1427.08ZM1720.56 984V878H1758.56C1807.23 878 1831.56 854.333 1831.56 807C1831.56 781 1828.23 755 1821.56 729C1814.9 702.333 1811.56 670.333 1811.56 633C1811.56 597.667 1820.23 567.667 1837.56 543C1854.9 517.667 1882.9 501 1921.56 493V491C1882.9 483 1854.9 466.667 1837.56 442C1820.23 416.667 1811.56 386.333 1811.56 351C1811.56 313.667 1814.9 282 1821.56 256C1828.23 229.333 1831.56 203 1831.56 177C1831.56 129.667 1807.23 106 1758.56 106H1720.56V-4.91142e-05H1782.56C1833.9 -4.91142e-05 1875.23 13.9999 1906.56 41.9999C1938.56 69.9999 1954.56 111 1954.56 165C1954.56 187.667 1952.56 208.333 1948.56 227C1945.23 245.667 1941.56 264.667 1937.56 284C1934.23 302.667 1932.56 323.333 1932.56 346C1932.56 370 1939.9 390.667 1954.56 408C1969.23 424.667 1995.23 435.333 2032.56 440V543C1995.23 547.667 1969.23 559 1954.56 577C1939.9 594.333 1932.56 614.333 1932.56 637C1932.56 660.333 1934.23 681.667 1937.56 701C1941.56 719.667 1945.23 738.333 1948.56 757C1952.56 775.667 1954.56 796 1954.56 818C1954.56 872.667 1938.56 914 1906.56 942C1875.23 970 1833.9 984 1782.56 984H1720.56ZM2074.48 981V876H2192.48V104H2074.48V-4.91142e-05H2312.48V981H2074.48Z" fill="white"/>
</svg>
